<?xml version="1.0" encoding="UTF-8"?>
<svg width="1238px" height="839px" viewBox="0 0 1238 839" version="1.1" xmlns="http://www.w3.org/2000/svg" xmlns:xlink="http://www.w3.org/1999/xlink">
    <!-- Generator: Sketch 61.2 (89653) - https://sketch.com -->
    <title>Star</title>
    <desc>Created with Sketch.</desc>
    <defs>
        <polygon id="path-1" points="0.486305769 0.956305769 4.53 0.956305769 4.53 5 0.486305769 5"></polygon>
        <polygon id="path-3" points="0 0.209528677 2.02163947 0.209528677 2.02163947 2.23087132 0 2.23087132"></polygon>
        <polygon id="path-5" points="0.486305769 0.956305769 4.53 0.956305769 4.53 5 0.486305769 5"></polygon>
        <polygon id="path-7" points="0 0.209528677 2.02163947 0.209528677 2.02163947 2.23087132 0 2.23087132"></polygon>
        <polygon id="path-9" points="0.486305769 0.956305769 4.53 0.956305769 4.53 5 0.486305769 5"></polygon>
        <polygon id="path-11" points="0 0.209528677 2.02163947 0.209528677 2.02163947 2.23087132 0 2.23087132"></polygon>
        <polygon id="path-13" points="0.486305769 0.956305769 4.53 0.956305769 4.53 5 0.486305769 5"></polygon>
        <polygon id="path-15" points="0 0.209528677 2.02163947 0.209528677 2.02163947 2.23087132 0 2.23087132"></polygon>
        <polygon id="path-17" points="0.486305769 0.956305769 4.53 0.956305769 4.53 5 0.486305769 5"></polygon>
        <polygon id="path-19" points="0 0.209528677 2.02163947 0.209528677 2.02163947 2.23087132 0 2.23087132"></polygon>
        <polygon id="path-21" points="0.486305769 0.956305769 4.53 0.956305769 4.53 5 0.486305769 5"></polygon>
        <polygon id="path-23" points="0 0.209528677 2.02163947 0.209528677 2.02163947 2.23087132 0 2.23087132"></polygon>
        <polygon id="path-25" points="0.933180413 0.318392863 6.34 0.318392863 6.34 5.72520714 0.933180413 5.72520714"></polygon>
        <polygon id="path-27" points="0 0.592992863 5.40667901 0.592992863 5.40667901 5.99997901 0 5.99997901"></polygon>
        <polygon id="path-29" points="0.933180413 0.318392863 6.34 0.318392863 6.34 5.72520714 0.933180413 5.72520714"></polygon>
        <polygon id="path-31" points="0 0.592992863 5.40667901 0.592992863 5.40667901 5.99997901 0 5.99997901"></polygon>
        <polygon id="path-33" points="0.0004 -0.0001 15.711 -0.0001 15.711 15.7117 0.0004 15.7117"></polygon>
        <polygon id="path-35" points="0.0004 -0.0001 15.711 -0.0001 15.711 15.7117 0.0004 15.7117"></polygon>
    </defs>
    <g id="Page-1" stroke="none" stroke-width="1" fill="none" fill-rule="evenodd">
        <g id="웹사이트" transform="translate(-101.000000, -94.000000)">
            <g id="Star">
                <g id="Group-9" transform="translate(1123.000000, 205.500000) scale(-1, 1) translate(-1123.000000, -205.500000) translate(1015.000000, 141.000000)">
                    <g id="Group-3" transform="translate(211.000000, 123.791000)">
                        <mask id="mask-2" fill="white">
                            <use xlink:href="#path-1"></use>
                        </mask>
                        <g id="Clip-2"></g>
                        <path d="M3.3062,4.8352 C2.2802,5.2762 1.0922,4.8022 0.6512,3.7762 C0.2102,2.7512 0.6842,1.5622 1.7102,1.1212 C2.7352,0.6802 3.9242,1.1542 4.3652,2.1802 C4.8062,3.2052 4.3322,4.3942 3.3062,4.8352" id="Fill-1" fill="#FFFFFF" mask="url(#mask-2)"></path>
                    </g>
                    <path d="M7.6706,48.4755 C6.6446,48.9165 5.4566,48.4425 5.0156,47.4165 C4.5746,46.3915 5.0486,45.2025 6.0746,44.7615 C7.0996,44.3205 8.2886,44.7945 8.7296,45.8205 C9.1706,46.8455 8.6966,48.0345 7.6706,48.4755" id="Fill-4" fill="#FFFFFF"></path>
                    <g id="Group-8" transform="translate(0.000000, 0.791000)">
                        <mask id="mask-4" fill="white">
                            <use xlink:href="#path-3"></use>
                        </mask>
                        <g id="Clip-7"></g>
                        <path d="M1.4099,2.1487 C0.8969,2.3687 0.3029,2.1317 0.0819,1.6197 C-0.1381,1.1067 0.0989,0.5117 0.6119,0.2917 C1.1249,0.0717 1.7189,0.3087 1.9389,0.8207 C2.1599,1.3337 1.9229,1.9287 1.4099,2.1487" id="Fill-6" fill="#FFFFFF" mask="url(#mask-4)"></path>
                    </g>
                </g>
                <g id="Group-9" transform="translate(230.000000, 755.000000)">
                    <g id="Group-3" transform="translate(211.000000, 123.791000)">
                        <mask id="mask-6" fill="white">
                            <use xlink:href="#path-5"></use>
                        </mask>
                        <g id="Clip-2"></g>
                        <path d="M3.3062,4.8352 C2.2802,5.2762 1.0922,4.8022 0.6512,3.7762 C0.2102,2.7512 0.6842,1.5622 1.7102,1.1212 C2.7352,0.6802 3.9242,1.1542 4.3652,2.1802 C4.8062,3.2052 4.3322,4.3942 3.3062,4.8352" id="Fill-1" fill="#FFFFFF" mask="url(#mask-6)"></path>
                    </g>
                    <path d="M7.6706,48.4755 C6.6446,48.9165 5.4566,48.4425 5.0156,47.4165 C4.5746,46.3915 5.0486,45.2025 6.0746,44.7615 C7.0996,44.3205 8.2886,44.7945 8.7296,45.8205 C9.1706,46.8455 8.6966,48.0345 7.6706,48.4755" id="Fill-4" fill="#FFFFFF"></path>
                    <g id="Group-8" transform="translate(0.000000, 0.791000)">
                        <mask id="mask-8" fill="white">
                            <use xlink:href="#path-7"></use>
                        </mask>
                        <g id="Clip-7"></g>
                        <path d="M1.4099,2.1487 C0.8969,2.3687 0.3029,2.1317 0.0819,1.6197 C-0.1381,1.1067 0.0989,0.5117 0.6119,0.2917 C1.1249,0.0717 1.7189,0.3087 1.9389,0.8207 C2.1599,1.3337 1.9229,1.9287 1.4099,2.1487" id="Fill-6" fill="#FFFFFF" mask="url(#mask-8)"></path>
                    </g>
                </g>
                <g id="Group-9-Copy" transform="translate(209.000000, 467.500000) scale(-1, 1) translate(-209.000000, -467.500000) translate(101.000000, 403.000000)">
                    <g id="Group-3" transform="translate(211.000000, 123.791000)">
                        <mask id="mask-10" fill="white">
                            <use xlink:href="#path-9"></use>
                        </mask>
                        <g id="Clip-2"></g>
                        <path d="M3.3062,4.8352 C2.2802,5.2762 1.0922,4.8022 0.6512,3.7762 C0.2102,2.7512 0.6842,1.5622 1.7102,1.1212 C2.7352,0.6802 3.9242,1.1542 4.3652,2.1802 C4.8062,3.2052 4.3322,4.3942 3.3062,4.8352" id="Fill-1" fill="#FFFFFF" mask="url(#mask-10)"></path>
                    </g>
                    <path d="M7.6706,48.4755 C6.6446,48.9165 5.4566,48.4425 5.0156,47.4165 C4.5746,46.3915 5.0486,45.2025 6.0746,44.7615 C7.0996,44.3205 8.2886,44.7945 8.7296,45.8205 C9.1706,46.8455 8.6966,48.0345 7.6706,48.4755" id="Fill-4" fill="#FFFFFF"></path>
                    <g id="Group-8" transform="translate(0.000000, 0.791000)">
                        <mask id="mask-12" fill="white">
                            <use xlink:href="#path-11"></use>
                        </mask>
                        <g id="Clip-7"></g>
                        <path d="M1.4099,2.1487 C0.8969,2.3687 0.3029,2.1317 0.0819,1.6197 C-0.1381,1.1067 0.0989,0.5117 0.6119,0.2917 C1.1249,0.0717 1.7189,0.3087 1.9389,0.8207 C2.1599,1.3337 1.9229,1.9287 1.4099,2.1487" id="Fill-6" fill="#FFFFFF" mask="url(#mask-12)"></path>
                    </g>
                </g>
                <g id="Group-9" transform="translate(269.000000, 187.500000) scale(1, -1) translate(-269.000000, -187.500000) translate(161.000000, 123.000000)">
                    <g id="Group-3" transform="translate(211.000000, 123.791000)">
                        <mask id="mask-14" fill="white">
                            <use xlink:href="#path-13"></use>
                        </mask>
                        <g id="Clip-2"></g>
                        <path d="M3.3062,4.8352 C2.2802,5.2762 1.0922,4.8022 0.6512,3.7762 C0.2102,2.7512 0.6842,1.5622 1.7102,1.1212 C2.7352,0.6802 3.9242,1.1542 4.3652,2.1802 C4.8062,3.2052 4.3322,4.3942 3.3062,4.8352" id="Fill-1" fill="#FFFFFF" mask="url(#mask-14)"></path>
                    </g>
                    <path d="M7.6706,48.4755 C6.6446,48.9165 5.4566,48.4425 5.0156,47.4165 C4.5746,46.3915 5.0486,45.2025 6.0746,44.7615 C7.0996,44.3205 8.2886,44.7945 8.7296,45.8205 C9.1706,46.8455 8.6966,48.0345 7.6706,48.4755" id="Fill-4" fill="#FFFFFF"></path>
                    <g id="Group-8" transform="translate(0.000000, 0.791000)">
                        <mask id="mask-16" fill="white">
                            <use xlink:href="#path-15"></use>
                        </mask>
                        <g id="Clip-7"></g>
                        <path d="M1.4099,2.1487 C0.8969,2.3687 0.3029,2.1317 0.0819,1.6197 C-0.1381,1.1067 0.0989,0.5117 0.6119,0.2917 C1.1249,0.0717 1.7189,0.3087 1.9389,0.8207 C2.1599,1.3337 1.9229,1.9287 1.4099,2.1487" id="Fill-6" fill="#FFFFFF" mask="url(#mask-16)"></path>
                    </g>
                </g>
                <g id="Group-9" transform="translate(239.000000, 338.000000)">
                    <g id="Group-3" transform="translate(211.000000, 123.791000)">
                        <mask id="mask-18" fill="white">
                            <use xlink:href="#path-17"></use>
                        </mask>
                        <g id="Clip-2"></g>
                        <path d="M3.3062,4.8352 C2.2802,5.2762 1.0922,4.8022 0.6512,3.7762 C0.2102,2.7512 0.6842,1.5622 1.7102,1.1212 C2.7352,0.6802 3.9242,1.1542 4.3652,2.1802 C4.8062,3.2052 4.3322,4.3942 3.3062,4.8352" id="Fill-1" fill="#FFFFFF" mask="url(#mask-18)"></path>
                    </g>
                    <path d="M7.6706,48.4755 C6.6446,48.9165 5.4566,48.4425 5.0156,47.4165 C4.5746,46.3915 5.0486,45.2025 6.0746,44.7615 C7.0996,44.3205 8.2886,44.7945 8.7296,45.8205 C9.1706,46.8455 8.6966,48.0345 7.6706,48.4755" id="Fill-4" fill="#FFFFFF"></path>
                    <g id="Group-8" transform="translate(0.000000, 0.791000)">
                        <mask id="mask-20" fill="white">
                            <use xlink:href="#path-19"></use>
                        </mask>
                        <g id="Clip-7"></g>
                        <path d="M1.4099,2.1487 C0.8969,2.3687 0.3029,2.1317 0.0819,1.6197 C-0.1381,1.1067 0.0989,0.5117 0.6119,0.2917 C1.1249,0.0717 1.7189,0.3087 1.9389,0.8207 C2.1599,1.3337 1.9229,1.9287 1.4099,2.1487" id="Fill-6" fill="#FFFFFF" mask="url(#mask-20)"></path>
                    </g>
                </g>
                <g id="Group-9-Copy-2" transform="translate(1123.000000, 383.000000)">
                    <g id="Group-3" transform="translate(211.000000, 123.791000)">
                        <mask id="mask-22" fill="white">
                            <use xlink:href="#path-21"></use>
                        </mask>
                        <g id="Clip-2"></g>
                        <path d="M3.3062,4.8352 C2.2802,5.2762 1.0922,4.8022 0.6512,3.7762 C0.2102,2.7512 0.6842,1.5622 1.7102,1.1212 C2.7352,0.6802 3.9242,1.1542 4.3652,2.1802 C4.8062,3.2052 4.3322,4.3942 3.3062,4.8352" id="Fill-1" fill="#FFFFFF" mask="url(#mask-22)"></path>
                    </g>
                    <path d="M7.6706,48.4755 C6.6446,48.9165 5.4566,48.4425 5.0156,47.4165 C4.5746,46.3915 5.0486,45.2025 6.0746,44.7615 C7.0996,44.3205 8.2886,44.7945 8.7296,45.8205 C9.1706,46.8455 8.6966,48.0345 7.6706,48.4755" id="Fill-4" fill="#FFFFFF"></path>
                    <g id="Group-8" transform="translate(0.000000, 0.791000)">
                        <mask id="mask-24" fill="white">
                            <use xlink:href="#path-23"></use>
                        </mask>
                        <g id="Clip-7"></g>
                        <path d="M1.4099,2.1487 C0.8969,2.3687 0.3029,2.1317 0.0819,1.6197 C-0.1381,1.1067 0.0989,0.5117 0.6119,0.2917 C1.1249,0.0717 1.7189,0.3087 1.9389,0.8207 C2.1599,1.3337 1.9229,1.9287 1.4099,2.1487" id="Fill-6" fill="#FFFFFF" mask="url(#mask-24)"></path>
                    </g>
                </g>
                <g id="Group-9" transform="translate(554.000000, 93.000000)">
                    <g id="Group-3" transform="translate(314.000000, 0.682000)">
                        <mask id="mask-26" fill="white">
                            <use xlink:href="#path-25"></use>
                        </mask>
                        <g id="Clip-2"></g>
                        <path d="M1.569,4.7633 C2.531,5.9053 4.236,6.0513 5.378,5.0893 C6.52,4.1283 6.666,2.4223 5.705,1.2803 C4.743,0.1383 3.038,-0.0077 1.896,0.9543 C0.753,1.9163 0.607,3.6213 1.569,4.7633" id="Fill-1" fill="#FFFFFF" mask="url(#mask-26)"></path>
                    </g>
                    <g id="Group-6" transform="translate(0.000000, 152.682000)">
                        <mask id="mask-28" fill="white">
                            <use xlink:href="#path-27"></use>
                        </mask>
                        <g id="Clip-5"></g>
                        <path d="M0.6356,5.0379 C1.5976,6.1799 3.3026,6.3259 4.4446,5.3649 C5.5866,4.4029 5.7326,2.6969 4.7716,1.5549 C3.8096,0.4129 2.1046,0.2669 0.9626,1.2289 C-0.1804,2.1909 -0.3264,3.8959 0.6356,5.0379" id="Fill-4" fill="#FFFFFF" mask="url(#mask-28)"></path>
                    </g>
                    <path d="M35.3665,94.0229 C35.8475,94.5939 36.7005,94.6669 37.2715,94.1859 C37.8425,93.7049 37.9155,92.8529 37.4345,92.2819 C36.9535,91.7109 36.1005,91.6379 35.5295,92.1179 C34.9585,92.5989 34.8855,93.4519 35.3665,94.0229" id="Fill-7" fill="#FFFFFF"></path>
                </g>
                <g id="Group-9" transform="translate(1150.500000, 853.500000) scale(-1, 1) translate(-1150.500000, -853.500000) translate(990.000000, 774.000000)">
                    <g id="Group-3" transform="translate(314.000000, 0.682000)">
                        <mask id="mask-30" fill="white">
                            <use xlink:href="#path-29"></use>
                        </mask>
                        <g id="Clip-2"></g>
                        <path d="M1.569,4.7633 C2.531,5.9053 4.236,6.0513 5.378,5.0893 C6.52,4.1283 6.666,2.4223 5.705,1.2803 C4.743,0.1383 3.038,-0.0077 1.896,0.9543 C0.753,1.9163 0.607,3.6213 1.569,4.7633" id="Fill-1" fill="#FFFFFF" mask="url(#mask-30)"></path>
                    </g>
                    <g id="Group-6" transform="translate(0.000000, 152.682000)">
                        <mask id="mask-32" fill="white">
                            <use xlink:href="#path-31"></use>
                        </mask>
                        <g id="Clip-5"></g>
                        <path d="M0.6356,5.0379 C1.5976,6.1799 3.3026,6.3259 4.4446,5.3649 C5.5866,4.4029 5.7326,2.6969 4.7716,1.5549 C3.8096,0.4129 2.1046,0.2669 0.9626,1.2289 C-0.1804,2.1909 -0.3264,3.8959 0.6356,5.0379" id="Fill-4" fill="#FFFFFF" mask="url(#mask-32)"></path>
                    </g>
                    <path d="M35.3665,94.0229 C35.8475,94.5939 36.7005,94.6669 37.2715,94.1859 C37.8425,93.7049 37.9155,92.8529 37.4345,92.2819 C36.9535,91.7109 36.1005,91.6379 35.5295,92.1179 C34.9585,92.5989 34.8855,93.4519 35.3665,94.0229" id="Fill-7" fill="#FFFFFF"></path>
                </g>
                <g id="Group-3" transform="translate(1052.000000, 141.000000)">
                    <mask id="mask-34" fill="white">
                        <use xlink:href="#path-33"></use>
                    </mask>
                    <g id="Clip-2"></g>
                    <path d="M1.2354,1.3157 C0.8324,1.1127 0.4214,0.9187 0.0004,0.7357 C0.2234,1.1367 0.4574,1.5277 0.6984,1.9087 C3.1214,5.7237 3.3524,10.4417 1.3144,14.4767 C1.1114,14.8787 0.9174,15.2907 0.7344,15.7117 C1.1354,15.4887 1.5264,15.2547 1.9064,15.0127 C5.7174,12.5937 10.4284,12.3587 14.4594,14.3907 C14.8674,14.5967 15.2844,14.7927 15.7114,14.9767 C15.4864,14.5717 15.2504,14.1767 15.0064,13.7907 C12.5924,9.9817 12.3624,5.2747 14.3924,1.2477 C14.5974,0.8407 14.7924,0.4257 14.9764,-0.0003 C14.5704,0.2257 14.1754,0.4607 13.7904,0.7047 C9.9774,3.1227 5.2654,3.3507 1.2354,1.3157" id="Fill-1" fill="#FFFFFF" mask="url(#mask-34)"></path>
                </g>
                <g id="Group-3" transform="translate(230.000000, 618.000000)">
                    <mask id="mask-36" fill="white">
                        <use xlink:href="#path-35"></use>
                    </mask>
                    <g id="Clip-2"></g>
                    <path d="M1.2354,1.3157 C0.8324,1.1127 0.4214,0.9187 0.0004,0.7357 C0.2234,1.1367 0.4574,1.5277 0.6984,1.9087 C3.1214,5.7237 3.3524,10.4417 1.3144,14.4767 C1.1114,14.8787 0.9174,15.2907 0.7344,15.7117 C1.1354,15.4887 1.5264,15.2547 1.9064,15.0127 C5.7174,12.5937 10.4284,12.3587 14.4594,14.3907 C14.8674,14.5967 15.2844,14.7927 15.7114,14.9767 C15.4864,14.5717 15.2504,14.1767 15.0064,13.7907 C12.5924,9.9817 12.3624,5.2747 14.3924,1.2477 C14.5974,0.8407 14.7924,0.4257 14.9764,-0.0003 C14.5704,0.2257 14.1754,0.4607 13.7904,0.7047 C9.9774,3.1227 5.2654,3.3507 1.2354,1.3157" id="Fill-1" fill="#FFFFFF" mask="url(#mask-36)"></path>
                </g>
                <rect id="Rectangle" x="0" y="0" width="1440" height="1024"></rect>
            </g>
        </g>
    </g>
</svg>