<?xml version="1.0" encoding="iso-8859-1"?>
<!-- Generator: Adobe Illustrator 19.0.0, SVG Export Plug-In . SVG Version: 6.00 Build 0)  -->
<svg version="1.1" id="Layer_1" xmlns="http://www.w3.org/2000/svg" xmlns:xlink="http://www.w3.org/1999/xlink" x="0px" y="0px"
	 viewBox="0 0 400 300" style="enable-background:new 0 0 400 300;" xml:space="preserve">
<g>
	<path id="XMLID_82_" style="fill:#1F1F21;" d="M332.038,138.171c1.116-8.836,2.232-17.672,3.349-26.507
		c0.783-6.202-3.641-11.862-9.851-12.582c-84.555-9.801-169.96-9.801-254.515,0c-6.209,0.72-10.634,6.38-9.851,12.582
		c1.138,9.012,2.277,18.024,3.415,27.037c0.792,6.268-3.735,11.953-10.02,12.59c-8.088,0.819-16.17,1.705-24.247,2.661
		c-6.203,0.734-10.62,6.384-9.837,12.581c1.992,15.767,3.984,31.534,5.975,47.301c0.774,6.126,6.343,10.476,12.476,9.752
		c107.665-12.719,216.453-12.719,324.118,0c6.132,0.724,11.702-3.625,12.476-9.752c1.992-15.767,3.984-31.534,5.975-47.3
		c0.783-6.195-3.633-11.847-9.834-12.58c-9.846-1.164-19.701-2.224-29.563-3.186C335.799,150.151,331.244,144.457,332.038,138.171z"
		/>
	<path id="XMLID_81_" style="fill:#28282B;" d="M332.038,138.171c1.116-8.836,2.232-17.672,3.349-26.507
		c0.783-6.202-3.641-11.862-9.851-12.582c-84.555-9.801-169.96-9.801-254.515,0c-6.209,0.72-10.634,6.38-9.851,12.582
		c1.138,9.012,2.277,18.024,3.415,27.037c0.792,6.268-3.735,11.953-10.02,12.59c-8.088,0.819-16.17,1.705-24.247,2.661
		c-6.203,0.734-10.62,6.384-9.837,12.581c1.992,15.767,3.984,31.534,5.975,47.301c0.774,6.126,6.343,10.476,12.476,9.752
		c107.665-12.719,216.453-12.719,324.118,0c6.132,0.724,11.702-3.625,12.476-9.752c1.992-15.767,3.984-31.534,5.975-47.3
		c0.783-6.195-3.633-11.847-9.834-12.58c-9.846-1.164-19.701-2.224-29.563-3.186C335.799,150.151,331.244,144.457,332.038,138.171z"
		/>
	<g>
		<g>
			<g style="enable-background:new    ;">
				<defs>
					<path id="SVGID_93_" style="enable-background:new    ;" d="M313.728,166.166l-0.165,5.828
						c-1.294,11.992-2.58,23.984-3.874,35.984l0.165-5.828C311.148,190.15,312.434,178.158,313.728,166.166z"/>
				</defs>
				<use xlink:href="#SVGID_93_"  style="overflow:visible;fill:#111111;"/>
				<clipPath id="SVGID_1_">
					<use xlink:href="#SVGID_93_"  style="overflow:visible;"/>
				</clipPath>
				<g style="clip-path:url(#SVGID_1_);enable-background:new    ;">
					<path id="XMLID_80_" style="fill:#111111;" d="M313.728,166.166l-0.165,5.828c-1.294,11.992-2.58,23.984-3.874,35.984
						l0.165-5.828C311.148,190.15,312.434,178.158,313.728,166.166"/>
				</g>
			</g>
			<g>
				<g style="enable-background:new    ;">
					<defs>
						<path id="SVGID_95_" style="enable-background:new    ;" d="M117.34,113.234l-0.165,5.828
							c0.015-0.521-0.007-1.049-0.066-1.581c-0.646-5.756-5.833-10.075-11.904-10.085c-0.556-0.001-1.12,0.034-1.688,0.108
							c-1.905,0.243-3.809,0.494-5.714,0.76l0.165-5.828c1.905-0.267,3.809-0.517,5.714-0.76c0.568-0.074,1.132-0.109,1.688-0.108
							c6.071,0.01,11.258,4.329,11.904,10.085C117.333,112.185,117.354,112.713,117.34,113.234z"/>
					</defs>
					<use xlink:href="#SVGID_95_"  style="overflow:visible;fill:#111111;"/>
					<clipPath id="SVGID_2_">
						<use xlink:href="#SVGID_95_"  style="overflow:visible;"/>
					</clipPath>
					<g style="clip-path:url(#SVGID_2_);enable-background:new    ;">
						<path id="XMLID_79_" style="fill:#111111;" d="M117.34,113.234l-0.165,5.828c0.015-0.521-0.007-1.049-0.066-1.581
							c-0.646-5.756-5.833-10.075-11.904-10.085c-0.556-0.001-1.12,0.034-1.688,0.108c-1.905,0.243-3.809,0.494-5.714,0.76
							l0.165-5.828c1.905-0.267,3.809-0.517,5.714-0.76c0.568-0.074,1.132-0.109,1.688-0.108c6.071,0.01,11.258,4.329,11.904,10.085
							C117.333,112.185,117.354,112.713,117.34,113.234"/>
					</g>
				</g>
				<g style="enable-background:new    ;">
					<defs>
						<path id="SVGID_97_" style="enable-background:new    ;" d="M130.663,112.973l-0.165,5.828
							c-0.346,12.23-9.855,22.579-22.357,24.2c-6.082,0.791-12.148,1.654-18.207,2.597l0.165-5.828
							c6.058-0.942,12.125-1.805,18.207-2.597C120.808,135.553,130.317,125.203,130.663,112.973z"/>
					</defs>
					<use xlink:href="#SVGID_97_"  style="overflow:visible;fill:#111111;"/>
					<clipPath id="SVGID_3_">
						<use xlink:href="#SVGID_97_"  style="overflow:visible;"/>
					</clipPath>
					<path id="XMLID_78_" style="clip-path:url(#SVGID_3_);fill:#111111;" d="M130.301,116.521
						c-0.292,1.649-0.751,3.248-1.361,4.779c-0.691,1.734-1.575,3.38-2.627,4.91c-4.009,5.829-10.463,9.985-18.006,10.963
						c-6.082,0.791-12.148,1.654-18.207,2.596l-0.165,5.828c6.058-0.942,12.125-1.805,18.207-2.597
						c7.543-0.978,13.997-5.134,18.006-10.963c1.052-1.53,1.936-3.176,2.627-4.91c0.61-1.531,1.069-3.13,1.361-4.779
						c0.206-1.16,0.328-2.345,0.362-3.548l0.165-5.828C130.629,114.176,130.506,115.361,130.301,116.521z"/>
				</g>
				<g style="enable-background:new    ;">
					<defs>
						<path id="SVGID_99_" style="enable-background:new    ;" d="M90.1,139.77l-0.165,5.828c-2.55-16.107-5.1-32.207-7.659-48.314
							l0.165-5.828C84.999,107.563,87.55,123.663,90.1,139.77z"/>
					</defs>
					<use xlink:href="#SVGID_99_"  style="overflow:visible;fill:#111111;"/>
					<clipPath id="SVGID_4_">
						<use xlink:href="#SVGID_99_"  style="overflow:visible;"/>
					</clipPath>
					<g style="clip-path:url(#SVGID_4_);enable-background:new    ;">
						<path id="XMLID_77_" style="fill:#111111;" d="M90.1,139.77l-0.165,5.828c-2.55-16.107-5.1-32.207-7.659-48.314l0.165-5.828
							C84.999,107.563,87.55,123.663,90.1,139.77"/>
					</g>
				</g>
				<g style="enable-background:new    ;">
					<defs>
						<path id="SVGID_101_" style="enable-background:new    ;" d="M168.635,101.364l-0.165,5.828
							c0.005-0.161,0.004-0.324-0.003-0.488c-0.158-3.774-3.394-6.688-7.373-6.695c-0.145,0-0.29,0.003-0.437,0.011
							c-2.825,0.154-5.649,0.316-8.466,0.494l0.165-5.828c2.817-0.178,5.642-0.34,8.466-0.494c0.147-0.008,0.292-0.011,0.437-0.011
							c3.979,0.006,7.215,2.921,7.373,6.695C168.639,101.039,168.64,101.202,168.635,101.364z"/>
					</defs>
					<use xlink:href="#SVGID_101_"  style="overflow:visible;fill:#111111;"/>
					<clipPath id="SVGID_5_">
						<use xlink:href="#SVGID_101_"  style="overflow:visible;"/>
					</clipPath>
					<g style="clip-path:url(#SVGID_5_);enable-background:new    ;">
						<path id="XMLID_76_" style="fill:#111111;" d="M168.635,101.364l-0.165,5.828c0.005-0.161,0.003-0.324-0.003-0.488
							c-0.158-3.774-3.394-6.688-7.373-6.695c-0.145,0-0.29,0.003-0.437,0.011c-2.825,0.154-5.649,0.316-8.466,0.494l0.165-5.828
							c2.817-0.178,5.642-0.34,8.466-0.494c0.147-0.008,0.292-0.011,0.437-0.011c3.979,0.006,7.215,2.921,7.373,6.695
							C168.639,101.039,168.64,101.202,168.635,101.364"/>
					</g>
				</g>
				<path id="XMLID_75_" style="fill:#111111;" d="M179.756,108.513c0.035-0.371,0.063-0.743,0.073-1.12l0.165-5.828
					c-0.011,0.377-0.038,0.749-0.073,1.12c-0.01,0.105-0.022,0.209-0.034,0.313c-0.033,0.292-0.074,0.582-0.122,0.869
					c-0.015,0.091-0.027,0.182-0.044,0.272c-0.027,0.148-0.059,0.295-0.09,0.442c-0.03,0.142-0.058,0.284-0.092,0.424
					c-0.035,0.147-0.074,0.291-0.113,0.437c-0.037,0.139-0.072,0.278-0.112,0.415c-0.042,0.144-0.089,0.286-0.134,0.429
					c-0.044,0.136-0.086,0.273-0.132,0.408c-0.049,0.141-0.103,0.28-0.155,0.419c-0.049,0.131-0.097,0.263-0.149,0.393
					c-0.11,0.272-0.226,0.542-0.349,0.807c-0.01,0.021-0.018,0.044-0.028,0.065c-0.134,0.287-0.276,0.569-0.425,0.848
					c-0.047,0.088-0.097,0.173-0.145,0.26c-0.105,0.19-0.212,0.38-0.324,0.566c-0.061,0.101-0.124,0.201-0.187,0.301
					c-0.106,0.169-0.214,0.337-0.326,0.503c-0.07,0.104-0.141,0.207-0.212,0.309c-0.105,0.15-0.213,0.297-0.322,0.444
					c-0.075,0.101-0.15,0.202-0.228,0.301c-0.116,0.149-0.235,0.295-0.355,0.44c-0.076,0.092-0.151,0.184-0.228,0.274
					c-0.135,0.157-0.273,0.309-0.413,0.461c-0.068,0.074-0.133,0.149-0.202,0.222c-0.21,0.222-0.425,0.44-0.646,0.652l-0.165,5.828
					c0.221-0.212,0.435-0.429,0.646-0.651c0.069-0.073,0.135-0.149,0.202-0.222c0.139-0.152,0.278-0.304,0.412-0.461
					c0.078-0.09,0.153-0.183,0.229-0.275c0.12-0.145,0.239-0.29,0.354-0.439c0.077-0.099,0.152-0.2,0.228-0.301
					c0.109-0.146,0.217-0.294,0.322-0.444c0.037-0.052,0.077-0.103,0.113-0.156c0.035-0.05,0.065-0.103,0.099-0.153
					c0.111-0.166,0.219-0.333,0.326-0.503c0.063-0.1,0.126-0.2,0.187-0.301c0.112-0.186,0.219-0.376,0.324-0.566
					c0.048-0.087,0.098-0.172,0.145-0.26c0.148-0.279,0.291-0.561,0.425-0.848c0.01-0.022,0.019-0.045,0.029-0.067
					c0.122-0.265,0.238-0.534,0.348-0.805c0.009-0.023,0.02-0.045,0.03-0.068c0.043-0.107,0.08-0.217,0.12-0.326
					c0.052-0.139,0.106-0.277,0.155-0.418c0.047-0.135,0.089-0.272,0.133-0.408c0.046-0.142,0.092-0.284,0.134-0.428
					c0.04-0.137,0.075-0.276,0.112-0.415c0.039-0.145,0.078-0.29,0.113-0.437c0.033-0.14,0.062-0.282,0.091-0.424
					c0.031-0.147,0.063-0.294,0.091-0.443c0.006-0.031,0.013-0.062,0.019-0.093c0.01-0.059,0.015-0.12,0.025-0.179
					c0.048-0.288,0.088-0.578,0.122-0.87C179.734,108.721,179.746,108.617,179.756,108.513z"/>
				<g style="enable-background:new    ;">
					<defs>
						<path id="SVGID_103_" style="enable-background:new    ;" d="M162.178,119.261l-0.165,5.828
							c-2.729,0.146-5.457,0.301-8.186,0.479l0.165-5.828C156.72,119.561,159.449,119.407,162.178,119.261z"/>
					</defs>
					<use xlink:href="#SVGID_103_"  style="overflow:visible;fill:#111111;"/>
					<clipPath id="SVGID_6_">
						<use xlink:href="#SVGID_103_"  style="overflow:visible;"/>
					</clipPath>
					<g style="clip-path:url(#SVGID_6_);enable-background:new    ;">
						<path id="XMLID_74_" style="fill:#111111;" d="M162.178,119.261l-0.165,5.828c-2.729,0.146-5.457,0.301-8.186,0.479
							l0.165-5.828C156.72,119.561,159.449,119.407,162.178,119.261"/>
					</g>
				</g>
				<g style="enable-background:new    ;">
					<defs>
						<path id="SVGID_105_" style="enable-background:new    ;" d="M170.525,131.855l-0.165,5.828
							c-2.74-4.209-5.52-8.409-8.347-12.594l0.165-5.828C165.006,123.446,167.785,127.647,170.525,131.855z"/>
					</defs>
					<use xlink:href="#SVGID_105_"  style="overflow:visible;fill:#111111;"/>
					<clipPath id="SVGID_7_">
						<use xlink:href="#SVGID_105_"  style="overflow:visible;"/>
					</clipPath>
					<g style="clip-path:url(#SVGID_7_);enable-background:new    ;">
						<path id="XMLID_73_" style="fill:#111111;" d="M170.525,131.855l-0.165,5.828c-2.74-4.209-5.52-8.409-8.347-12.594
							l0.165-5.828C165.006,123.446,167.785,127.647,170.525,131.855"/>
					</g>
				</g>
				<g style="enable-background:new    ;">
					<defs>
						<path id="SVGID_107_" style="enable-background:new    ;" d="M185.489,131.387l-0.165,5.828
							c-4.985,0.103-9.978,0.262-14.964,0.468l0.165-5.828C175.51,131.649,180.504,131.49,185.489,131.387z"/>
					</defs>
					<use xlink:href="#SVGID_107_"  style="overflow:visible;fill:#111111;"/>
					<clipPath id="SVGID_8_">
						<use xlink:href="#SVGID_107_"  style="overflow:visible;"/>
					</clipPath>
					<g style="clip-path:url(#SVGID_8_);enable-background:new    ;">
						<path id="XMLID_72_" style="fill:#111111;" d="M185.489,131.387l-0.165,5.828c-4.985,0.103-9.978,0.262-14.964,0.468
							l0.165-5.828C175.51,131.649,180.504,131.49,185.489,131.387"/>
					</g>
				</g>
				<g style="enable-background:new    ;">
					<defs>
						<path id="SVGID_109_" style="enable-background:new    ;" d="M154.841,132.687l-0.165,5.828
							c-4.329,0.279-8.65,0.589-12.972,0.947l0.165-5.828C146.191,133.276,150.512,132.965,154.841,132.687z"/>
					</defs>
					<use xlink:href="#SVGID_109_"  style="overflow:visible;fill:#111111;"/>
					<clipPath id="SVGID_9_">
						<use xlink:href="#SVGID_109_"  style="overflow:visible;"/>
					</clipPath>
					<g style="clip-path:url(#SVGID_9_);enable-background:new    ;">
						<path id="XMLID_71_" style="fill:#111111;" d="M154.841,132.687l-0.165,5.828c-4.329,0.279-8.65,0.589-12.972,0.947
							l0.165-5.828C146.191,133.276,150.512,132.965,154.841,132.687"/>
					</g>
				</g>
				<g style="enable-background:new    ;">
					<defs>
						<path id="SVGID_111_" style="enable-background:new    ;" d="M141.869,133.634l-0.165,5.828
							c-1.366-16.248-2.724-32.488-4.089-48.737l0.165-5.828C139.146,101.145,140.503,117.386,141.869,133.634z"/>
					</defs>
					<use xlink:href="#SVGID_111_"  style="overflow:visible;fill:#111111;"/>
					<clipPath id="SVGID_10_">
						<use xlink:href="#SVGID_111_"  style="overflow:visible;"/>
					</clipPath>
					<g style="clip-path:url(#SVGID_10_);enable-background:new    ;">
						<path id="XMLID_70_" style="fill:#111111;" d="M141.869,133.634l-0.165,5.828c-1.366-16.248-2.724-32.488-4.089-48.737
							l0.165-5.828C139.146,101.145,140.503,117.386,141.869,133.634"/>
					</g>
				</g>
				<path id="XMLID_69_" style="fill:#111111;" d="M214.928,95.238c-0.076-0.001-0.152-0.002-0.228-0.002
					c-0.241,0-0.481,0.008-0.719,0.021c-0.073,0.004-0.145,0.01-0.217,0.015c-0.169,0.012-0.338,0.027-0.505,0.046
					c-0.076,0.009-0.153,0.017-0.229,0.027c-0.182,0.024-0.363,0.051-0.543,0.083c-0.051,0.009-0.102,0.016-0.153,0.025
					c-0.227,0.042-0.452,0.091-0.675,0.145c-0.055,0.013-0.11,0.029-0.165,0.044c-0.169,0.044-0.337,0.09-0.503,0.14
					c-0.072,0.022-0.143,0.045-0.215,0.068c-0.156,0.051-0.311,0.104-0.464,0.161c-0.062,0.023-0.125,0.045-0.187,0.069
					c-0.21,0.081-0.417,0.166-0.621,0.258c-0.02,0.009-0.04,0.019-0.06,0.028c-0.184,0.084-0.365,0.173-0.544,0.265
					c-0.062,0.032-0.123,0.066-0.185,0.099c-0.139,0.075-0.277,0.153-0.413,0.233c-0.062,0.036-0.123,0.072-0.184,0.11
					c-0.155,0.095-0.307,0.193-0.457,0.295c-0.033,0.022-0.067,0.044-0.1,0.066c-0.181,0.125-0.357,0.255-0.53,0.389
					c-0.047,0.036-0.092,0.074-0.139,0.112c-0.127,0.101-0.252,0.205-0.374,0.311c-0.055,0.047-0.109,0.095-0.162,0.143
					c-0.119,0.107-0.235,0.217-0.35,0.328c-0.044,0.043-0.089,0.084-0.132,0.128c-0.153,0.154-0.302,0.311-0.446,0.473
					c-0.023,0.025-0.044,0.052-0.066,0.077c-0.121,0.138-0.239,0.28-0.353,0.423c-0.043,0.054-0.085,0.109-0.126,0.164
					c-0.094,0.123-0.186,0.247-0.275,0.374c-0.024,0.035-0.051,0.068-0.075,0.103c-0.016,0.024-0.031,0.049-0.047,0.073
					c-0.07,0.104-0.138,0.21-0.205,0.316c-0.039,0.062-0.08,0.124-0.117,0.187c-0.075,0.124-0.146,0.25-0.216,0.376
					c-0.026,0.047-0.054,0.094-0.08,0.141c-0.094,0.175-0.183,0.353-0.267,0.533c-0.018,0.038-0.034,0.078-0.051,0.117
					c-0.065,0.142-0.127,0.285-0.186,0.43c-0.006,0.015-0.013,0.03-0.019,0.045c-0.028,0.071-0.053,0.143-0.079,0.214
					c-0.032,0.086-0.066,0.172-0.096,0.26c-0.031,0.089-0.058,0.178-0.087,0.268c-0.028,0.089-0.057,0.177-0.083,0.266
					c-0.026,0.09-0.049,0.181-0.073,0.271c-0.024,0.091-0.049,0.182-0.071,0.274c-0.021,0.091-0.04,0.183-0.059,0.275
					c-0.019,0.093-0.04,0.185-0.057,0.279c-0.003,0.017-0.007,0.033-0.01,0.05c-0.006,0.035-0.009,0.072-0.015,0.107
					c-0.032,0.192-0.059,0.385-0.081,0.579c-0.008,0.066-0.015,0.133-0.021,0.199c-0.023,0.241-0.041,0.483-0.047,0.728
					l-0.165,5.828c0.007-0.245,0.025-0.487,0.047-0.728c0.006-0.067,0.014-0.134,0.021-0.201c0.022-0.194,0.049-0.387,0.081-0.578
					c0.009-0.052,0.016-0.106,0.025-0.158c0.017-0.093,0.037-0.186,0.057-0.278c0.019-0.092,0.038-0.185,0.059-0.276
					c0.021-0.091,0.046-0.181,0.07-0.271c0.024-0.092,0.047-0.183,0.074-0.274c0.026-0.089,0.055-0.177,0.083-0.265
					c0.029-0.09,0.056-0.18,0.087-0.269c0.03-0.088,0.064-0.174,0.096-0.261c0.032-0.086,0.064-0.173,0.098-0.258
					c0.058-0.144,0.121-0.287,0.185-0.428c0.018-0.04,0.034-0.08,0.053-0.12c0.084-0.18,0.173-0.357,0.266-0.532
					c0.026-0.048,0.054-0.094,0.08-0.142c0.07-0.126,0.141-0.252,0.215-0.376c0.038-0.063,0.078-0.124,0.117-0.187
					c0.067-0.106,0.135-0.212,0.205-0.316c0.04-0.059,0.082-0.117,0.123-0.175c0.089-0.127,0.181-0.251,0.275-0.374
					c0.042-0.055,0.083-0.109,0.126-0.163c0.115-0.144,0.233-0.286,0.355-0.425c0.022-0.025,0.043-0.051,0.065-0.076
					c0.144-0.162,0.294-0.319,0.447-0.473c0.043-0.043,0.087-0.085,0.131-0.127c0.115-0.112,0.231-0.222,0.351-0.329
					c0.053-0.048,0.107-0.096,0.162-0.143c0.123-0.106,0.248-0.21,0.376-0.312c0.046-0.037,0.091-0.074,0.137-0.11
					c0.173-0.134,0.349-0.264,0.53-0.389c0.033-0.023,0.067-0.044,0.1-0.066c0.15-0.102,0.303-0.2,0.458-0.295
					c0.061-0.037,0.122-0.073,0.183-0.109c0.136-0.08,0.274-0.158,0.414-0.233c0.061-0.033,0.122-0.067,0.184-0.099
					c0.18-0.093,0.362-0.182,0.547-0.266c0.019-0.009,0.038-0.018,0.057-0.027c0.204-0.092,0.412-0.177,0.622-0.258
					c0.062-0.024,0.124-0.046,0.187-0.068c0.154-0.056,0.309-0.11,0.465-0.161c0.071-0.023,0.142-0.046,0.214-0.067
					c0.166-0.05,0.334-0.097,0.502-0.14c0.055-0.014,0.11-0.03,0.165-0.044c0.223-0.054,0.448-0.103,0.675-0.145
					c0.05-0.009,0.101-0.016,0.151-0.025c0.18-0.031,0.362-0.059,0.545-0.083c0.076-0.01,0.152-0.018,0.229-0.027
					c0.168-0.019,0.336-0.034,0.506-0.046c0.072-0.005,0.144-0.011,0.217-0.015c0.238-0.013,0.477-0.021,0.719-0.021
					c0.076,0,0.152,0.001,0.228,0.002c6.881,0.13,12.244,5.549,11.997,11.997l0.165-5.828
					C227.172,100.787,221.809,95.368,214.928,95.238z"/>
				<path id="XMLID_68_" style="fill:#111111;" d="M240.286,107.892c-0.027,0.449-0.068,0.894-0.119,1.336
					c-0.017,0.145-0.04,0.287-0.059,0.431c-0.039,0.296-0.08,0.592-0.13,0.884c-0.032,0.19-0.07,0.378-0.106,0.567
					c-0.041,0.211-0.082,0.422-0.129,0.631c-0.043,0.191-0.09,0.381-0.137,0.57c-0.051,0.207-0.103,0.413-0.159,0.618
					c-0.052,0.188-0.108,0.374-0.165,0.56c-0.061,0.202-0.122,0.403-0.188,0.602c-0.061,0.185-0.126,0.367-0.192,0.55
					c-0.071,0.197-0.142,0.394-0.217,0.588c-0.064,0.165-0.131,0.327-0.198,0.49c-0.101,0.246-0.206,0.49-0.316,0.731
					c-0.07,0.155-0.141,0.309-0.214,0.462c-0.116,0.243-0.237,0.483-0.361,0.722c-0.074,0.143-0.147,0.287-0.224,0.428
					c-0.142,0.261-0.291,0.517-0.442,0.773c-0.066,0.112-0.129,0.226-0.197,0.337c-0.223,0.363-0.453,0.72-0.693,1.071
					c-0.195,0.284-0.397,0.562-0.604,0.837c-0.05,0.067-0.101,0.134-0.153,0.201c-0.21,0.275-0.425,0.547-0.646,0.813
					c-0.005,0.006-0.01,0.011-0.015,0.017c-0.218,0.261-0.443,0.517-0.672,0.769c-0.056,0.062-0.112,0.124-0.169,0.185
					c-0.234,0.253-0.471,0.502-0.715,0.745c-0.021,0.021-0.043,0.041-0.064,0.063c-0.228,0.226-0.461,0.446-0.698,0.663
					c-0.061,0.056-0.121,0.112-0.182,0.167c-0.255,0.23-0.513,0.455-0.777,0.674c-0.035,0.029-0.072,0.058-0.107,0.087
					c-0.239,0.196-0.482,0.388-0.728,0.575c-0.064,0.049-0.127,0.098-0.191,0.146c-0.275,0.205-0.553,0.406-0.835,0.6
					c-0.048,0.033-0.096,0.064-0.144,0.097c-0.251,0.17-0.505,0.335-0.761,0.496c-0.065,0.041-0.13,0.082-0.195,0.123
					c-0.292,0.18-0.588,0.354-0.888,0.523c-0.059,0.033-0.118,0.064-0.177,0.097c-0.263,0.145-0.529,0.286-0.798,0.422
					c-0.064,0.033-0.128,0.066-0.192,0.098c-0.309,0.153-0.622,0.301-0.937,0.442c-0.067,0.03-0.136,0.059-0.203,0.089
					c-0.278,0.122-0.559,0.239-0.842,0.351c-0.06,0.024-0.12,0.049-0.18,0.072c-0.324,0.126-0.652,0.245-0.982,0.358
					c-0.075,0.026-0.15,0.05-0.226,0.075c-0.294,0.098-0.59,0.191-0.889,0.278c-0.054,0.016-0.107,0.033-0.162,0.048
					c-0.338,0.097-0.679,0.185-1.023,0.269c-0.081,0.02-0.162,0.038-0.243,0.057c-0.313,0.073-0.629,0.141-0.946,0.202
					c-0.043,0.008-0.086,0.018-0.13,0.026c-0.35,0.066-0.704,0.123-1.058,0.175c-0.085,0.012-0.171,0.024-0.257,0.036
					c-0.337,0.046-0.676,0.087-1.018,0.119c-0.026,0.003-0.052,0.006-0.078,0.008c-0.361,0.034-0.725,0.057-1.09,0.076
					c-0.089,0.004-0.179,0.008-0.268,0.012c-0.369,0.015-0.738,0.025-1.11,0.025c-0.144,0-0.288-0.002-0.433-0.004
					c-13.57-0.268-24.761-10.923-25.065-24.425c-0.009-0.395-0.008-0.788,0.003-1.179l0,0v0l-0.165,5.828
					c-0.011,0.391-0.012,0.784-0.003,1.179c0.305,13.502,11.495,24.157,25.065,24.425c0.145,0.003,0.288,0.004,0.433,0.004
					c0.372,0.001,0.742-0.01,1.11-0.025c0.089-0.004,0.179-0.007,0.268-0.012c0.365-0.019,0.729-0.042,1.09-0.076
					c0.026-0.002,0.052-0.006,0.078-0.008c0.341-0.033,0.68-0.074,1.018-0.119c0.086-0.012,0.171-0.023,0.256-0.036
					c0.355-0.052,0.708-0.109,1.058-0.175c0.043-0.008,0.086-0.018,0.129-0.026c0.317-0.061,0.632-0.129,0.946-0.202
					c0.081-0.019,0.163-0.037,0.244-0.057c0.343-0.083,0.684-0.172,1.021-0.268c0.055-0.016,0.109-0.033,0.163-0.049
					c0.298-0.087,0.594-0.18,0.887-0.277c0.076-0.025,0.151-0.05,0.227-0.075c0.33-0.113,0.657-0.232,0.981-0.357
					c0.061-0.024,0.121-0.049,0.182-0.073c0.282-0.112,0.562-0.229,0.839-0.35c0.068-0.03,0.137-0.059,0.205-0.09
					c0.315-0.141,0.627-0.288,0.936-0.442c0.065-0.032,0.129-0.066,0.194-0.099c0.268-0.136,0.533-0.276,0.796-0.421
					c0.06-0.033,0.12-0.065,0.179-0.098c0.3-0.168,0.595-0.342,0.887-0.522c0.066-0.041,0.131-0.082,0.197-0.124
					c0.256-0.161,0.509-0.325,0.759-0.495c0.049-0.033,0.098-0.065,0.146-0.098c0.283-0.194,0.561-0.395,0.835-0.6
					c0.064-0.048,0.128-0.097,0.192-0.146c0.246-0.187,0.488-0.378,0.726-0.574c0.036-0.03,0.073-0.058,0.109-0.088
					c0.264-0.219,0.522-0.445,0.777-0.674c0.061-0.055,0.122-0.111,0.183-0.167c0.236-0.217,0.47-0.438,0.698-0.664
					c0.021-0.021,0.043-0.041,0.064-0.063c0.244-0.243,0.481-0.492,0.714-0.745c0.057-0.062,0.113-0.124,0.17-0.186
					c0.228-0.252,0.452-0.506,0.67-0.767c0.005-0.006,0.011-0.012,0.016-0.019c0.221-0.266,0.435-0.537,0.645-0.812
					c0.052-0.067,0.103-0.135,0.153-0.202c0.204-0.272,0.404-0.546,0.596-0.826c0.002-0.004,0.005-0.007,0.007-0.011
					c0.241-0.35,0.471-0.708,0.693-1.07c0.068-0.111,0.131-0.225,0.197-0.337c0.151-0.255,0.3-0.512,0.442-0.773
					c0.077-0.141,0.15-0.285,0.224-0.428c0.124-0.239,0.245-0.479,0.361-0.722c0.073-0.153,0.144-0.308,0.214-0.463
					c0.109-0.242,0.214-0.486,0.316-0.732c0.038-0.093,0.082-0.184,0.12-0.278c0.028-0.07,0.051-0.142,0.078-0.212
					c0.075-0.195,0.147-0.392,0.218-0.589c0.065-0.182,0.13-0.365,0.191-0.549c0.066-0.199,0.127-0.401,0.188-0.603
					c0.056-0.186,0.113-0.372,0.165-0.56c0.056-0.204,0.108-0.411,0.159-0.617c0.047-0.19,0.094-0.379,0.137-0.571
					c0.047-0.209,0.087-0.42,0.128-0.631c0.027-0.137,0.059-0.271,0.083-0.409c0.009-0.052,0.014-0.106,0.023-0.158
					c0.05-0.293,0.091-0.588,0.13-0.884c0.019-0.144,0.042-0.286,0.059-0.431c0.051-0.442,0.092-0.887,0.119-1.336
					c0.014-0.241,0.025-0.481,0.032-0.721l0.165-5.828C240.312,107.41,240.301,107.651,240.286,107.892z"/>
				<g style="enable-background:new    ;">
					<defs>
						<path id="SVGID_113_" style="enable-background:new    ;" d="M265.037,85.014l-0.165,5.828
							c-1.379,16.244-2.757,32.487-4.128,48.731l0.165-5.828C262.28,117.502,263.659,101.258,265.037,85.014z"/>
					</defs>
					<use xlink:href="#SVGID_113_"  style="overflow:visible;fill:#111111;"/>
					<clipPath id="SVGID_11_">
						<use xlink:href="#SVGID_113_"  style="overflow:visible;"/>
					</clipPath>
					<g style="clip-path:url(#SVGID_11_);enable-background:new    ;">
						<path id="XMLID_67_" style="fill:#111111;" d="M265.037,85.014l-0.165,5.828c-1.379,16.244-2.757,32.488-4.128,48.731
							l0.165-5.828C262.28,117.502,263.659,101.258,265.037,85.014"/>
					</g>
				</g>
				<g style="enable-background:new    ;">
					<defs>
						<path id="SVGID_115_" style="enable-background:new    ;" d="M260.909,133.745l-0.165,5.828
							c-4.32-0.364-8.649-0.688-12.97-0.973l0.165-5.828C252.26,133.057,256.589,133.381,260.909,133.745z"/>
					</defs>
					<use xlink:href="#SVGID_115_"  style="overflow:visible;fill:#111111;"/>
					<clipPath id="SVGID_12_">
						<use xlink:href="#SVGID_115_"  style="overflow:visible;"/>
					</clipPath>
					<g style="clip-path:url(#SVGID_12_);enable-background:new    ;">
						<path id="XMLID_66_" style="fill:#111111;" d="M260.909,133.745l-0.165,5.828c-4.32-0.364-8.649-0.688-12.97-0.973
							l0.165-5.828C252.26,133.057,256.589,133.381,260.909,133.745"/>
					</g>
				</g>
				<g style="enable-background:new    ;">
					<defs>
						<path id="SVGID_117_" style="enable-background:new    ;" d="M304.344,112.959l-0.165,5.828
							c0.164-5.792-4.414-11.031-10.735-11.812c-1.904-0.233-3.816-0.458-5.72-0.683l0.165-5.828c1.904,0.225,3.816,0.45,5.72,0.683
							C299.929,101.928,304.507,107.167,304.344,112.959z"/>
					</defs>
					<use xlink:href="#SVGID_117_"  style="overflow:visible;fill:#111111;"/>
					<clipPath id="SVGID_13_">
						<use xlink:href="#SVGID_117_"  style="overflow:visible;"/>
					</clipPath>
					<g style="clip-path:url(#SVGID_13_);enable-background:new    ;">
						<path id="XMLID_65_" style="fill:#111111;" d="M304.344,112.959l-0.165,5.828c0.164-5.792-4.414-11.031-10.735-11.812
							c-1.904-0.233-3.816-0.458-5.72-0.683l0.165-5.828c1.904,0.225,3.816,0.45,5.72,0.683
							C299.929,101.928,304.507,107.167,304.344,112.959"/>
					</g>
				</g>
				<g style="enable-background:new    ;">
					<defs>
						<path id="SVGID_119_" style="enable-background:new    ;" d="M287.889,100.464l-0.165,5.828
							c-0.905,7.661-1.802,15.331-2.699,22.992l0.165-5.828C286.087,115.795,286.984,108.125,287.889,100.464z"/>
					</defs>
					<use xlink:href="#SVGID_119_"  style="overflow:visible;fill:#111111;"/>
					<clipPath id="SVGID_14_">
						<use xlink:href="#SVGID_119_"  style="overflow:visible;"/>
					</clipPath>
					<g style="clip-path:url(#SVGID_14_);enable-background:new    ;">
						<path id="XMLID_64_" style="fill:#111111;" d="M287.889,100.464l-0.165,5.828c-0.905,7.661-1.802,15.331-2.699,22.992
							l0.165-5.828C286.087,115.795,286.984,108.125,287.889,100.464"/>
					</g>
				</g>
				<path id="XMLID_63_" style="fill:#111111;" d="M317.685,114.833l0.055-1.948c-0.029,1.025-0.129,2.058-0.303,3.094
					c-0.013,0.077-0.026,0.153-0.04,0.229c-0.295,1.664-0.754,3.26-1.357,4.776c-0.679,1.705-1.541,3.307-2.56,4.788
					c-4.68,6.81-12.654,11.081-21.277,11.083c-1.029-0.003-2.066-0.066-3.108-0.194c-6.08-0.747-12.169-1.424-18.257-2.02l0,0.01
					c-0.032-0.003-0.063-0.007-0.095-0.01l-0.165,5.828c6.089,0.597,12.177,1.273,18.258,2.02c1.058,0.13,2.111,0.194,3.154,0.196
					c0.017,0,0.033-0.001,0.05-0.001c0.015,0,0.031,0.001,0.046,0.001c12.264,0.02,23.226-8.6,25.283-20.878
					c0.174-1.036,0.274-2.07,0.303-3.094l0.165-5.828C317.817,113.531,317.76,114.181,317.685,114.833z"/>
				<g style="enable-background:new    ;">
					<defs>
						<path id="SVGID_121_" style="enable-background:new    ;" d="M130.083,173.161l-0.165,5.828
							c-0.551-7.68-1.095-15.351-1.646-23.023l0.165-5.828C128.988,157.81,129.532,165.482,130.083,173.161z"/>
					</defs>
					<use xlink:href="#SVGID_121_"  style="overflow:visible;fill:#111111;"/>
					<clipPath id="SVGID_15_">
						<use xlink:href="#SVGID_121_"  style="overflow:visible;"/>
					</clipPath>
					<g style="clip-path:url(#SVGID_15_);enable-background:new    ;">
						<path id="XMLID_62_" style="fill:#111111;" d="M130.083,173.161l-0.165,5.828c-0.551-7.68-1.095-15.351-1.646-23.023
							l0.165-5.828C128.988,157.81,129.532,165.482,130.083,173.161"/>
					</g>
				</g>
				<g style="enable-background:new    ;">
					<defs>
						<path id="SVGID_123_" style="enable-background:new    ;" d="M89.241,153.606l-0.165,5.828
							c-7.043,8.254-13.91,16.573-20.601,24.963l0.165-5.828C75.331,170.178,82.198,161.86,89.241,153.606z"/>
					</defs>
					<use xlink:href="#SVGID_123_"  style="overflow:visible;fill:#111111;"/>
					<clipPath id="SVGID_16_">
						<use xlink:href="#SVGID_123_"  style="overflow:visible;"/>
					</clipPath>
					<g style="clip-path:url(#SVGID_16_);enable-background:new    ;">
						<path id="XMLID_61_" style="fill:#111111;" d="M89.241,153.606l-0.165,5.828c-7.043,8.254-13.91,16.573-20.601,24.963
							l0.165-5.828C75.331,170.178,82.198,161.86,89.241,153.606"/>
					</g>
				</g>
				<g style="enable-background:new    ;">
					<defs>
						<path id="SVGID_125_" style="enable-background:new    ;" d="M60.579,188.931l-0.165,5.828
							c-0.89,1.181-1.787,2.361-2.677,3.542l0.165-5.828C58.792,191.292,59.69,190.112,60.579,188.931z"/>
					</defs>
					<use xlink:href="#SVGID_125_"  style="overflow:visible;fill:#111111;"/>
					<clipPath id="SVGID_17_">
						<use xlink:href="#SVGID_125_"  style="overflow:visible;"/>
					</clipPath>
					<g style="clip-path:url(#SVGID_17_);enable-background:new    ;">
						<path id="XMLID_60_" style="fill:#111111;" d="M60.579,188.931l-0.165,5.828c-0.89,1.181-1.787,2.361-2.677,3.542l0.165-5.828
							C58.792,191.292,59.69,190.112,60.579,188.931"/>
					</g>
				</g>
				<g style="enable-background:new    ;">
					<defs>
						<path id="SVGID_127_" style="enable-background:new    ;" d="M139.568,198.41l-0.165,5.828
							c-8.265-7.216-16.707-14.329-25.325-21.34l0.165-5.828C122.861,184.081,131.303,191.194,139.568,198.41z"/>
					</defs>
					<use xlink:href="#SVGID_127_"  style="overflow:visible;fill:#111111;"/>
					<clipPath id="SVGID_18_">
						<use xlink:href="#SVGID_127_"  style="overflow:visible;"/>
					</clipPath>
					<g style="clip-path:url(#SVGID_18_);enable-background:new    ;">
						<path id="XMLID_59_" style="fill:#111111;" d="M139.568,198.41l-0.165,5.828c-8.265-7.216-16.707-14.329-25.325-21.34
							l0.165-5.828C122.861,184.081,131.303,191.194,139.568,198.41"/>
					</g>
				</g>
				<g style="enable-background:new    ;">
					<defs>
						<path id="SVGID_129_" style="enable-background:new    ;" d="M144.906,198.094l-0.165,5.828
							c-1.776,0.1-3.561,0.208-5.337,0.317l0.165-5.828C141.345,198.302,143.129,198.194,144.906,198.094z"/>
					</defs>
					<use xlink:href="#SVGID_129_"  style="overflow:visible;fill:#111111;"/>
					<clipPath id="SVGID_19_">
						<use xlink:href="#SVGID_129_"  style="overflow:visible;"/>
					</clipPath>
					<g style="clip-path:url(#SVGID_19_);enable-background:new    ;">
						<path id="XMLID_58_" style="fill:#111111;" d="M144.906,198.094l-0.165,5.828c-1.776,0.1-3.561,0.208-5.337,0.317l0.165-5.828
							C141.345,198.302,143.129,198.194,144.906,198.094"/>
					</g>
				</g>
				<g style="enable-background:new    ;">
					<defs>
						<path id="SVGID_131_" style="enable-background:new    ;" d="M103.31,201.327l-0.165,5.828
							c-1.63-16.225-3.268-32.442-4.898-48.666l0.165-5.828C100.042,168.885,101.68,185.102,103.31,201.327z"/>
					</defs>
					<use xlink:href="#SVGID_131_"  style="overflow:visible;fill:#111111;"/>
					<clipPath id="SVGID_20_">
						<use xlink:href="#SVGID_131_"  style="overflow:visible;"/>
					</clipPath>
					<g style="clip-path:url(#SVGID_20_);enable-background:new    ;">
						<path id="XMLID_57_" style="fill:#111111;" d="M103.31,201.327l-0.165,5.828c-1.63-16.225-3.268-32.442-4.898-48.666
							l0.165-5.828C100.042,168.885,101.68,185.102,103.31,201.327"/>
					</g>
				</g>
				<g style="enable-background:new    ;">
					<defs>
						<path id="SVGID_133_" style="enable-background:new    ;" d="M116.266,200.134l-0.165,5.828
							c-4.321,0.366-8.643,0.764-12.956,1.193l0.165-5.828C107.623,200.897,111.944,200.5,116.266,200.134z"/>
					</defs>
					<use xlink:href="#SVGID_133_"  style="overflow:visible;fill:#111111;"/>
					<clipPath id="SVGID_21_">
						<use xlink:href="#SVGID_133_"  style="overflow:visible;"/>
					</clipPath>
					<g style="clip-path:url(#SVGID_21_);enable-background:new    ;">
						<path id="XMLID_56_" style="fill:#111111;" d="M116.266,200.134l-0.165,5.828c-4.321,0.366-8.643,0.764-12.956,1.193
							l0.165-5.828C107.623,200.897,111.944,200.5,116.266,200.134"/>
					</g>
				</g>
				<g style="enable-background:new    ;">
					<defs>
						<path id="SVGID_135_" style="enable-background:new    ;" d="M98.772,201.78l-0.165,5.828
							c-6.082,0.625-12.172,1.313-18.246,2.049l0.165-5.828C86.6,203.093,92.69,202.404,98.772,201.78z"/>
					</defs>
					<use xlink:href="#SVGID_135_"  style="overflow:visible;fill:#111111;"/>
					<clipPath id="SVGID_22_">
						<use xlink:href="#SVGID_135_"  style="overflow:visible;"/>
					</clipPath>
					<g style="clip-path:url(#SVGID_22_);enable-background:new    ;">
						<path id="XMLID_55_" style="fill:#111111;" d="M98.772,201.78l-0.165,5.828c-6.082,0.625-12.172,1.313-18.246,2.049
							l0.165-5.828C86.6,203.093,92.69,202.404,98.772,201.78"/>
					</g>
				</g>
				<g style="enable-background:new    ;">
					<defs>
						<path id="SVGID_137_" style="enable-background:new    ;" d="M80.526,203.829l-0.165,5.828
							c-6.556-5.032-13.199-10-19.947-14.898l0.165-5.828C67.327,193.828,73.971,198.797,80.526,203.829z"/>
					</defs>
					<use xlink:href="#SVGID_137_"  style="overflow:visible;fill:#111111;"/>
					<clipPath id="SVGID_23_">
						<use xlink:href="#SVGID_137_"  style="overflow:visible;"/>
					</clipPath>
					<g style="clip-path:url(#SVGID_23_);enable-background:new    ;">
						<path id="XMLID_54_" style="fill:#111111;" d="M80.526,203.829l-0.165,5.828c-6.556-5.032-13.199-10-19.947-14.898
							l0.165-5.828C67.327,193.828,73.971,198.797,80.526,203.829"/>
					</g>
				</g>
				<g style="enable-background:new    ;">
					<defs>
						<path id="SVGID_139_" style="enable-background:new    ;" d="M47.058,208.455l-0.165,5.828
							c-2.558-16.099-5.108-32.207-7.667-48.306l0.165-5.828C41.95,176.249,44.5,192.356,47.058,208.455z"/>
					</defs>
					<use xlink:href="#SVGID_139_"  style="overflow:visible;fill:#111111;"/>
					<clipPath id="SVGID_24_">
						<use xlink:href="#SVGID_139_"  style="overflow:visible;"/>
					</clipPath>
					<g style="clip-path:url(#SVGID_24_);enable-background:new    ;">
						<path id="XMLID_53_" style="fill:#111111;" d="M47.058,208.455l-0.165,5.828c-2.558-16.099-5.108-32.207-7.667-48.306
							l0.165-5.828C41.95,176.249,44.5,192.356,47.058,208.455"/>
					</g>
				</g>
				<g style="enable-background:new    ;">
					<defs>
						<path id="SVGID_141_" style="enable-background:new    ;" d="M59.943,206.54l-0.165,5.828
							c-4.298,0.612-8.595,1.247-12.885,1.915l0.165-5.828C51.348,207.788,55.645,207.152,59.943,206.54z"/>
					</defs>
					<use xlink:href="#SVGID_141_"  style="overflow:visible;fill:#111111;"/>
					<clipPath id="SVGID_25_">
						<use xlink:href="#SVGID_141_"  style="overflow:visible;"/>
					</clipPath>
					<g style="clip-path:url(#SVGID_25_);enable-background:new    ;">
						<path id="XMLID_52_" style="fill:#111111;" d="M59.943,206.54l-0.165,5.828c-4.298,0.612-8.595,1.247-12.885,1.915
							l0.165-5.828C51.348,207.788,55.645,207.152,59.943,206.54"/>
					</g>
				</g>
				<g style="enable-background:new    ;">
					<defs>
						<path id="SVGID_143_" style="enable-background:new    ;" d="M167.776,197.043l-0.165,5.828
							c-4.329,0.152-8.658,0.327-12.987,0.534l0.165-5.828C159.117,197.371,163.447,197.195,167.776,197.043z"/>
					</defs>
					<use xlink:href="#SVGID_143_"  style="overflow:visible;fill:#111111;"/>
					<clipPath id="SVGID_26_">
						<use xlink:href="#SVGID_143_"  style="overflow:visible;"/>
					</clipPath>
					<g style="clip-path:url(#SVGID_26_);enable-background:new    ;">
						<path id="XMLID_51_" style="fill:#111111;" d="M167.776,197.043l-0.165,5.828c-4.329,0.152-8.658,0.327-12.987,0.534
							l0.165-5.828C159.117,197.371,163.447,197.195,167.776,197.043"/>
					</g>
				</g>
				<g style="enable-background:new    ;">
					<defs>
						<path id="SVGID_145_" style="enable-background:new    ;" d="M154.788,197.578l-0.165,5.828
							c-0.79-16.287-1.579-32.566-2.369-48.845l0.165-5.828C153.209,165.012,153.999,181.291,154.788,197.578z"/>
					</defs>
					<use xlink:href="#SVGID_145_"  style="overflow:visible;fill:#111111;"/>
					<clipPath id="SVGID_27_">
						<use xlink:href="#SVGID_145_"  style="overflow:visible;"/>
					</clipPath>
					<g style="clip-path:url(#SVGID_27_);enable-background:new    ;">
						<path id="XMLID_50_" style="fill:#111111;" d="M154.788,197.578l-0.165,5.828c-0.79-16.287-1.579-32.566-2.369-48.845
							l0.165-5.828C153.209,165.012,153.999,181.291,154.788,197.578"/>
					</g>
				</g>
				<g style="enable-background:new    ;">
					<defs>
						<path id="SVGID_147_" style="enable-background:new    ;" d="M219.77,154.798l-0.165,5.828
							c-3.236,2.946-6.44,5.907-9.62,8.885l0.165-5.828C213.33,160.706,216.534,157.744,219.77,154.798z"/>
					</defs>
					<use xlink:href="#SVGID_147_"  style="overflow:visible;fill:#111111;"/>
					<clipPath id="SVGID_28_">
						<use xlink:href="#SVGID_147_"  style="overflow:visible;"/>
					</clipPath>
					<g style="clip-path:url(#SVGID_28_);enable-background:new    ;">
						<path id="XMLID_49_" style="fill:#111111;" d="M219.77,154.798l-0.165,5.828c-3.236,2.946-6.44,5.907-9.62,8.885l0.165-5.828
							C213.33,160.706,216.534,157.744,219.77,154.798"/>
					</g>
				</g>
				<path id="XMLID_48_" style="fill:#111111;" d="M201.664,160.394c-0.232,0-0.462,0.009-0.692,0.021
					c-0.07,0.004-0.139,0.01-0.208,0.015c-0.165,0.012-0.329,0.027-0.492,0.045c-0.073,0.008-0.145,0.016-0.218,0.026
					c-0.184,0.024-0.366,0.052-0.548,0.084c-0.042,0.007-0.085,0.013-0.127,0.021c-0.221,0.041-0.441,0.089-0.658,0.141
					c-0.058,0.014-0.114,0.03-0.172,0.045c-0.162,0.042-0.323,0.086-0.483,0.134c-0.07,0.021-0.14,0.043-0.209,0.065
					c-0.158,0.051-0.314,0.104-0.47,0.161c-0.056,0.02-0.112,0.039-0.167,0.06c-0.206,0.079-0.41,0.162-0.611,0.251
					c-0.037,0.017-0.074,0.035-0.111,0.052c-0.164,0.075-0.327,0.153-0.487,0.235c-0.063,0.032-0.125,0.065-0.187,0.098
					c-0.139,0.074-0.277,0.151-0.413,0.23c-0.058,0.034-0.116,0.067-0.173,0.101c-0.183,0.11-0.363,0.224-0.539,0.344
					c-0.004,0.003-0.009,0.006-0.013,0.009c-0.18,0.123-0.355,0.251-0.528,0.383c-0.053,0.04-0.104,0.082-0.156,0.123
					c-0.122,0.097-0.243,0.196-0.361,0.297c-0.054,0.046-0.108,0.092-0.161,0.139c-0.13,0.115-0.256,0.233-0.381,0.354
					c-0.032,0.031-0.065,0.061-0.097,0.093c-0.153,0.152-0.301,0.308-0.446,0.469c-0.038,0.042-0.074,0.086-0.111,0.129
					c-0.107,0.122-0.212,0.247-0.313,0.373c-0.045,0.056-0.088,0.111-0.132,0.168c-0.098,0.127-0.193,0.256-0.285,0.388
					c-0.025,0.035-0.052,0.069-0.077,0.104c-0.01,0.015-0.02,0.031-0.03,0.046c-0.075,0.11-0.147,0.223-0.218,0.336
					c-0.033,0.053-0.068,0.104-0.101,0.158c-0.102,0.168-0.2,0.338-0.293,0.511c-0.008,0.016-0.016,0.032-0.024,0.048
					c-0.084,0.158-0.164,0.318-0.241,0.481c-0.029,0.061-0.054,0.123-0.082,0.185c-0.053,0.119-0.106,0.239-0.156,0.361
					c-0.008,0.019-0.017,0.038-0.025,0.058c-0.027,0.069-0.051,0.139-0.077,0.208c-0.032,0.084-0.064,0.168-0.094,0.254
					c-0.032,0.092-0.061,0.185-0.09,0.278c-0.028,0.086-0.056,0.173-0.081,0.26c-0.027,0.094-0.052,0.19-0.077,0.285
					c-0.023,0.088-0.047,0.176-0.068,0.266c-0.023,0.096-0.042,0.193-0.062,0.29c-0.019,0.091-0.039,0.181-0.056,0.273
					c-0.003,0.017-0.007,0.034-0.01,0.051c-0.006,0.036-0.009,0.073-0.015,0.11c-0.033,0.196-0.06,0.395-0.083,0.596
					c-0.008,0.068-0.015,0.137-0.022,0.205c-0.023,0.248-0.042,0.498-0.049,0.752l-0.165,5.828c0.007-0.254,0.026-0.504,0.049-0.752
					c0.006-0.069,0.014-0.137,0.022-0.205c0.023-0.2,0.05-0.399,0.083-0.596c0.009-0.053,0.016-0.108,0.026-0.161
					c0.017-0.092,0.037-0.182,0.056-0.273c0.02-0.097,0.039-0.194,0.062-0.29c0.021-0.089,0.045-0.177,0.069-0.266
					c0.025-0.095,0.049-0.191,0.077-0.285c0.025-0.088,0.054-0.174,0.081-0.26c0.03-0.093,0.058-0.186,0.09-0.278
					c0.03-0.086,0.062-0.17,0.094-0.254c0.033-0.089,0.066-0.178,0.102-0.265c0.049-0.122,0.103-0.242,0.156-0.361
					c0.027-0.061,0.053-0.124,0.082-0.185c0.077-0.164,0.158-0.325,0.242-0.484c0.008-0.015,0.015-0.03,0.023-0.045
					c0.093-0.173,0.191-0.344,0.293-0.512c0.032-0.053,0.067-0.105,0.1-0.158c0.071-0.113,0.143-0.226,0.218-0.337
					c0.034-0.05,0.071-0.099,0.106-0.149c0.093-0.132,0.188-0.261,0.286-0.389c0.043-0.056,0.087-0.112,0.131-0.167
					c0.102-0.127,0.207-0.252,0.314-0.375c0.037-0.042,0.073-0.086,0.111-0.127c0.144-0.16,0.293-0.317,0.446-0.469
					c0.031-0.031,0.064-0.061,0.096-0.091c0.125-0.121,0.252-0.24,0.382-0.355c0.053-0.047,0.106-0.092,0.159-0.138
					c0.119-0.102,0.24-0.201,0.363-0.298c0.051-0.041,0.102-0.082,0.154-0.122c0.173-0.132,0.348-0.261,0.528-0.383
					c0.004-0.003,0.009-0.006,0.013-0.009c0.176-0.12,0.357-0.234,0.539-0.344c0.057-0.034,0.115-0.067,0.172-0.1
					c0.137-0.08,0.275-0.157,0.415-0.231c0.062-0.033,0.124-0.066,0.186-0.098c0.161-0.082,0.325-0.161,0.49-0.236
					c0.036-0.016,0.072-0.034,0.108-0.051c0.201-0.089,0.405-0.172,0.612-0.251c0.055-0.021,0.111-0.04,0.167-0.06
					c0.156-0.057,0.312-0.111,0.471-0.161c0.069-0.022,0.138-0.044,0.208-0.064c0.16-0.048,0.322-0.093,0.484-0.134
					c0.057-0.015,0.114-0.031,0.171-0.045c0.217-0.053,0.437-0.1,0.658-0.141c0.042-0.008,0.085-0.013,0.127-0.021
					c0.181-0.032,0.364-0.06,0.548-0.084c0.072-0.009,0.145-0.017,0.218-0.026c0.163-0.018,0.327-0.033,0.492-0.045
					c0.069-0.005,0.139-0.011,0.208-0.015c0.23-0.013,0.46-0.021,0.692-0.022c3.474,0.006,6.327,1.317,8.487,3.29l0.165-5.828
					C207.99,161.711,205.138,160.399,201.664,160.394z"/>
				<g style="enable-background:new    ;">
					<defs>
						<path id="SVGID_149_" style="enable-background:new    ;" d="M211.389,178.821l-0.165,5.828
							c-2.43-0.022-4.865-0.035-7.298-0.038c-0.811-0.001-1.622-0.002-2.432-0.001l0.165-5.828c0.81-0.001,1.621,0,2.432,0.001
							C206.524,178.786,208.959,178.799,211.389,178.821z"/>
					</defs>
					<use xlink:href="#SVGID_149_"  style="overflow:visible;fill:#111111;"/>
					<clipPath id="SVGID_29_">
						<use xlink:href="#SVGID_149_"  style="overflow:visible;"/>
					</clipPath>
					<g style="clip-path:url(#SVGID_29_);enable-background:new    ;">
						<path id="XMLID_47_" style="fill:#111111;" d="M211.389,178.821l-0.165,5.828c-2.43-0.022-4.865-0.035-7.298-0.038
							c-0.811-0.001-1.622-0.002-2.432-0.001l0.165-5.828c0.81-0.001,1.621,0,2.432,0.001
							C206.524,178.786,208.959,178.799,211.389,178.821"/>
					</g>
				</g>
				<g style="enable-background:new    ;">
					<defs>
						<path id="SVGID_151_" style="enable-background:new    ;" d="M201.659,178.781l-0.165,5.828
							c-0.005-2.872-0.009-5.735-0.014-8.607l0.165-5.828C201.65,173.046,201.654,175.91,201.659,178.781z"/>
					</defs>
					<use xlink:href="#SVGID_151_"  style="overflow:visible;fill:#111111;"/>
					<clipPath id="SVGID_30_">
						<use xlink:href="#SVGID_151_"  style="overflow:visible;"/>
					</clipPath>
					<g style="clip-path:url(#SVGID_30_);enable-background:new    ;">
						<path id="XMLID_46_" style="fill:#111111;" d="M201.659,178.781l-0.165,5.828c-0.005-2.872-0.009-5.735-0.014-8.607
							l0.165-5.828C201.65,173.046,201.654,175.91,201.659,178.781"/>
					</g>
				</g>
				<path id="XMLID_45_" style="fill:#111111;" d="M226.74,179.556c0.009-0.106,0.019-0.211,0.027-0.317
					c0.027-0.373,0.05-0.748,0.06-1.125l0.165-5.828c-0.01,0.377-0.033,0.752-0.06,1.124c-0.008,0.107-0.017,0.213-0.027,0.319
					c-0.025,0.289-0.055,0.577-0.09,0.864c-0.011,0.091-0.021,0.182-0.033,0.272c-0.048,0.359-0.104,0.717-0.168,1.071
					c-0.04,0.225-0.09,0.446-0.136,0.669c-0.038,0.181-0.071,0.363-0.113,0.542c-0.053,0.226-0.114,0.449-0.173,0.673
					c-0.045,0.172-0.086,0.345-0.135,0.516c-0.066,0.23-0.142,0.457-0.214,0.684c-0.051,0.16-0.098,0.321-0.152,0.479
					c-0.083,0.242-0.175,0.48-0.266,0.719c-0.053,0.139-0.101,0.281-0.156,0.419c-0.161,0.402-0.332,0.797-0.513,1.188
					c-0.055,0.118-0.114,0.233-0.171,0.35c-0.131,0.271-0.264,0.541-0.404,0.807c-0.076,0.143-0.156,0.284-0.234,0.425
					c-0.13,0.235-0.263,0.469-0.401,0.7c-0.088,0.147-0.178,0.292-0.269,0.437c-0.139,0.221-0.281,0.441-0.426,0.658
					c-0.123,0.183-0.245,0.366-0.373,0.546c-0.043,0.06-0.085,0.121-0.129,0.181c-0.202,0.279-0.409,0.554-0.622,0.824
					c-0.041,0.052-0.082,0.102-0.123,0.153c-0.194,0.242-0.392,0.48-0.594,0.714c-0.039,0.045-0.077,0.091-0.116,0.135
					c-0.227,0.259-0.46,0.513-0.698,0.762c-0.053,0.055-0.106,0.11-0.16,0.165c-0.229,0.236-0.461,0.469-0.7,0.696
					c-0.02,0.019-0.039,0.038-0.058,0.057c-0.253,0.24-0.512,0.473-0.775,0.702c-0.061,0.053-0.122,0.106-0.183,0.158
					c-0.265,0.227-0.533,0.449-0.807,0.665c-0.024,0.019-0.049,0.037-0.073,0.056c-0.258,0.201-0.52,0.397-0.785,0.588
					c-0.063,0.045-0.125,0.091-0.188,0.135c-0.282,0.2-0.568,0.395-0.859,0.583c-0.051,0.033-0.103,0.065-0.154,0.098
					c-0.262,0.168-0.528,0.33-0.797,0.488c-0.057,0.033-0.113,0.068-0.17,0.1c-0.3,0.173-0.605,0.341-0.912,0.502
					c-0.067,0.035-0.135,0.069-0.202,0.104c-0.288,0.148-0.579,0.291-0.873,0.429c-0.036,0.017-0.071,0.035-0.107,0.051
					c-0.32,0.147-0.643,0.287-0.97,0.421c-0.075,0.031-0.151,0.062-0.227,0.092c-0.331,0.133-0.664,0.261-1.002,0.38
					c-0.016,0.006-0.033,0.011-0.049,0.016c-0.325,0.114-0.654,0.22-0.985,0.321c-0.077,0.024-0.155,0.048-0.233,0.071
					c-0.34,0.1-0.683,0.195-1.029,0.282c-0.055,0.014-0.11,0.026-0.165,0.039c-0.313,0.076-0.627,0.146-0.944,0.211
					c-0.07,0.014-0.14,0.03-0.211,0.043c-0.351,0.068-0.705,0.129-1.06,0.183c-0.075,0.011-0.15,0.021-0.226,0.032
					c-0.327,0.047-0.655,0.088-0.986,0.122c-0.05,0.005-0.099,0.012-0.148,0.016c-0.364,0.035-0.73,0.062-1.098,0.082
					c-0.084,0.005-0.168,0.008-0.252,0.012c-0.375,0.017-0.752,0.029-1.131,0.029c-13.629-0.022-24.898-10.642-25.314-24.116
					c-0.014-0.46-0.014-0.917-0.001-1.371l-0.165,5.828c-0.013,0.454-0.012,0.911,0.001,1.371
					c0.416,13.474,11.685,24.094,25.314,24.116c0.379,0,0.756-0.012,1.131-0.029c0.084-0.004,0.168-0.008,0.252-0.012
					c0.368-0.02,0.734-0.046,1.098-0.082c0.05-0.005,0.099-0.011,0.148-0.016c0.331-0.034,0.659-0.075,0.986-0.122
					c0.075-0.011,0.151-0.021,0.226-0.032c0.356-0.054,0.709-0.115,1.06-0.183c0.071-0.014,0.141-0.029,0.211-0.043
					c0.317-0.065,0.632-0.135,0.944-0.211c0.055-0.013,0.11-0.025,0.165-0.039c0.346-0.087,0.688-0.181,1.029-0.282
					c0.078-0.023,0.155-0.047,0.233-0.07c0.331-0.101,0.66-0.207,0.985-0.321c0.016-0.006,0.033-0.011,0.049-0.016
					c0.338-0.119,0.671-0.247,1.002-0.38c0.076-0.03,0.151-0.061,0.227-0.092c0.326-0.134,0.65-0.274,0.97-0.421
					c0.036-0.017,0.071-0.034,0.107-0.051c0.294-0.137,0.585-0.281,0.873-0.429c0.067-0.035,0.135-0.069,0.202-0.104
					c0.308-0.162,0.612-0.329,0.913-0.502c0.057-0.033,0.113-0.067,0.17-0.1c0.269-0.158,0.534-0.321,0.797-0.488
					c0.051-0.033,0.103-0.065,0.154-0.098c0.291-0.189,0.577-0.383,0.859-0.583c0.063-0.044,0.125-0.09,0.187-0.135
					c0.266-0.192,0.529-0.388,0.787-0.589c0.024-0.018,0.048-0.036,0.071-0.055c0.274-0.216,0.542-0.439,0.807-0.665
					c0.061-0.052,0.122-0.105,0.183-0.158c0.263-0.229,0.522-0.462,0.775-0.702c0.02-0.019,0.039-0.038,0.058-0.057
					c0.238-0.227,0.471-0.46,0.699-0.696c0.053-0.055,0.107-0.11,0.16-0.165c0.238-0.25,0.471-0.503,0.698-0.763
					c0.039-0.044,0.076-0.089,0.115-0.134c0.203-0.235,0.401-0.473,0.595-0.715c0.041-0.051,0.083-0.102,0.123-0.153
					c0.213-0.27,0.42-0.545,0.622-0.824c0.043-0.06,0.086-0.121,0.129-0.181c0.072-0.101,0.146-0.202,0.216-0.304
					c0.054-0.079,0.103-0.162,0.157-0.242c0.145-0.217,0.287-0.436,0.426-0.657c0.091-0.145,0.181-0.291,0.269-0.438
					c0.137-0.23,0.269-0.463,0.399-0.698c0.079-0.142,0.159-0.284,0.235-0.428c0.14-0.264,0.272-0.533,0.402-0.803
					c0.057-0.118,0.118-0.234,0.173-0.354c0.181-0.391,0.352-0.786,0.513-1.187c0.002-0.005,0.005-0.01,0.007-0.015
					c0.055-0.137,0.101-0.277,0.154-0.416c0.089-0.235,0.18-0.469,0.261-0.707c0.055-0.16,0.102-0.323,0.153-0.485
					c0.072-0.226,0.147-0.45,0.212-0.679c0.05-0.173,0.091-0.348,0.137-0.523c0.058-0.221,0.12-0.442,0.172-0.666
					c0.042-0.18,0.076-0.363,0.114-0.545c0.046-0.222,0.095-0.442,0.136-0.666c0.004-0.021,0.009-0.042,0.013-0.064
					c0.059-0.333,0.109-0.67,0.155-1.008c0.012-0.09,0.021-0.18,0.033-0.27C226.685,180.136,226.715,179.847,226.74,179.556z"/>
				<g style="enable-background:new    ;">
					<defs>
						<path id="SVGID_153_" style="enable-background:new    ;" d="M248.663,148.546l-0.165,5.828
							c-0.255,5.798-0.501,11.597-0.756,17.395l0.165-5.828C248.162,160.143,248.408,154.345,248.663,148.546z"/>
					</defs>
					<use xlink:href="#SVGID_153_"  style="overflow:visible;fill:#111111;"/>
					<clipPath id="SVGID_31_">
						<use xlink:href="#SVGID_153_"  style="overflow:visible;"/>
					</clipPath>
					<g style="clip-path:url(#SVGID_31_);enable-background:new    ;">
						<path id="XMLID_44_" style="fill:#111111;" d="M248.663,148.546l-0.165,5.828c-0.255,5.798-0.501,11.597-0.756,17.395
							l0.165-5.828C248.162,160.143,248.408,154.345,248.663,148.546"/>
					</g>
				</g>
				<g style="enable-background:new    ;">
					<defs>
						<path id="SVGID_155_" style="enable-background:new    ;" d="M263.327,179.594l-0.165,5.828
							c-5.329-0.318-10.657-0.588-15.986-0.819l0.165-5.828C252.669,179.006,257.998,179.276,263.327,179.594z"/>
					</defs>
					<use xlink:href="#SVGID_155_"  style="overflow:visible;fill:#111111;"/>
					<clipPath id="SVGID_32_">
						<use xlink:href="#SVGID_155_"  style="overflow:visible;"/>
					</clipPath>
					<g style="clip-path:url(#SVGID_32_);enable-background:new    ;">
						<path id="XMLID_43_" style="fill:#111111;" d="M263.327,179.594l-0.165,5.828c-5.329-0.318-10.657-0.588-15.986-0.819
							l0.165-5.828C252.669,179.006,257.998,179.276,263.327,179.594"/>
					</g>
				</g>
				<g style="enable-background:new    ;">
					<defs>
						<path id="SVGID_157_" style="enable-background:new    ;" d="M247.34,178.775l-0.165,5.828
							c-0.271,6.211-0.542,12.422-0.813,18.624l0.165-5.828C246.798,191.197,247.069,184.986,247.34,178.775z"/>
					</defs>
					<use xlink:href="#SVGID_157_"  style="overflow:visible;fill:#111111;"/>
					<clipPath id="SVGID_33_">
						<use xlink:href="#SVGID_157_"  style="overflow:visible;"/>
					</clipPath>
					<g style="clip-path:url(#SVGID_33_);enable-background:new    ;">
						<path id="XMLID_42_" style="fill:#111111;" d="M247.34,178.775l-0.165,5.828c-0.271,6.211-0.542,12.422-0.813,18.624
							l0.165-5.828C246.798,191.197,247.069,184.986,247.34,178.775"/>
					</g>
				</g>
				<g style="enable-background:new    ;">
					<defs>
						<path id="SVGID_159_" style="enable-background:new    ;" d="M246.527,197.4l-0.165,5.828
							c-4.329-0.181-8.657-0.347-12.986-0.481l0.165-5.828C237.87,197.053,242.198,197.218,246.527,197.4z"/>
					</defs>
					<use xlink:href="#SVGID_159_"  style="overflow:visible;fill:#111111;"/>
					<clipPath id="SVGID_34_">
						<use xlink:href="#SVGID_159_"  style="overflow:visible;"/>
					</clipPath>
					<g style="clip-path:url(#SVGID_34_);enable-background:new    ;">
						<path id="XMLID_41_" style="fill:#111111;" d="M246.527,197.4l-0.165,5.828c-4.329-0.181-8.657-0.347-12.986-0.481
							l0.165-5.828C237.87,197.053,242.198,197.218,246.527,197.4"/>
					</g>
				</g>
				<g style="enable-background:new    ;">
					<defs>
						<path id="SVGID_161_" style="enable-background:new    ;" d="M278.731,150.284l-0.165,5.828
							c-1.179,16.26-2.357,32.512-3.544,48.772l0.165-5.828C276.374,182.796,277.552,166.544,278.731,150.284z"/>
					</defs>
					<use xlink:href="#SVGID_161_"  style="overflow:visible;fill:#111111;"/>
					<clipPath id="SVGID_35_">
						<use xlink:href="#SVGID_161_"  style="overflow:visible;"/>
					</clipPath>
					<g style="clip-path:url(#SVGID_35_);enable-background:new    ;">
						<path id="XMLID_40_" style="fill:#111111;" d="M278.731,150.284l-0.165,5.828c-1.179,16.26-2.357,32.512-3.544,48.772
							l0.165-5.828C276.374,182.796,277.552,166.544,278.731,150.284"/>
					</g>
				</g>
				<g style="enable-background:new    ;">
					<defs>
						<path id="SVGID_163_" style="enable-background:new    ;" d="M275.187,199.056l-0.165,5.828
							c-4.321-0.308-8.649-0.593-12.97-0.846l0.165-5.828C266.538,198.463,270.867,198.748,275.187,199.056z"/>
					</defs>
					<use xlink:href="#SVGID_163_"  style="overflow:visible;fill:#111111;"/>
					<clipPath id="SVGID_36_">
						<use xlink:href="#SVGID_163_"  style="overflow:visible;"/>
					</clipPath>
					<g style="clip-path:url(#SVGID_36_);enable-background:new    ;">
						<path id="XMLID_39_" style="fill:#111111;" d="M275.187,199.056l-0.165,5.828c-4.321-0.308-8.649-0.593-12.97-0.846
							l0.165-5.828C266.538,198.463,270.867,198.748,275.187,199.056"/>
					</g>
				</g>
				<g style="enable-background:new    ;">
					<defs>
						<path id="SVGID_165_" style="enable-background:new    ;" d="M300.311,164.827l-0.165,5.828
							c-4.424-0.42-8.857-0.8-13.289-1.164l0.165-5.828C291.454,164.028,295.887,164.408,300.311,164.827z"/>
					</defs>
					<use xlink:href="#SVGID_165_"  style="overflow:visible;fill:#111111;"/>
					<clipPath id="SVGID_37_">
						<use xlink:href="#SVGID_165_"  style="overflow:visible;"/>
					</clipPath>
					<g style="clip-path:url(#SVGID_37_);enable-background:new    ;">
						<path id="XMLID_38_" style="fill:#111111;" d="M300.311,164.827l-0.165,5.828c-4.424-0.42-8.857-0.8-13.289-1.164l0.165-5.828
							C291.454,164.028,295.887,164.408,300.311,164.827"/>
					</g>
				</g>
				<g style="enable-background:new    ;">
					<defs>
						<path id="SVGID_167_" style="enable-background:new    ;" d="M328.808,155.013l-0.165,5.828
							c-0.509,4.227-1.026,8.454-1.535,12.682l0.165-5.828C327.782,163.467,328.299,159.24,328.808,155.013z"/>
					</defs>
					<use xlink:href="#SVGID_167_"  style="overflow:visible;fill:#111111;"/>
					<clipPath id="SVGID_38_">
						<use xlink:href="#SVGID_167_"  style="overflow:visible;"/>
					</clipPath>
					<g style="clip-path:url(#SVGID_38_);enable-background:new    ;">
						<path id="XMLID_37_" style="fill:#111111;" d="M328.808,155.013l-0.165,5.828c-0.509,4.227-1.026,8.454-1.535,12.682
							l0.165-5.828C327.782,163.467,328.299,159.24,328.808,155.013"/>
					</g>
				</g>
				<g style="enable-background:new    ;">
					<defs>
						<path id="SVGID_169_" style="enable-background:new    ;" d="M327.273,167.695l-0.165,5.828
							c-4.512-0.539-9.025-1.046-13.545-1.529l0.165-5.828C318.249,166.649,322.761,167.156,327.273,167.695z"/>
					</defs>
					<use xlink:href="#SVGID_169_"  style="overflow:visible;fill:#111111;"/>
					<clipPath id="SVGID_39_">
						<use xlink:href="#SVGID_169_"  style="overflow:visible;"/>
					</clipPath>
					<g style="clip-path:url(#SVGID_39_);enable-background:new    ;">
						<path id="XMLID_36_" style="fill:#111111;" d="M327.273,167.695l-0.165,5.828c-4.512-0.539-9.025-1.046-13.545-1.529
							l0.165-5.828C318.249,166.649,322.761,167.156,327.273,167.695"/>
					</g>
				</g>
				<g style="enable-background:new    ;">
					<defs>
						<path id="SVGID_171_" style="enable-background:new    ;" d="M309.855,202.15l-0.165,5.828
							c-4.32-0.467-8.633-0.894-12.953-1.298l0.165-5.828C301.222,201.255,305.534,201.683,309.855,202.15z"/>
					</defs>
					<use xlink:href="#SVGID_171_"  style="overflow:visible;fill:#111111;"/>
					<clipPath id="SVGID_40_">
						<use xlink:href="#SVGID_171_"  style="overflow:visible;"/>
					</clipPath>
					<g style="clip-path:url(#SVGID_40_);enable-background:new    ;">
						<path id="XMLID_35_" style="fill:#111111;" d="M309.855,202.15l-0.165,5.828c-4.32-0.467-8.633-0.894-12.953-1.298
							l0.165-5.828C301.222,201.255,305.534,201.683,309.855,202.15"/>
					</g>
				</g>
				<g style="enable-background:new    ;">
					<defs>
						<path id="SVGID_173_" style="enable-background:new    ;" d="M354.948,173.271l-0.165,5.828
							c0.052-1.847-1.393-3.547-3.36-3.824c-0.186-0.027-0.372-0.04-0.555-0.041c-1.88-0.003-3.512,1.361-3.77,3.183
							c-0.019,0.133-0.03,0.265-0.033,0.395l0.165-5.828c0.004-0.131,0.015-0.263,0.033-0.395c0.257-1.821,1.89-3.186,3.77-3.183
							c0.183,0,0.368,0.014,0.555,0.041C353.555,169.724,355,171.424,354.948,173.271z"/>
					</defs>
					<use xlink:href="#SVGID_173_"  style="overflow:visible;fill:#111111;"/>
					<clipPath id="SVGID_41_">
						<use xlink:href="#SVGID_173_"  style="overflow:visible;"/>
					</clipPath>
					<g style="clip-path:url(#SVGID_41_);enable-background:new    ;">
						<path id="XMLID_34_" style="fill:#111111;" d="M354.948,173.271l-0.165,5.828c0.052-1.847-1.393-3.547-3.36-3.824
							c-0.186-0.027-0.372-0.04-0.555-0.041c-1.3-0.002-2.481,0.649-3.171,1.653l0.165-5.828c0.69-1.004,1.872-1.656,3.171-1.653
							c0.183,0,0.368,0.014,0.555,0.041C353.555,169.724,355,171.424,354.948,173.271"/>
						<path id="XMLID_33_" style="fill:#111111;" d="M347.862,171.06l-0.165,5.828c-0.152,0.221-0.28,0.459-0.381,0.712l0.165-5.828
							C347.582,171.519,347.71,171.281,347.862,171.06"/>
						<path id="XMLID_32_" style="fill:#111111;" d="M347.481,171.771l-0.165,5.828c-0.088,0.222-0.155,0.454-0.198,0.695
							l0.165-5.828C347.326,172.226,347.393,171.993,347.481,171.771"/>
						<path id="XMLID_31_" style="fill:#111111;" d="M347.283,172.467l-0.165,5.828c-0.007,0.041-0.014,0.081-0.019,0.122
							c-0.019,0.133-0.03,0.265-0.033,0.395l0.165-5.828c0.004-0.131,0.015-0.263,0.033-0.395
							C347.269,172.548,347.276,172.507,347.283,172.467"/>
					</g>
				</g>
				<g style="enable-background:new    ;">
					<defs>
						<path id="SVGID_175_" style="enable-background:new    ;" d="M366.863,173.573l-0.165,5.828
							c-0.018,0.632-0.078,1.27-0.183,1.911l0.165-5.828C366.785,174.843,366.845,174.205,366.863,173.573z"/>
					</defs>
					<use xlink:href="#SVGID_175_"  style="overflow:visible;fill:#111111;"/>
					<clipPath id="SVGID_42_">
						<use xlink:href="#SVGID_175_"  style="overflow:visible;"/>
					</clipPath>
					<g style="clip-path:url(#SVGID_42_);enable-background:new    ;">
						<path id="XMLID_30_" style="fill:#111111;" d="M366.863,173.573l-0.165,5.828c-0.018,0.632-0.078,1.27-0.183,1.911
							l0.165-5.828C366.785,174.843,366.845,174.205,366.863,173.573"/>
					</g>
				</g>
				<g style="enable-background:new    ;">
					<defs>
						<path id="SVGID_177_" style="enable-background:new    ;" d="M366.68,175.484l-0.165,5.828
							c-3.92-0.625-7.84-1.226-11.768-1.804l0.165-5.828C358.84,174.258,362.76,174.859,366.68,175.484z"/>
					</defs>
					<use xlink:href="#SVGID_177_"  style="overflow:visible;fill:#111111;"/>
					<clipPath id="SVGID_43_">
						<use xlink:href="#SVGID_177_"  style="overflow:visible;"/>
					</clipPath>
					<g style="clip-path:url(#SVGID_43_);enable-background:new    ;">
						<path id="XMLID_29_" style="fill:#111111;" d="M366.68,175.484l-0.165,5.828c-3.92-0.625-7.84-1.226-11.768-1.804l0.165-5.828
							C358.84,174.258,362.76,174.859,366.68,175.484"/>
					</g>
				</g>
				<g style="enable-background:new    ;">
					<defs>
						<path id="SVGID_179_" style="enable-background:new    ;" d="M344.441,197.37l0.165-5.828
							c0.004-0.141,0.016-0.283,0.036-0.426l-0.165,5.828C344.457,197.087,344.445,197.229,344.441,197.37z"/>
					</defs>
					<use xlink:href="#SVGID_179_"  style="overflow:visible;fill:#111111;"/>
					<clipPath id="SVGID_44_">
						<use xlink:href="#SVGID_179_"  style="overflow:visible;"/>
					</clipPath>
					<g style="clip-path:url(#SVGID_44_);enable-background:new    ;">
						<path id="XMLID_28_" style="fill:#111111;" d="M344.642,191.116l-0.165,5.828c-0.02,0.143-0.032,0.286-0.036,0.426
							l0.165-5.828C344.61,191.401,344.622,191.259,344.642,191.116"/>
					</g>
				</g>
				<g style="enable-background:new    ;">
					<defs>
						<path id="SVGID_181_" style="enable-background:new    ;" d="M352.183,191.847l-0.165,5.828
							c0.052-1.845-1.368-3.542-3.297-3.818c-8.006-1.147-13.754-7.805-13.537-15.481l0.165-5.828
							c-0.217,7.676,5.532,14.334,13.537,15.481C350.815,188.305,352.235,190.002,352.183,191.847z"/>
					</defs>
					<use xlink:href="#SVGID_181_"  style="overflow:visible;fill:#111111;"/>
					<clipPath id="SVGID_45_">
						<use xlink:href="#SVGID_181_"  style="overflow:visible;"/>
					</clipPath>
					<g style="clip-path:url(#SVGID_45_);enable-background:new    ;">
						<path id="XMLID_27_" style="fill:#111111;" d="M352.183,191.847l-0.165,5.828c0.052-1.845-1.368-3.542-3.297-3.818
							c-8.006-1.147-13.754-7.805-13.537-15.481l0.165-5.828c-0.217,7.676,5.532,14.334,13.537,15.481
							C350.815,188.305,352.235,190.002,352.183,191.847"/>
					</g>
				</g>
				<g style="enable-background:new    ;">
					<defs>
						<path id="SVGID_183_" style="enable-background:new    ;" d="M363.867,192.127l-0.165,5.828
							c-0.019,0.669-0.083,1.345-0.193,2.026c-1.231,7.49-7.776,12.705-15.23,12.693c-0.746-0.001-1.5-0.055-2.26-0.163
							c-7.844-1.129-13.527-7.695-13.305-15.55l0.165-5.828c-0.222,7.855,5.46,14.421,13.305,15.55
							c0.76,0.109,1.514,0.162,2.26,0.163c7.455,0.012,14-5.202,15.23-12.693C363.785,193.472,363.849,192.796,363.867,192.127z"/>
					</defs>
					<use xlink:href="#SVGID_183_"  style="overflow:visible;fill:#111111;"/>
					<clipPath id="SVGID_46_">
						<use xlink:href="#SVGID_183_"  style="overflow:visible;"/>
					</clipPath>
					<g style="clip-path:url(#SVGID_46_);enable-background:new    ;">
						<path id="XMLID_26_" style="fill:#111111;" d="M363.867,192.127l-0.165,5.828c-0.019,0.669-0.083,1.345-0.193,2.026
							c-0.012,0.073-0.025,0.146-0.038,0.219l0.165-5.828c0.013-0.073,0.026-0.146,0.038-0.219
							C363.785,193.472,363.849,192.796,363.867,192.127"/>
						<path id="XMLID_25_" style="fill:#111111;" d="M363.637,194.371l-0.165,5.828c-0.182,1.018-0.463,1.993-0.831,2.917
							l0.165-5.828C363.174,196.364,363.455,195.389,363.637,194.371"/>
						<path id="XMLID_24_" style="fill:#111111;" d="M362.806,197.288l-0.165,5.828c-0.414,1.038-0.937,2.013-1.555,2.912
							l0.165-5.828C361.868,199.301,362.392,198.326,362.806,197.288"/>
						<path id="XMLID_23_" style="fill:#111111;" d="M361.25,200.201l-0.165,5.828c-2.816,4.101-7.588,6.653-12.806,6.645
							c-0.746-0.001-1.5-0.055-2.26-0.163c-7.844-1.129-13.527-7.695-13.305-15.55l0.165-5.828
							c-0.222,7.855,5.46,14.421,13.305,15.55c0.76,0.109,1.514,0.162,2.26,0.163C353.662,206.854,358.434,204.302,361.25,200.201"
							/>
					</g>
				</g>
			</g>
		</g>
		<g>
			<g id="XMLID_331_">
				<g id="XMLID_360_">
					<path id="XMLID_361_" style="fill:#00DEAB;" d="M130.574,110.08c1.209,13.456-8.791,25.346-22.267,27.094
						c-6.082,0.791-12.148,1.654-18.207,2.597c-2.55-16.107-5.1-32.207-7.659-48.314c6.474-1.005,12.965-1.931,19.455-2.769
						c1.227-0.159,2.444-0.236,3.64-0.234C118.577,88.473,129.466,97.777,130.574,110.08z M106.712,124.622
						c6.522-0.838,11.274-6.614,10.561-12.969c-0.646-5.756-5.833-10.075-11.904-10.085c-0.556-0.001-1.12,0.034-1.688,0.108
						c-1.905,0.243-3.809,0.494-5.714,0.76c1.072,7.641,2.143,15.282,3.207,22.93C103.023,125.107,104.864,124.865,106.712,124.622"
						/>
				</g>
				<g id="XMLID_356_">
					<path id="XMLID_357_" style="fill:#00DEAB;" d="M174.354,113.957c3.802,5.781,7.508,11.594,11.134,17.43
						c-4.985,0.103-9.978,0.262-14.964,0.468c-2.74-4.209-5.52-8.409-8.347-12.594c-2.729,0.146-5.457,0.301-8.186,0.479
						c0.283,4.316,0.566,8.632,0.849,12.947c-4.329,0.279-8.65,0.589-12.972,0.947c-1.366-16.248-2.724-32.488-4.089-48.737
						c7.41-0.607,14.828-1.103,22.246-1.495c0.383-0.021,0.765-0.03,1.143-0.03c10.241,0.016,18.597,7.681,18.825,17.236
						C180.141,105.82,177.879,110.576,174.354,113.957z M161.582,108.194c4.081-0.216,7.213-3.407,7.05-7.318
						c-0.158-3.774-3.394-6.688-7.373-6.695c-0.145,0-0.29,0.003-0.437,0.011c-2.825,0.154-5.65,0.316-8.466,0.494
						c0.299,4.665,0.606,9.33,0.912,13.995C156.037,108.502,158.805,108.34,161.582,108.194"/>
				</g>
				<g id="XMLID_352_">
					<path id="XMLID_353_" style="fill:#00DEAB;" d="M215.166,82.459c14.683,0.269,25.928,11.964,25.12,25.432
						c-0.799,13.332-12.215,23.488-25.599,23.467c-0.144,0-0.288-0.002-0.433-0.004c-13.57-0.268-24.761-10.923-25.065-24.425
						c-0.309-13.336,11.033-24.497,25.491-24.475C214.843,82.454,215.003,82.456,215.166,82.459z M226.924,107.236
						c0.247-6.449-5.116-11.867-11.997-11.997c-0.076-0.001-0.152-0.002-0.228-0.002c-6.713-0.011-12.148,5.163-12.14,11.54
						c0.009,6.394,5.372,11.67,11.933,11.799c0.071,0.001,0.142,0.002,0.213,0.002C221.237,118.588,226.68,113.553,226.924,107.236"
						/>
				</g>
				<g id="XMLID_350_">
					<path id="XMLID_351_" style="fill:#00DEAB;" d="M251.172,83.976c4.625,0.309,9.249,0.649,13.866,1.038
						c-1.379,16.244-2.757,32.488-4.128,48.731c-4.32-0.364-8.649-0.688-12.97-0.973
						C249.014,116.505,250.097,100.244,251.172,83.976z"/>
				</g>
				<g id="XMLID_346_">
					<path id="XMLID_347_" style="fill:#00DEAB;" d="M295.168,88.14c14.601,1.792,24.596,14.54,22.365,27.84
						c-2.057,12.278-13.019,20.898-25.283,20.878c-1.044-0.002-2.096-0.066-3.154-0.196c-6.08-0.747-12.169-1.424-18.257-2.02
						c1.603-16.22,3.205-32.439,4.816-48.667C282.167,86.612,288.672,87.336,295.168,88.14z M304.236,114.197
						c0.911-6.265-3.859-12.214-10.627-13.05c-1.904-0.233-3.816-0.458-5.72-0.683c-0.905,7.661-1.802,15.331-2.699,22.992
						c1.848,0.209,3.696,0.434,5.536,0.659c0.514,0.064,1.025,0.095,1.531,0.096C298.177,124.221,303.389,120.021,304.236,114.197"
						/>
				</g>
				<g id="XMLID_344_">
					<path id="XMLID_345_" style="fill:#00DEAB;" d="M142.049,149.272c0.95,16.271,1.907,32.543,2.857,48.822
						c-1.776,0.1-3.561,0.208-5.337,0.317c-8.265-7.216-16.707-14.329-25.325-21.34c0.671,7.688,1.351,15.376,2.022,23.063
						c-4.321,0.366-8.643,0.764-12.956,1.193c-1.63-16.225-3.268-32.442-4.898-48.666c1.841-0.18,3.673-0.359,5.514-0.531
						c8.898,6.9,17.612,13.91,26.157,21.032c-0.551-7.68-1.095-15.351-1.646-23.023C132.974,149.82,137.511,149.526,142.049,149.272
						z"/>
				</g>
				<g id="XMLID_342_">
					<path id="XMLID_343_" style="fill:#00DEAB;" d="M89.241,153.606c-7.043,8.254-13.91,16.573-20.601,24.963
						c10.273,7.592,20.315,15.327,30.132,23.211c-6.082,0.625-12.172,1.313-18.246,2.049c-6.556-5.032-13.199-10-19.947-14.898
						c-0.89,1.181-1.787,2.361-2.677,3.542c0.683,4.689,1.358,9.379,2.04,14.068c-4.298,0.612-8.595,1.247-12.885,1.915
						c-2.558-16.099-5.108-32.207-7.667-48.306c4.506-0.707,9.011-1.374,13.525-2.017c0.786,5.443,1.58,10.886,2.374,16.329
						c4.888-6.251,9.872-12.462,14.952-18.649C76.565,155.021,82.903,154.286,89.241,153.606z"/>
				</g>
				<g id="XMLID_340_">
					<path id="XMLID_341_" style="fill:#00DEAB;" d="M166.047,148.176c0.574,16.287,1.155,32.581,1.729,48.868
						c-4.329,0.152-8.658,0.327-12.987,0.534c-0.79-16.287-1.579-32.566-2.369-48.845
						C156.957,148.518,161.502,148.327,166.047,148.176z"/>
				</g>
				<g id="XMLID_338_">
					<path id="XMLID_339_" style="fill:#00DEAB;" d="M201.615,147.551c7.184,0.011,13.579,2.817,18.155,7.248
						c-3.236,2.946-6.44,5.907-9.62,8.885c-2.16-1.973-5.012-3.284-8.486-3.29c-6.473,0.006-12.088,4.97-11.983,11.681
						c0.104,6.708,5.825,11.52,11.951,11.529c3.975-0.002,7.65-1.868,9.758-4.784c-2.43-0.022-4.865-0.035-7.298-0.038
						c-0.811-0.001-1.622-0.002-2.432-0.001c-0.005-2.872-0.009-5.735-0.014-8.607c0.914-0.001,1.828-0.001,2.742,0.001
						c7.55,0.012,15.095,0.111,22.647,0.286c-0.017,0.611-0.025,1.214-0.042,1.824c-0.375,13.501-11.718,24.144-25.313,24.162
						c-13.629-0.022-24.898-10.642-25.314-24.116C175.957,158.845,187.22,147.559,201.615,147.551z"/>
				</g>
				<g id="XMLID_336_">
					<path id="XMLID_337_" style="fill:#00DEAB;" d="M235.037,148.048c4.545,0.134,9.089,0.3,13.626,0.498
						c-0.255,5.798-0.501,11.597-0.756,17.395c5.393,0.231,10.786,0.509,16.178,0.827c0.343-5.79,0.693-11.58,1.036-17.379
						c4.537,0.269,9.073,0.57,13.61,0.894c-1.179,16.26-2.357,32.512-3.544,48.772c-4.321-0.308-8.649-0.593-12.97-0.846
						c0.367-6.211,0.734-12.413,1.109-18.616c-5.329-0.318-10.657-0.588-15.986-0.819c-0.271,6.211-0.542,12.422-0.813,18.624
						c-4.329-0.181-8.657-0.347-12.986-0.481C234.04,180.634,234.538,164.341,235.037,148.048z"/>
				</g>
				<g id="XMLID_334_">
					<path id="XMLID_335_" style="fill:#00DEAB;" d="M288.06,150.926c13.602,1.101,27.187,2.463,40.748,4.087
						c-0.509,4.227-1.026,8.454-1.535,12.682c-4.512-0.539-9.025-1.046-13.545-1.529c-1.294,11.992-2.58,23.984-3.874,35.984
						c-4.32-0.467-8.633-0.894-12.953-1.298c1.142-12.008,2.276-24.016,3.41-36.024c-4.424-0.42-8.857-0.8-13.289-1.164
						C287.371,159.42,287.711,155.177,288.06,150.926z"/>
				</g>
				<g id="XMLID_332_">
					<path id="XMLID_333_" style="fill:#00DEAB;" d="M350.825,158.108c0.784,0.001,1.58,0.058,2.384,0.172
						c8.816,1.26,14.817,8.964,13.471,17.204c-3.92-0.625-7.84-1.226-11.768-1.804c0.298-1.999-1.212-3.936-3.324-4.233
						c-0.186-0.027-0.372-0.04-0.555-0.041c-1.88-0.003-3.512,1.361-3.77,3.183c-0.282,1.999,1.18,3.849,3.268,4.146
						c4.928,0.706,9.038,3.64,11.298,7.554c1.741,2.914,2.417,6.326,1.845,9.863c-1.231,7.49-7.776,12.705-15.23,12.693
						c-0.746-0.001-1.5-0.055-2.26-0.163c-8.36-1.203-14.265-8.582-13.183-17.116c3.88,0.49,7.76,1.012,11.641,1.55
						c-0.29,2.07,1.14,3.913,3.188,4.209c0.184,0.026,0.367,0.039,0.548,0.039c1.846,0.003,3.497-1.282,3.768-3.102
						c0.298-1.999-1.188-3.936-3.26-4.233c-8.512-1.219-14.473-8.67-13.424-16.95C336.417,163.554,343.012,158.096,350.825,158.108z
						"/>
				</g>
			</g>
		</g>
	</g>
	<g id="XMLID_3_">
		<g id="XMLID_126_">
			<path id="XMLID_127_" style="fill:#00DEAB;" d="M189.271,106.239l51.021,1.459c0.279-9.761-4.961-18.396-12.891-22.916
				l6.448-7.832c0.234-0.284,0.193-0.705-0.091-0.939c-0.285-0.233-0.705-0.194-0.939,0.091l-6.618,8.039
				c-3.226-1.616-6.846-2.572-10.69-2.682c-3.844-0.11-7.513,0.638-10.826,2.067l-6.148-8.404c-0.218-0.298-0.635-0.362-0.933-0.145
				c-0.297,0.218-0.362,0.635-0.145,0.933l5.99,8.188C195.275,88.156,189.55,96.478,189.271,106.239z M225.6,93.294
				c1.501,0.043,2.683,1.295,2.64,2.796c-0.043,1.501-1.295,2.683-2.796,2.64c-1.501-0.043-2.683-1.295-2.64-2.796
				S224.099,93.251,225.6,93.294z M204.762,92.698c1.501,0.043,2.683,1.295,2.64,2.796s-1.295,2.683-2.796,2.64
				c-1.501-0.043-2.683-1.295-2.64-2.796C202.009,93.837,203.261,92.655,204.762,92.698z"/>
		</g>
	</g>
	<g id="XMLID_2_">
		
			<image style="overflow:visible;opacity:0.6;" width="99" height="99" id="XMLID_107_" xlink:href="D650CB730D85F50B.png"  transform="matrix(0.24 0 0 0.24 192.7593 83.4139)">
		</image>
		<g id="XMLID_98_">
			<circle id="XMLID_106_" style="fill:#36363A;" cx="204.589" cy="95.244" r="2.603"/>
		</g>
	</g>
	<g id="XMLID_1_">
		
			<image style="overflow:visible;opacity:0.6;" width="99" height="99" id="XMLID_103_" xlink:href="D650CB730D85F509.png"  transform="matrix(0.24 0 0 0.24 213.1059 83.5503)">
		</image>
		<g id="XMLID_96_">
			<circle id="XMLID_102_" style="fill:#36363A;" cx="224.936" cy="95.38" r="2.603"/>
		</g>
	</g>
</g>
</svg>
