<?xml version="1.0" encoding="iso-8859-1"?>
<!-- Generator: Adobe Illustrator 19.0.0, SVG Export Plug-In . SVG Version: 6.00 Build 0)  -->
<svg version="1.1" id="Layer_1" xmlns="http://www.w3.org/2000/svg" xmlns:xlink="http://www.w3.org/1999/xlink" x="0px" y="0px"
	 viewBox="0 0 400 300" style="enable-background:new 0 0 400 300;" xml:space="preserve">
<g id="XMLID_2_">
	<g id="XMLID_4_">
		<path id="XMLID_225_" style="fill:#1F1F21;" d="M337.393,162.093c1.17-9.264,2.341-18.527,3.511-27.791
			c0.821-6.502-3.817-12.436-10.328-13.191c-88.65-10.275-178.19-10.275-266.84,0c-6.51,0.755-11.149,6.689-10.328,13.191
			c1.194,9.449,2.387,18.897,3.581,28.346c0.83,6.571-3.916,12.532-10.505,13.2c-8.479,0.859-16.953,1.788-25.421,2.789
			c-6.503,0.769-11.135,6.693-10.314,13.19c2.088,16.53,4.177,33.061,6.265,49.591c0.811,6.423,6.651,10.983,13.08,10.224
			c112.879-13.335,226.935-13.335,339.814,0c6.429,0.76,12.269-3.801,13.08-10.224c2.088-16.53,4.177-33.061,6.265-49.591
			c0.821-6.495-3.809-12.42-10.31-13.189c-10.323-1.22-20.655-2.332-30.994-3.34C341.335,174.654,336.56,168.684,337.393,162.093z"
			/>
		<path id="XMLID_224_" style="fill:#28282B;" d="M337.393,162.093c1.17-9.264,2.341-18.527,3.511-27.791
			c0.821-6.502-3.817-12.436-10.328-13.191c-88.65-10.275-178.19-10.275-266.84,0c-6.51,0.755-11.149,6.689-10.328,13.191
			c1.194,9.449,2.387,18.897,3.581,28.346c0.83,6.571-3.916,12.532-10.505,13.2c-8.479,0.859-16.953,1.788-25.421,2.789
			c-6.503,0.769-11.135,6.693-10.314,13.19c2.088,16.53,4.177,33.061,6.265,49.591c0.811,6.423,6.651,10.983,13.08,10.224
			c112.879-13.335,226.935-13.335,339.814,0c6.429,0.76,12.269-3.801,13.08-10.224c2.088-16.53,4.177-33.061,6.265-49.591
			c0.821-6.495-3.809-12.42-10.31-13.189c-10.323-1.22-20.655-2.332-30.994-3.34C341.335,174.654,336.56,168.684,337.393,162.093z"
			/>
		<g id="XMLID_33_">
			<g id="XMLID_73_">
				<g id="XMLID_221_" style="enable-background:new    ;">
					<defs>
						<path id="SVGID_93_" style="enable-background:new    ;" d="M318.196,191.443l-0.173,6.11
							c-1.357,12.573-2.705,25.145-4.061,37.727l0.173-6.11C315.491,216.589,316.839,204.016,318.196,191.443z"/>
					</defs>
					<use xlink:href="#SVGID_93_"  style="overflow:visible;fill:#111111;"/>
					<clipPath id="SVGID_1_">
						<use xlink:href="#SVGID_93_"  style="overflow:visible;"/>
					</clipPath>
					<g id="XMLID_222_" style="clip-path:url(#SVGID_1_);enable-background:new    ;">
						<path id="XMLID_223_" style="fill:#111111;" d="M318.196,191.443l-0.173,6.11c-1.357,12.573-2.705,25.145-4.061,37.727
							l0.173-6.11C315.491,216.589,316.839,204.016,318.196,191.443"/>
					</g>
				</g>
				<g id="XMLID_74_">
					<g id="XMLID_218_" style="enable-background:new    ;">
						<defs>
							<path id="SVGID_95_" style="enable-background:new    ;" d="M112.297,135.949l-0.173,6.111c0.015-0.547-0.007-1.1-0.07-1.658
								c-0.677-6.035-6.115-10.563-12.48-10.574c-0.583-0.001-1.174,0.036-1.77,0.113c-1.997,0.255-3.994,0.518-5.991,0.797
								l0.173-6.11c1.997-0.28,3.994-0.542,5.991-0.797c0.596-0.077,1.187-0.114,1.77-0.113c6.365,0.01,11.803,4.538,12.48,10.574
								C112.29,134.849,112.313,135.402,112.297,135.949z"/>
						</defs>
						<use xlink:href="#SVGID_95_"  style="overflow:visible;fill:#111111;"/>
						<clipPath id="SVGID_2_">
							<use xlink:href="#SVGID_95_"  style="overflow:visible;"/>
						</clipPath>
						<g id="XMLID_219_" style="clip-path:url(#SVGID_2_);enable-background:new    ;">
							<path id="XMLID_220_" style="fill:#111111;" d="M112.297,135.949l-0.173,6.11c0.015-0.547-0.007-1.1-0.07-1.658
								c-0.677-6.035-6.115-10.563-12.48-10.574c-0.583-0.001-1.174,0.036-1.77,0.113c-1.997,0.255-3.994,0.518-5.991,0.797
								l0.173-6.11c1.997-0.28,3.994-0.542,5.991-0.797c0.596-0.077,1.187-0.114,1.77-0.113c6.365,0.01,11.803,4.538,12.48,10.574
								C112.29,134.849,112.313,135.402,112.297,135.949"/>
						</g>
					</g>
					<g id="XMLID_216_" style="enable-background:new    ;">
						<defs>
							<path id="SVGID_97_" style="enable-background:new    ;" d="M126.266,135.675l-0.173,6.11
								c-0.363,12.822-10.332,23.673-23.439,25.372c-6.377,0.83-12.737,1.734-19.088,2.722l0.173-6.11
								c6.352-0.988,12.712-1.893,19.088-2.722C115.933,159.348,125.903,148.497,126.266,135.675z"/>
						</defs>
						<use xlink:href="#SVGID_97_"  style="overflow:visible;fill:#111111;"/>
						<clipPath id="SVGID_3_">
							<use xlink:href="#SVGID_97_"  style="overflow:visible;"/>
						</clipPath>
						<path id="XMLID_217_" style="clip-path:url(#SVGID_3_);fill:#111111;" d="M125.886,139.395
							c-0.306,1.729-0.788,3.406-1.427,5.01c-0.724,1.818-1.651,3.543-2.754,5.148c-4.203,6.112-10.969,10.469-18.878,11.494
							c-6.377,0.83-12.737,1.734-19.088,2.722l-0.173,6.111c6.352-0.988,12.712-1.892,19.088-2.722
							c7.909-1.025,14.675-5.383,18.878-11.494c1.103-1.604,2.03-3.33,2.754-5.148c0.639-1.605,1.121-3.281,1.427-5.01
							c0.216-1.216,0.344-2.459,0.38-3.72l0.173-6.11C126.23,136.936,126.101,138.179,125.886,139.395z"/>
					</g>
					<g id="XMLID_213_" style="enable-background:new    ;">
						<defs>
							<path id="SVGID_99_" style="enable-background:new    ;" d="M83.738,163.769l-0.173,6.11
								c-2.674-16.887-5.347-33.766-8.03-50.653l0.173-6.11C78.391,130.003,81.065,146.882,83.738,163.769z"/>
						</defs>
						<use xlink:href="#SVGID_99_"  style="overflow:visible;fill:#111111;"/>
						<clipPath id="SVGID_4_">
							<use xlink:href="#SVGID_99_"  style="overflow:visible;"/>
						</clipPath>
						<g id="XMLID_214_" style="clip-path:url(#SVGID_4_);enable-background:new    ;">
							<path id="XMLID_215_" style="fill:#111111;" d="M83.738,163.769l-0.173,6.11c-2.674-16.887-5.347-33.766-8.03-50.653
								l0.173-6.11C78.391,130.003,81.065,146.882,83.738,163.769"/>
						</g>
					</g>
					<g id="XMLID_210_" style="enable-background:new    ;">
						<defs>
							<path id="SVGID_101_" style="enable-background:new    ;" d="M166.077,123.503l-0.173,6.11
								c0.005-0.169,0.004-0.34-0.004-0.512c-0.166-3.957-3.558-7.012-7.73-7.019c-0.152,0-0.304,0.004-0.458,0.011
								c-2.962,0.162-5.923,0.331-8.876,0.518l0.173-6.11c2.953-0.187,5.915-0.356,8.876-0.518c0.154-0.008,0.306-0.012,0.458-0.011
								c4.172,0.007,7.565,3.062,7.73,7.019C166.08,123.163,166.082,123.334,166.077,123.503z"/>
						</defs>
						<use xlink:href="#SVGID_101_"  style="overflow:visible;fill:#111111;"/>
						<clipPath id="SVGID_5_">
							<use xlink:href="#SVGID_101_"  style="overflow:visible;"/>
						</clipPath>
						<g id="XMLID_211_" style="clip-path:url(#SVGID_5_);enable-background:new    ;">
							<path id="XMLID_212_" style="fill:#111111;" d="M166.077,123.503l-0.173,6.11c0.005-0.169,0.004-0.34-0.004-0.512
								c-0.166-3.957-3.558-7.012-7.73-7.019c-0.152,0-0.304,0.004-0.458,0.011c-2.962,0.162-5.923,0.331-8.876,0.518l0.173-6.11
								c2.953-0.187,5.915-0.356,8.876-0.518c0.154-0.008,0.306-0.012,0.458-0.011c4.172,0.007,7.565,3.062,7.73,7.019
								C166.08,123.163,166.082,123.334,166.077,123.503"/>
						</g>
					</g>
					<path id="XMLID_209_" style="fill:#111111;" d="M177.736,130.999c0.037-0.389,0.066-0.779,0.077-1.174l0.173-6.111
						c-0.011,0.395-0.04,0.786-0.077,1.174c-0.011,0.11-0.023,0.219-0.036,0.328c-0.035,0.306-0.077,0.61-0.127,0.911
						c-0.016,0.095-0.029,0.191-0.046,0.285c-0.028,0.156-0.062,0.31-0.095,0.464c-0.031,0.149-0.061,0.298-0.096,0.445
						c-0.036,0.154-0.078,0.305-0.118,0.458c-0.038,0.145-0.075,0.291-0.117,0.435c-0.044,0.151-0.093,0.3-0.141,0.449
						c-0.046,0.143-0.09,0.286-0.139,0.427c-0.051,0.148-0.108,0.293-0.163,0.439c-0.052,0.137-0.102,0.276-0.157,0.412
						c-0.115,0.285-0.237,0.568-0.366,0.846c-0.01,0.022-0.019,0.046-0.03,0.068c-0.14,0.301-0.29,0.597-0.445,0.889
						c-0.049,0.092-0.102,0.181-0.152,0.272c-0.111,0.2-0.223,0.398-0.34,0.594c-0.064,0.106-0.13,0.211-0.196,0.316
						c-0.111,0.177-0.224,0.353-0.341,0.527c-0.073,0.109-0.147,0.217-0.223,0.324c-0.11,0.157-0.223,0.312-0.338,0.465
						c-0.079,0.106-0.158,0.211-0.239,0.315c-0.121,0.156-0.246,0.309-0.372,0.461c-0.079,0.096-0.158,0.193-0.239,0.287
						c-0.141,0.164-0.287,0.324-0.433,0.484c-0.071,0.077-0.14,0.157-0.212,0.233c-0.221,0.233-0.446,0.461-0.677,0.683l-0.173,6.11
						c0.231-0.222,0.456-0.45,0.677-0.683c0.072-0.076,0.141-0.156,0.212-0.233c0.146-0.159,0.291-0.319,0.432-0.483
						c0.081-0.095,0.16-0.192,0.24-0.288c0.126-0.152,0.25-0.305,0.372-0.46c0.081-0.104,0.16-0.21,0.239-0.315
						c0.115-0.154,0.228-0.308,0.338-0.465c0.039-0.055,0.08-0.108,0.118-0.163c0.036-0.053,0.069-0.108,0.104-0.161
						c0.117-0.174,0.23-0.35,0.341-0.527c0.066-0.105,0.132-0.209,0.196-0.316c0.117-0.195,0.23-0.394,0.34-0.594
						c0.05-0.091,0.103-0.18,0.152-0.272c0.155-0.292,0.305-0.588,0.445-0.889c0.011-0.023,0.02-0.047,0.031-0.07
						c0.128-0.278,0.25-0.559,0.365-0.844c0.01-0.024,0.021-0.047,0.031-0.072c0.045-0.113,0.083-0.228,0.126-0.341
						c0.055-0.146,0.111-0.291,0.162-0.438c0.049-0.142,0.093-0.285,0.139-0.428c0.048-0.149,0.097-0.298,0.141-0.449
						c0.042-0.144,0.079-0.29,0.117-0.435c0.04-0.152,0.082-0.304,0.118-0.458c0.035-0.147,0.065-0.296,0.096-0.444
						c0.033-0.155,0.066-0.309,0.095-0.464c0.006-0.033,0.014-0.065,0.02-0.098c0.011-0.062,0.016-0.125,0.026-0.187
						c0.05-0.302,0.093-0.606,0.127-0.912C177.713,131.217,177.726,131.108,177.736,130.999z"/>
					<g id="XMLID_206_" style="enable-background:new    ;">
						<defs>
							<path id="SVGID_103_" style="enable-background:new    ;" d="M159.307,142.267l-0.173,6.111
								c-2.861,0.153-5.722,0.315-8.583,0.502l0.173-6.11C153.585,142.582,156.446,142.421,159.307,142.267z"/>
						</defs>
						<use xlink:href="#SVGID_103_"  style="overflow:visible;fill:#111111;"/>
						<clipPath id="SVGID_6_">
							<use xlink:href="#SVGID_103_"  style="overflow:visible;"/>
						</clipPath>
						<g id="XMLID_207_" style="clip-path:url(#SVGID_6_);enable-background:new    ;">
							<path id="XMLID_208_" style="fill:#111111;" d="M159.307,142.267l-0.173,6.11c-2.861,0.153-5.722,0.315-8.583,0.502
								l0.173-6.11C153.585,142.582,156.446,142.421,159.307,142.267"/>
						</g>
					</g>
					<g id="XMLID_203_" style="enable-background:new    ;">
						<defs>
							<path id="SVGID_105_" style="enable-background:new    ;" d="M168.058,155.471l-0.173,6.111
								c-2.872-4.412-5.787-8.817-8.752-13.204l0.173-6.11C162.271,146.655,165.186,151.059,168.058,155.471z"/>
						</defs>
						<use xlink:href="#SVGID_105_"  style="overflow:visible;fill:#111111;"/>
						<clipPath id="SVGID_7_">
							<use xlink:href="#SVGID_105_"  style="overflow:visible;"/>
						</clipPath>
						<g id="XMLID_204_" style="clip-path:url(#SVGID_7_);enable-background:new    ;">
							<path id="XMLID_205_" style="fill:#111111;" d="M168.058,155.471l-0.173,6.11c-2.872-4.412-5.787-8.817-8.752-13.204
								l0.173-6.11C162.271,146.655,165.186,151.059,168.058,155.471"/>
						</g>
					</g>
					<g id="XMLID_200_" style="enable-background:new    ;">
						<defs>
							<path id="SVGID_107_" style="enable-background:new    ;" d="M183.746,154.981l-0.173,6.11
								c-5.227,0.108-10.462,0.274-15.688,0.49l0.173-6.11C173.285,155.255,178.52,155.089,183.746,154.981z"/>
						</defs>
						<use xlink:href="#SVGID_107_"  style="overflow:visible;fill:#111111;"/>
						<clipPath id="SVGID_8_">
							<use xlink:href="#SVGID_107_"  style="overflow:visible;"/>
						</clipPath>
						<g id="XMLID_201_" style="clip-path:url(#SVGID_8_);enable-background:new    ;">
							<path id="XMLID_202_" style="fill:#111111;" d="M183.746,154.981l-0.173,6.11c-5.227,0.108-10.462,0.274-15.688,0.49
								l0.173-6.11C173.285,155.255,178.52,155.089,183.746,154.981"/>
						</g>
					</g>
					<g id="XMLID_197_" style="enable-background:new    ;">
						<defs>
							<path id="SVGID_109_" style="enable-background:new    ;" d="M151.615,156.343l-0.173,6.11
								c-4.539,0.292-9.069,0.618-13.6,0.993l0.173-6.11C142.545,156.961,147.076,156.635,151.615,156.343z"/>
						</defs>
						<use xlink:href="#SVGID_109_"  style="overflow:visible;fill:#111111;"/>
						<clipPath id="SVGID_9_">
							<use xlink:href="#SVGID_109_"  style="overflow:visible;"/>
						</clipPath>
						<g id="XMLID_198_" style="clip-path:url(#SVGID_9_);enable-background:new    ;">
							<path id="XMLID_199_" style="fill:#111111;" d="M151.615,156.343l-0.173,6.11c-4.539,0.292-9.069,0.618-13.6,0.993
								l0.173-6.11C142.545,156.961,147.076,156.635,151.615,156.343"/>
						</g>
					</g>
					<g id="XMLID_194_" style="enable-background:new    ;">
						<defs>
							<path id="SVGID_111_" style="enable-background:new    ;" d="M138.015,157.336l-0.173,6.11
								c-1.432-17.035-2.856-34.062-4.287-51.097l0.173-6.11C135.159,123.275,136.583,140.301,138.015,157.336z"/>
						</defs>
						<use xlink:href="#SVGID_111_"  style="overflow:visible;fill:#111111;"/>
						<clipPath id="SVGID_10_">
							<use xlink:href="#SVGID_111_"  style="overflow:visible;"/>
						</clipPath>
						<g id="XMLID_195_" style="clip-path:url(#SVGID_10_);enable-background:new    ;">
							<path id="XMLID_196_" style="fill:#111111;" d="M138.015,157.336l-0.173,6.11c-1.432-17.035-2.856-34.062-4.288-51.097
								l0.173-6.11C135.159,123.275,136.583,140.301,138.015,157.336"/>
						</g>
					</g>
					<path id="XMLID_193_" style="fill:#111111;" d="M214.611,117.081c-0.08-0.002-0.16-0.002-0.239-0.002
						c-0.253,0-0.504,0.008-0.753,0.022c-0.076,0.004-0.152,0.01-0.228,0.016c-0.178,0.013-0.354,0.028-0.53,0.048
						c-0.08,0.009-0.16,0.018-0.24,0.028c-0.191,0.025-0.381,0.054-0.569,0.087c-0.053,0.009-0.107,0.017-0.16,0.027
						c-0.238,0.044-0.474,0.095-0.707,0.152c-0.058,0.014-0.115,0.031-0.173,0.046c-0.177,0.046-0.353,0.094-0.527,0.147
						c-0.075,0.023-0.15,0.047-0.225,0.071c-0.164,0.053-0.326,0.109-0.487,0.168c-0.065,0.024-0.131,0.047-0.196,0.072
						c-0.22,0.085-0.438,0.174-0.651,0.27c-0.021,0.009-0.041,0.02-0.063,0.03c-0.193,0.088-0.383,0.181-0.571,0.278
						c-0.065,0.034-0.129,0.069-0.194,0.104c-0.146,0.079-0.291,0.16-0.433,0.244c-0.065,0.038-0.129,0.076-0.193,0.115
						c-0.163,0.1-0.322,0.203-0.479,0.309c-0.035,0.024-0.071,0.046-0.105,0.069c-0.189,0.131-0.374,0.267-0.555,0.407
						c-0.049,0.038-0.097,0.078-0.145,0.117c-0.133,0.106-0.264,0.215-0.392,0.326c-0.057,0.05-0.114,0.1-0.17,0.15
						c-0.125,0.112-0.247,0.227-0.367,0.344c-0.046,0.045-0.093,0.088-0.138,0.134c-0.16,0.161-0.317,0.326-0.468,0.496
						c-0.024,0.027-0.046,0.054-0.069,0.081c-0.127,0.145-0.251,0.293-0.371,0.444c-0.045,0.057-0.089,0.114-0.133,0.171
						c-0.099,0.129-0.195,0.259-0.288,0.392c-0.026,0.036-0.054,0.071-0.079,0.108c-0.017,0.025-0.033,0.051-0.05,0.076
						c-0.074,0.109-0.144,0.22-0.215,0.331c-0.041,0.065-0.083,0.13-0.123,0.196c-0.078,0.13-0.153,0.262-0.226,0.395
						c-0.027,0.05-0.057,0.098-0.083,0.148c-0.098,0.184-0.191,0.37-0.28,0.559c-0.019,0.04-0.035,0.082-0.054,0.123
						c-0.068,0.149-0.134,0.299-0.195,0.451c-0.006,0.016-0.014,0.031-0.02,0.047c-0.03,0.074-0.055,0.15-0.083,0.225
						c-0.034,0.091-0.069,0.181-0.101,0.272c-0.032,0.093-0.061,0.187-0.091,0.281c-0.03,0.093-0.06,0.185-0.088,0.279
						c-0.027,0.094-0.051,0.189-0.076,0.284c-0.025,0.096-0.051,0.191-0.074,0.287c-0.023,0.096-0.042,0.192-0.062,0.289
						c-0.02,0.097-0.042,0.194-0.06,0.292c-0.003,0.018-0.008,0.035-0.011,0.053c-0.007,0.037-0.009,0.075-0.016,0.113
						c-0.034,0.201-0.062,0.403-0.085,0.607c-0.008,0.07-0.016,0.139-0.022,0.209c-0.024,0.253-0.043,0.507-0.05,0.763l-0.173,6.11
						c0.007-0.257,0.026-0.51,0.05-0.763c0.007-0.07,0.015-0.141,0.023-0.211c0.023-0.204,0.051-0.406,0.085-0.606
						c0.009-0.055,0.017-0.111,0.027-0.166c0.018-0.098,0.039-0.195,0.059-0.292c0.02-0.097,0.039-0.194,0.062-0.29
						c0.023-0.095,0.048-0.19,0.073-0.284c0.025-0.096,0.049-0.192,0.077-0.287c0.027-0.093,0.058-0.185,0.087-0.278
						c0.03-0.094,0.059-0.189,0.091-0.282c0.032-0.092,0.067-0.182,0.101-0.273c0.034-0.09,0.067-0.181,0.103-0.27
						c0.061-0.151,0.127-0.301,0.194-0.449c0.019-0.042,0.036-0.084,0.055-0.126c0.088-0.189,0.182-0.375,0.279-0.558
						c0.027-0.05,0.056-0.099,0.084-0.149c0.073-0.132,0.147-0.264,0.226-0.394c0.04-0.066,0.082-0.13,0.123-0.196
						c0.07-0.111,0.141-0.222,0.215-0.331c0.042-0.062,0.086-0.123,0.129-0.184c0.093-0.133,0.19-0.263,0.288-0.392
						c0.044-0.057,0.087-0.115,0.132-0.171c0.12-0.151,0.244-0.3,0.372-0.445c0.023-0.026,0.045-0.054,0.068-0.08
						c0.151-0.17,0.308-0.335,0.468-0.496c0.045-0.045,0.092-0.089,0.137-0.133c0.12-0.117,0.243-0.232,0.368-0.345
						c0.056-0.05,0.113-0.1,0.17-0.15c0.129-0.112,0.26-0.22,0.394-0.327c0.048-0.038,0.095-0.078,0.144-0.116
						c0.181-0.14,0.366-0.277,0.556-0.408c0.035-0.024,0.07-0.046,0.105-0.069c0.157-0.107,0.317-0.21,0.48-0.31
						c0.063-0.039,0.128-0.077,0.192-0.114c0.143-0.084,0.288-0.166,0.434-0.245c0.064-0.035,0.128-0.07,0.193-0.103
						c0.188-0.097,0.379-0.191,0.573-0.279c0.02-0.009,0.039-0.019,0.06-0.028c0.214-0.096,0.432-0.185,0.652-0.27
						c0.065-0.025,0.13-0.048,0.196-0.072c0.161-0.059,0.324-0.116,0.488-0.169c0.075-0.024,0.149-0.048,0.224-0.071
						c0.174-0.053,0.35-0.102,0.527-0.147c0.058-0.015,0.115-0.031,0.173-0.046c0.233-0.057,0.469-0.108,0.708-0.152
						c0.052-0.01,0.105-0.017,0.158-0.026c0.189-0.033,0.379-0.062,0.571-0.087c0.08-0.01,0.16-0.019,0.24-0.028
						c0.176-0.02,0.353-0.035,0.53-0.048c0.076-0.005,0.151-0.012,0.227-0.016c0.249-0.014,0.5-0.022,0.754-0.022
						c0.079,0,0.159,0.001,0.239,0.002c7.214,0.136,12.837,5.817,12.578,12.578l0.173-6.111
						C227.448,122.898,221.825,117.217,214.611,117.081z"/>
					<path id="XMLID_192_" style="fill:#111111;" d="M241.198,130.347c-0.028,0.471-0.071,0.937-0.125,1.401
						c-0.017,0.152-0.042,0.301-0.062,0.452c-0.041,0.311-0.084,0.621-0.137,0.927c-0.034,0.199-0.073,0.396-0.112,0.594
						c-0.043,0.221-0.086,0.443-0.135,0.662c-0.045,0.201-0.094,0.399-0.144,0.598c-0.054,0.217-0.108,0.433-0.167,0.648
						c-0.054,0.197-0.114,0.392-0.173,0.587c-0.064,0.211-0.128,0.423-0.197,0.632c-0.064,0.193-0.132,0.385-0.201,0.576
						c-0.074,0.206-0.149,0.413-0.228,0.617c-0.067,0.173-0.138,0.343-0.208,0.514c-0.106,0.258-0.216,0.513-0.331,0.767
						c-0.073,0.162-0.147,0.324-0.224,0.485c-0.122,0.255-0.249,0.507-0.378,0.757c-0.078,0.15-0.154,0.301-0.235,0.449
						c-0.149,0.274-0.305,0.543-0.463,0.81c-0.069,0.117-0.135,0.237-0.207,0.353c-0.233,0.38-0.475,0.755-0.727,1.123
						c-0.204,0.298-0.416,0.589-0.633,0.878c-0.053,0.071-0.106,0.141-0.16,0.211c-0.221,0.288-0.445,0.574-0.677,0.853
						c-0.005,0.006-0.01,0.012-0.015,0.018c-0.229,0.274-0.465,0.542-0.704,0.806c-0.059,0.065-0.118,0.13-0.177,0.194
						c-0.245,0.265-0.494,0.527-0.749,0.782c-0.022,0.022-0.045,0.043-0.068,0.066c-0.239,0.237-0.483,0.468-0.731,0.696
						c-0.064,0.059-0.127,0.117-0.191,0.175c-0.267,0.241-0.538,0.477-0.815,0.707c-0.037,0.031-0.075,0.06-0.113,0.091
						c-0.25,0.206-0.505,0.406-0.763,0.603c-0.067,0.051-0.133,0.102-0.201,0.153c-0.288,0.215-0.579,0.426-0.876,0.629
						c-0.05,0.034-0.101,0.067-0.151,0.101c-0.263,0.178-0.529,0.351-0.798,0.52c-0.068,0.043-0.136,0.086-0.205,0.129
						c-0.307,0.189-0.617,0.372-0.931,0.548c-0.061,0.035-0.124,0.067-0.185,0.102c-0.276,0.152-0.555,0.3-0.837,0.443
						c-0.067,0.034-0.134,0.069-0.202,0.103c-0.324,0.161-0.652,0.315-0.983,0.464c-0.071,0.032-0.142,0.062-0.213,0.093
						c-0.292,0.128-0.586,0.25-0.883,0.368c-0.063,0.025-0.126,0.051-0.189,0.076c-0.34,0.132-0.684,0.257-1.03,0.375
						c-0.079,0.027-0.158,0.052-0.236,0.079c-0.308,0.102-0.619,0.2-0.932,0.292c-0.057,0.017-0.113,0.034-0.169,0.051
						c-0.354,0.101-0.712,0.194-1.072,0.282c-0.085,0.021-0.17,0.04-0.254,0.06c-0.329,0.076-0.659,0.147-0.992,0.212
						c-0.046,0.009-0.091,0.019-0.136,0.027c-0.367,0.069-0.738,0.129-1.11,0.183c-0.089,0.013-0.179,0.025-0.269,0.037
						c-0.354,0.048-0.709,0.091-1.067,0.125c-0.027,0.003-0.054,0.006-0.082,0.009c-0.379,0.035-0.76,0.06-1.143,0.08
						c-0.093,0.005-0.187,0.009-0.281,0.013c-0.387,0.016-0.774,0.026-1.164,0.026c-0.151,0-0.302-0.002-0.454-0.004
						c-14.228-0.281-25.96-11.452-26.279-25.608c-0.01-0.414-0.008-0.826,0.003-1.236l0,0v0l-0.173,6.11
						c-0.012,0.41-0.013,0.822-0.003,1.236c0.32,14.156,12.051,25.327,26.279,25.608c0.152,0.003,0.302,0.004,0.454,0.004
						c0.39,0.001,0.778-0.01,1.164-0.026c0.094-0.004,0.187-0.008,0.281-0.013c0.383-0.019,0.764-0.044,1.143-0.08
						c0.027-0.003,0.055-0.006,0.082-0.009c0.358-0.034,0.713-0.077,1.067-0.125c0.09-0.012,0.179-0.024,0.269-0.037
						c0.372-0.054,0.742-0.114,1.11-0.183c0.045-0.009,0.09-0.019,0.136-0.027c0.333-0.064,0.663-0.135,0.992-0.212
						c0.085-0.02,0.171-0.039,0.256-0.06c0.359-0.087,0.717-0.18,1.071-0.281c0.057-0.016,0.114-0.034,0.171-0.051
						c0.312-0.091,0.622-0.189,0.93-0.291c0.079-0.026,0.159-0.052,0.238-0.079c0.346-0.118,0.689-0.243,1.029-0.375
						c0.064-0.025,0.127-0.051,0.191-0.077c0.296-0.117,0.589-0.24,0.88-0.367c0.072-0.031,0.144-0.062,0.215-0.094
						c0.331-0.148,0.658-0.302,0.981-0.463c0.068-0.034,0.136-0.069,0.204-0.104c0.281-0.142,0.559-0.289,0.834-0.441
						c0.062-0.035,0.126-0.068,0.188-0.103c0.314-0.176,0.624-0.359,0.93-0.547c0.069-0.043,0.138-0.086,0.207-0.13
						c0.268-0.168,0.534-0.341,0.796-0.519c0.051-0.035,0.103-0.068,0.153-0.103c0.296-0.204,0.588-0.414,0.875-0.629
						c0.067-0.05,0.134-0.102,0.201-0.153c0.257-0.196,0.512-0.397,0.762-0.602c0.038-0.031,0.077-0.061,0.114-0.093
						c0.277-0.23,0.548-0.466,0.815-0.707c0.064-0.058,0.128-0.116,0.191-0.175c0.248-0.228,0.492-0.459,0.731-0.696
						c0.022-0.022,0.045-0.043,0.068-0.066c0.255-0.255,0.504-0.516,0.749-0.781c0.06-0.065,0.119-0.13,0.178-0.195
						c0.239-0.264,0.474-0.531,0.702-0.804c0.006-0.007,0.011-0.013,0.017-0.02c0.232-0.279,0.456-0.564,0.677-0.852
						c0.054-0.07,0.108-0.141,0.161-0.212c0.213-0.285,0.423-0.572,0.625-0.866c0.003-0.004,0.005-0.008,0.007-0.011
						c0.252-0.367,0.494-0.742,0.727-1.122c0.071-0.116,0.138-0.236,0.207-0.354c0.158-0.268,0.314-0.536,0.463-0.81
						c0.081-0.148,0.157-0.299,0.234-0.449c0.13-0.25,0.257-0.502,0.378-0.757c0.077-0.161,0.151-0.322,0.224-0.485
						c0.115-0.254,0.225-0.509,0.331-0.767c0.04-0.098,0.086-0.193,0.126-0.291c0.029-0.073,0.054-0.149,0.082-0.222
						c0.079-0.204,0.154-0.411,0.228-0.617c0.068-0.191,0.137-0.382,0.201-0.576c0.069-0.209,0.134-0.42,0.198-0.632
						c0.059-0.195,0.118-0.39,0.173-0.587c0.059-0.214,0.113-0.431,0.167-0.647c0.049-0.199,0.099-0.397,0.144-0.598
						c0.049-0.219,0.092-0.44,0.135-0.662c0.028-0.143,0.062-0.284,0.087-0.429c0.01-0.055,0.015-0.111,0.024-0.166
						c0.052-0.307,0.095-0.617,0.137-0.927c0.02-0.151,0.044-0.3,0.062-0.452c0.053-0.463,0.096-0.93,0.125-1.401
						c0.015-0.253,0.026-0.505,0.033-0.756l0.173-6.11C241.224,129.843,241.213,130.095,241.198,130.347z"/>
					<g id="XMLID_189_" style="enable-background:new    ;">
						<defs>
							<path id="SVGID_113_" style="enable-background:new    ;" d="M267.147,106.362l-0.173,6.11
								c-1.445,17.03-2.891,34.061-4.328,51.091l0.173-6.11C264.256,140.423,265.702,123.392,267.147,106.362z"/>
						</defs>
						<use xlink:href="#SVGID_113_"  style="overflow:visible;fill:#111111;"/>
						<clipPath id="SVGID_11_">
							<use xlink:href="#SVGID_113_"  style="overflow:visible;"/>
						</clipPath>
						<g id="XMLID_190_" style="clip-path:url(#SVGID_11_);enable-background:new    ;">
							<path id="XMLID_191_" style="fill:#111111;" d="M267.147,106.362l-0.173,6.11c-1.445,17.03-2.891,34.061-4.328,51.091
								l0.173-6.11C264.256,140.423,265.702,123.392,267.147,106.362"/>
						</g>
					</g>
					<g id="XMLID_186_" style="enable-background:new    ;">
						<defs>
							<path id="SVGID_115_" style="enable-background:new    ;" d="M262.819,157.453l-0.173,6.111
								c-4.53-0.382-9.068-0.721-13.598-1.02l0.173-6.11C253.751,156.732,258.289,157.071,262.819,157.453z"/>
						</defs>
						<use xlink:href="#SVGID_115_"  style="overflow:visible;fill:#111111;"/>
						<clipPath id="SVGID_12_">
							<use xlink:href="#SVGID_115_"  style="overflow:visible;"/>
						</clipPath>
						<g id="XMLID_187_" style="clip-path:url(#SVGID_12_);enable-background:new    ;">
							<path id="XMLID_188_" style="fill:#111111;" d="M262.819,157.453l-0.173,6.11c-4.53-0.382-9.068-0.721-13.598-1.02
								l0.173-6.11C253.751,156.732,258.289,157.071,262.819,157.453"/>
						</g>
					</g>
					<g id="XMLID_183_" style="enable-background:new    ;">
						<defs>
							<path id="SVGID_117_" style="enable-background:new    ;" d="M308.357,135.66l-0.173,6.111
								c0.172-6.072-4.628-11.566-11.254-12.384c-1.996-0.244-4.001-0.48-5.997-0.717l0.173-6.11
								c1.996,0.236,4.001,0.472,5.997,0.717C303.729,124.095,308.529,129.588,308.357,135.66z"/>
						</defs>
						<use xlink:href="#SVGID_117_"  style="overflow:visible;fill:#111111;"/>
						<clipPath id="SVGID_13_">
							<use xlink:href="#SVGID_117_"  style="overflow:visible;"/>
						</clipPath>
						<g id="XMLID_184_" style="clip-path:url(#SVGID_13_);enable-background:new    ;">
							<path id="XMLID_185_" style="fill:#111111;" d="M308.357,135.66l-0.173,6.11c0.172-6.072-4.628-11.566-11.254-12.384
								c-1.996-0.244-4.001-0.48-5.997-0.717l0.173-6.11c1.996,0.236,4.001,0.472,5.997,0.717
								C303.729,124.095,308.529,129.588,308.357,135.66"/>
						</g>
					</g>
					<g id="XMLID_180_" style="enable-background:new    ;">
						<defs>
							<path id="SVGID_119_" style="enable-background:new    ;" d="M291.105,122.56l-0.173,6.11
								c-0.949,8.032-1.889,16.073-2.829,24.106l0.173-6.11C289.216,138.633,290.156,130.592,291.105,122.56z"/>
						</defs>
						<use xlink:href="#SVGID_119_"  style="overflow:visible;fill:#111111;"/>
						<clipPath id="SVGID_14_">
							<use xlink:href="#SVGID_119_"  style="overflow:visible;"/>
						</clipPath>
						<g id="XMLID_181_" style="clip-path:url(#SVGID_14_);enable-background:new    ;">
							<path id="XMLID_182_" style="fill:#111111;" d="M291.105,122.56l-0.173,6.11c-0.949,8.032-1.889,16.073-2.829,24.106
								l0.173-6.11C289.216,138.633,290.156,130.592,291.105,122.56"/>
						</g>
					</g>
					<path id="XMLID_179_" style="fill:#111111;" d="M322.344,137.625l0.058-2.042c-0.03,1.074-0.135,2.158-0.317,3.244
						c-0.013,0.08-0.027,0.16-0.041,0.24c-0.309,1.745-0.79,3.418-1.423,5.007c-0.712,1.787-1.616,3.467-2.684,5.02
						c-4.906,7.14-13.267,11.618-22.307,11.62c-1.078-0.004-2.166-0.069-3.258-0.204c-6.375-0.784-12.758-1.492-19.142-2.118l0,0.01
						c-0.033-0.003-0.066-0.007-0.1-0.01l-0.173,6.111c6.384,0.626,12.767,1.335,19.142,2.118c1.109,0.136,2.213,0.203,3.307,0.205
						c0.017,0,0.035-0.002,0.052-0.002c0.016,0,0.032,0.002,0.048,0.002c12.858,0.021,24.351-9.016,26.507-21.889
						c0.182-1.087,0.287-2.17,0.317-3.244l0.173-6.111C322.483,136.26,322.423,136.942,322.344,137.625z"/>
					<g id="XMLID_176_" style="enable-background:new    ;">
						<defs>
							<path id="SVGID_121_" style="enable-background:new    ;" d="M125.658,198.778l-0.173,6.11
								c-0.578-8.052-1.148-16.095-1.726-24.138l0.173-6.11C124.51,182.683,125.08,190.726,125.658,198.778z"/>
						</defs>
						<use xlink:href="#SVGID_121_"  style="overflow:visible;fill:#111111;"/>
						<clipPath id="SVGID_15_">
							<use xlink:href="#SVGID_121_"  style="overflow:visible;"/>
						</clipPath>
						<g id="XMLID_177_" style="clip-path:url(#SVGID_15_);enable-background:new    ;">
							<path id="XMLID_178_" style="fill:#111111;" d="M125.658,198.778l-0.173,6.11c-0.578-8.052-1.148-16.095-1.726-24.138
								l0.173-6.11C124.51,182.683,125.08,190.726,125.658,198.778"/>
						</g>
					</g>
					<g id="XMLID_173_" style="enable-background:new    ;">
						<defs>
							<path id="SVGID_123_" style="enable-background:new    ;" d="M82.838,178.275l-0.173,6.11
								c-7.384,8.654-14.583,17.375-21.598,26.171l0.173-6.11C68.255,195.65,75.454,186.929,82.838,178.275z"/>
						</defs>
						<use xlink:href="#SVGID_123_"  style="overflow:visible;fill:#111111;"/>
						<clipPath id="SVGID_16_">
							<use xlink:href="#SVGID_123_"  style="overflow:visible;"/>
						</clipPath>
						<g id="XMLID_174_" style="clip-path:url(#SVGID_16_);enable-background:new    ;">
							<path id="XMLID_175_" style="fill:#111111;" d="M82.838,178.275l-0.173,6.11c-7.384,8.654-14.583,17.375-21.598,26.171
								l0.173-6.11C68.255,195.65,75.454,186.929,82.838,178.275"/>
						</g>
					</g>
					<g id="XMLID_170_" style="enable-background:new    ;">
						<defs>
							<path id="SVGID_125_" style="enable-background:new    ;" d="M52.788,215.311l-0.173,6.11
								c-0.933,1.238-1.874,2.475-2.806,3.713l0.173-6.11C50.914,217.787,51.855,216.549,52.788,215.311z"/>
						</defs>
						<use xlink:href="#SVGID_125_"  style="overflow:visible;fill:#111111;"/>
						<clipPath id="SVGID_17_">
							<use xlink:href="#SVGID_125_"  style="overflow:visible;"/>
						</clipPath>
						<g id="XMLID_171_" style="clip-path:url(#SVGID_17_);enable-background:new    ;">
							<path id="XMLID_172_" style="fill:#111111;" d="M52.788,215.311l-0.173,6.11c-0.933,1.238-1.874,2.475-2.806,3.713
								l0.173-6.11C50.914,217.787,51.855,216.549,52.788,215.311"/>
						</g>
					</g>
					<g id="XMLID_167_" style="enable-background:new    ;">
						<defs>
							<path id="SVGID_127_" style="enable-background:new    ;" d="M135.602,225.249l-0.173,6.11
								c-8.666-7.565-17.516-15.023-26.551-22.373l0.173-6.11C118.086,210.226,126.937,217.684,135.602,225.249z"/>
						</defs>
						<use xlink:href="#SVGID_127_"  style="overflow:visible;fill:#111111;"/>
						<clipPath id="SVGID_18_">
							<use xlink:href="#SVGID_127_"  style="overflow:visible;"/>
						</clipPath>
						<g id="XMLID_168_" style="clip-path:url(#SVGID_18_);enable-background:new    ;">
							<path id="XMLID_169_" style="fill:#111111;" d="M135.602,225.249l-0.173,6.11c-8.666-7.565-17.516-15.023-26.551-22.373
								l0.173-6.11C118.086,210.226,126.937,217.684,135.602,225.249"/>
						</g>
					</g>
					<g id="XMLID_164_" style="enable-background:new    ;">
						<defs>
							<path id="SVGID_129_" style="enable-background:new    ;" d="M141.198,224.917l-0.173,6.111
								c-1.863,0.105-3.733,0.219-5.596,0.332l0.173-6.11C137.465,225.136,139.336,225.022,141.198,224.917z"/>
						</defs>
						<use xlink:href="#SVGID_129_"  style="overflow:visible;fill:#111111;"/>
						<clipPath id="SVGID_19_">
							<use xlink:href="#SVGID_129_"  style="overflow:visible;"/>
						</clipPath>
						<g id="XMLID_165_" style="clip-path:url(#SVGID_19_);enable-background:new    ;">
							<path id="XMLID_166_" style="fill:#111111;" d="M141.198,224.917l-0.173,6.11c-1.863,0.105-3.733,0.219-5.596,0.332
								l0.173-6.11C137.465,225.136,139.336,225.022,141.198,224.917"/>
						</g>
					</g>
					<g id="XMLID_161_" style="enable-background:new    ;">
						<defs>
							<path id="SVGID_131_" style="enable-background:new    ;" d="M97.588,228.307l-0.173,6.11
								c-1.709-17.01-3.426-34.013-5.135-51.023l0.173-6.11C94.162,194.295,95.879,211.297,97.588,228.307z"/>
						</defs>
						<use xlink:href="#SVGID_131_"  style="overflow:visible;fill:#111111;"/>
						<clipPath id="SVGID_20_">
							<use xlink:href="#SVGID_131_"  style="overflow:visible;"/>
						</clipPath>
						<g id="XMLID_162_" style="clip-path:url(#SVGID_20_);enable-background:new    ;">
							<path id="XMLID_163_" style="fill:#111111;" d="M97.588,228.307l-0.173,6.11c-1.709-17.01-3.426-34.013-5.135-51.023
								l0.173-6.11C94.162,194.295,95.879,211.297,97.588,228.307"/>
						</g>
					</g>
					<g id="XMLID_158_" style="enable-background:new    ;">
						<defs>
							<path id="SVGID_133_" style="enable-background:new    ;" d="M111.171,227.056l-0.173,6.111
								c-4.531,0.384-9.061,0.801-13.583,1.251l0.173-6.11C102.11,227.857,106.641,227.44,111.171,227.056z"/>
						</defs>
						<use xlink:href="#SVGID_133_"  style="overflow:visible;fill:#111111;"/>
						<clipPath id="SVGID_21_">
							<use xlink:href="#SVGID_133_"  style="overflow:visible;"/>
						</clipPath>
						<g id="XMLID_159_" style="clip-path:url(#SVGID_21_);enable-background:new    ;">
							<path id="XMLID_160_" style="fill:#111111;" d="M111.171,227.056l-0.173,6.11c-4.531,0.384-9.061,0.801-13.583,1.251
								l0.173-6.11C102.11,227.857,106.641,227.44,111.171,227.056"/>
						</g>
					</g>
					<g id="XMLID_155_" style="enable-background:new    ;">
						<defs>
							<path id="SVGID_135_" style="enable-background:new    ;" d="M92.831,228.782l-0.173,6.11
								c-6.376,0.655-12.761,1.377-19.13,2.148l0.173-6.11C80.069,230.159,86.454,229.437,92.831,228.782z"/>
						</defs>
						<use xlink:href="#SVGID_135_"  style="overflow:visible;fill:#111111;"/>
						<clipPath id="SVGID_22_">
							<use xlink:href="#SVGID_135_"  style="overflow:visible;"/>
						</clipPath>
						<g id="XMLID_156_" style="clip-path:url(#SVGID_22_);enable-background:new    ;">
							<path id="XMLID_157_" style="fill:#111111;" d="M92.831,228.782l-0.173,6.11c-6.376,0.655-12.761,1.377-19.13,2.148
								l0.173-6.11C80.069,230.159,86.454,229.437,92.831,228.782"/>
						</g>
					</g>
					<g id="XMLID_152_" style="enable-background:new    ;">
						<defs>
							<path id="SVGID_137_" style="enable-background:new    ;" d="M73.701,230.93l-0.173,6.11
								c-6.873-5.275-13.838-10.485-20.913-15.619l0.173-6.11C59.863,220.446,66.828,225.655,73.701,230.93z"/>
						</defs>
						<use xlink:href="#SVGID_137_"  style="overflow:visible;fill:#111111;"/>
						<clipPath id="SVGID_23_">
							<use xlink:href="#SVGID_137_"  style="overflow:visible;"/>
						</clipPath>
						<g id="XMLID_153_" style="clip-path:url(#SVGID_23_);enable-background:new    ;">
							<path id="XMLID_154_" style="fill:#111111;" d="M73.701,230.93l-0.173,6.11c-6.873-5.275-13.839-10.485-20.913-15.619
								l0.173-6.11C59.863,220.446,66.828,225.655,73.701,230.93"/>
						</g>
					</g>
					<g id="XMLID_149_" style="enable-background:new    ;">
						<defs>
							<path id="SVGID_139_" style="enable-background:new    ;" d="M38.612,235.781l-0.173,6.11
								c-2.682-16.879-5.356-33.766-8.038-50.645l0.173-6.11C33.257,202.015,35.93,218.902,38.612,235.781z"/>
						</defs>
						<use xlink:href="#SVGID_139_"  style="overflow:visible;fill:#111111;"/>
						<clipPath id="SVGID_24_">
							<use xlink:href="#SVGID_139_"  style="overflow:visible;"/>
						</clipPath>
						<g id="XMLID_150_" style="clip-path:url(#SVGID_24_);enable-background:new    ;">
							<path id="XMLID_151_" style="fill:#111111;" d="M38.612,235.781l-0.173,6.11c-2.682-16.879-5.356-33.766-8.038-50.645
								l0.173-6.11C33.257,202.015,35.93,218.902,38.612,235.781"/>
						</g>
					</g>
					<g id="XMLID_146_" style="enable-background:new    ;">
						<defs>
							<path id="SVGID_141_" style="enable-background:new    ;" d="M52.121,233.773l-0.173,6.11
								c-4.506,0.642-9.011,1.308-13.509,2.008l0.173-6.11C43.11,235.081,47.615,234.415,52.121,233.773z"/>
						</defs>
						<use xlink:href="#SVGID_141_"  style="overflow:visible;fill:#111111;"/>
						<clipPath id="SVGID_25_">
							<use xlink:href="#SVGID_141_"  style="overflow:visible;"/>
						</clipPath>
						<g id="XMLID_147_" style="clip-path:url(#SVGID_25_);enable-background:new    ;">
							<path id="XMLID_148_" style="fill:#111111;" d="M52.121,233.773l-0.173,6.11c-4.506,0.642-9.011,1.308-13.509,2.008
								l0.173-6.11C43.11,235.081,47.615,234.415,52.121,233.773"/>
						</g>
					</g>
					<g id="XMLID_143_" style="enable-background:new    ;">
						<defs>
							<path id="SVGID_143_" style="enable-background:new    ;" d="M165.176,223.816l-0.173,6.11
								c-4.539,0.159-9.077,0.343-13.616,0.56l0.173-6.11C156.098,224.159,160.637,223.975,165.176,223.816z"/>
						</defs>
						<use xlink:href="#SVGID_143_"  style="overflow:visible;fill:#111111;"/>
						<clipPath id="SVGID_26_">
							<use xlink:href="#SVGID_143_"  style="overflow:visible;"/>
						</clipPath>
						<g id="XMLID_144_" style="clip-path:url(#SVGID_26_);enable-background:new    ;">
							<path id="XMLID_145_" style="fill:#111111;" d="M165.176,223.816l-0.173,6.11c-4.539,0.159-9.077,0.343-13.616,0.56
								l0.173-6.11C156.098,224.159,160.637,223.975,165.176,223.816"/>
						</g>
					</g>
					<g id="XMLID_140_" style="enable-background:new    ;">
						<defs>
							<path id="SVGID_145_" style="enable-background:new    ;" d="M151.559,224.377l-0.173,6.11
								c-0.828-17.076-1.656-34.143-2.484-51.21l0.173-6.11C149.904,190.234,150.731,207.301,151.559,224.377z"/>
						</defs>
						<use xlink:href="#SVGID_145_"  style="overflow:visible;fill:#111111;"/>
						<clipPath id="SVGID_27_">
							<use xlink:href="#SVGID_145_"  style="overflow:visible;"/>
						</clipPath>
						<g id="XMLID_141_" style="clip-path:url(#SVGID_27_);enable-background:new    ;">
							<path id="XMLID_142_" style="fill:#111111;" d="M151.559,224.377l-0.173,6.11c-0.828-17.076-1.656-34.143-2.484-51.21
								l0.173-6.11C149.904,190.234,150.731,207.301,151.559,224.377"/>
						</g>
					</g>
					<g id="XMLID_137_" style="enable-background:new    ;">
						<defs>
							<path id="SVGID_147_" style="enable-background:new    ;" d="M219.688,179.526l-0.173,6.11
								c-3.393,3.088-6.752,6.193-10.086,9.315l0.173-6.11C212.936,185.719,216.295,182.614,219.688,179.526z"/>
						</defs>
						<use xlink:href="#SVGID_147_"  style="overflow:visible;fill:#111111;"/>
						<clipPath id="SVGID_28_">
							<use xlink:href="#SVGID_147_"  style="overflow:visible;"/>
						</clipPath>
						<g id="XMLID_138_" style="clip-path:url(#SVGID_28_);enable-background:new    ;">
							<path id="XMLID_139_" style="fill:#111111;" d="M219.688,179.526l-0.173,6.11c-3.393,3.088-6.752,6.193-10.086,9.315
								l0.173-6.11C212.936,185.719,216.295,182.614,219.688,179.526"/>
						</g>
					</g>
					<path id="XMLID_136_" style="fill:#111111;" d="M200.705,185.392c-0.243,0-0.485,0.009-0.725,0.023
						c-0.073,0.004-0.145,0.01-0.218,0.015c-0.173,0.012-0.345,0.028-0.516,0.047c-0.076,0.009-0.152,0.017-0.228,0.027
						c-0.193,0.025-0.384,0.054-0.574,0.088c-0.044,0.008-0.089,0.014-0.133,0.022c-0.232,0.043-0.462,0.093-0.69,0.148
						c-0.06,0.015-0.12,0.031-0.18,0.047c-0.17,0.044-0.339,0.09-0.506,0.141c-0.074,0.022-0.147,0.045-0.22,0.068
						c-0.166,0.053-0.33,0.109-0.492,0.169c-0.058,0.021-0.117,0.041-0.175,0.063c-0.216,0.082-0.43,0.17-0.641,0.263
						c-0.039,0.017-0.077,0.037-0.116,0.054c-0.172,0.079-0.343,0.16-0.511,0.246c-0.066,0.034-0.131,0.068-0.196,0.103
						c-0.146,0.078-0.29,0.158-0.433,0.241c-0.061,0.035-0.122,0.07-0.182,0.106c-0.192,0.116-0.38,0.235-0.565,0.36
						c-0.005,0.003-0.009,0.006-0.014,0.009c-0.189,0.128-0.372,0.263-0.553,0.401c-0.055,0.042-0.109,0.086-0.163,0.129
						c-0.128,0.101-0.255,0.205-0.379,0.311c-0.056,0.048-0.113,0.097-0.168,0.146c-0.136,0.121-0.269,0.245-0.399,0.371
						c-0.034,0.033-0.069,0.064-0.102,0.097c-0.16,0.159-0.316,0.323-0.467,0.491c-0.04,0.044-0.078,0.09-0.117,0.135
						c-0.112,0.128-0.222,0.259-0.328,0.392c-0.047,0.058-0.093,0.117-0.138,0.176c-0.103,0.133-0.202,0.269-0.299,0.406
						c-0.026,0.037-0.055,0.072-0.08,0.109c-0.011,0.016-0.021,0.033-0.031,0.048c-0.079,0.116-0.154,0.234-0.229,0.352
						c-0.035,0.055-0.072,0.11-0.106,0.166c-0.107,0.176-0.209,0.354-0.307,0.536c-0.009,0.016-0.016,0.034-0.025,0.05
						c-0.088,0.166-0.172,0.334-0.253,0.504c-0.03,0.064-0.057,0.129-0.086,0.194c-0.056,0.125-0.112,0.25-0.163,0.378
						c-0.008,0.02-0.018,0.04-0.026,0.06c-0.029,0.072-0.053,0.146-0.081,0.219c-0.033,0.088-0.067,0.177-0.098,0.266
						c-0.033,0.096-0.064,0.194-0.095,0.291c-0.029,0.091-0.059,0.181-0.085,0.273c-0.029,0.099-0.054,0.199-0.08,0.299
						c-0.024,0.093-0.05,0.185-0.072,0.279c-0.024,0.101-0.044,0.202-0.065,0.304c-0.02,0.095-0.041,0.19-0.058,0.286
						c-0.003,0.018-0.008,0.036-0.011,0.054c-0.007,0.038-0.01,0.077-0.016,0.115c-0.034,0.206-0.063,0.414-0.087,0.624
						c-0.008,0.072-0.016,0.143-0.023,0.215c-0.024,0.26-0.044,0.523-0.051,0.789l-0.173,6.111c0.008-0.266,0.027-0.528,0.051-0.789
						c0.007-0.072,0.015-0.144,0.023-0.215c0.024-0.21,0.053-0.418,0.087-0.624c0.009-0.056,0.017-0.113,0.027-0.169
						c0.018-0.096,0.038-0.191,0.058-0.286c0.021-0.102,0.041-0.204,0.065-0.304c0.022-0.094,0.047-0.186,0.072-0.279
						c0.026-0.1,0.052-0.2,0.08-0.299c0.027-0.092,0.056-0.182,0.085-0.273c0.031-0.097,0.061-0.195,0.095-0.291
						c0.031-0.09,0.065-0.178,0.099-0.267c0.035-0.093,0.069-0.186,0.106-0.278c0.052-0.128,0.107-0.253,0.164-0.379
						c0.029-0.064,0.056-0.13,0.086-0.193c0.081-0.172,0.166-0.341,0.254-0.507c0.008-0.015,0.015-0.032,0.024-0.047
						c0.098-0.182,0.201-0.36,0.307-0.536c0.034-0.056,0.071-0.11,0.105-0.165c0.075-0.119,0.15-0.237,0.229-0.353
						c0.036-0.053,0.074-0.104,0.111-0.157c0.097-0.138,0.197-0.274,0.3-0.408c0.045-0.059,0.091-0.117,0.138-0.175
						c0.107-0.133,0.217-0.264,0.329-0.393c0.039-0.044,0.076-0.09,0.116-0.134c0.151-0.168,0.307-0.332,0.468-0.492
						c0.033-0.033,0.067-0.064,0.1-0.096c0.131-0.127,0.264-0.251,0.401-0.373c0.055-0.049,0.111-0.097,0.167-0.145
						c0.125-0.107,0.251-0.211,0.38-0.313c0.054-0.043,0.107-0.086,0.162-0.128c0.181-0.138,0.365-0.273,0.554-0.402
						c0.004-0.003,0.009-0.006,0.014-0.009c0.185-0.125,0.374-0.245,0.566-0.361c0.06-0.036,0.12-0.07,0.18-0.105
						c0.143-0.083,0.288-0.164,0.435-0.242c0.065-0.034,0.13-0.069,0.195-0.102c0.169-0.086,0.34-0.168,0.514-0.247
						c0.038-0.017,0.075-0.036,0.114-0.053c0.211-0.093,0.425-0.181,0.642-0.263c0.058-0.022,0.117-0.042,0.175-0.063
						c0.163-0.059,0.327-0.116,0.493-0.169c0.072-0.023,0.145-0.046,0.218-0.068c0.168-0.05,0.337-0.097,0.507-0.141
						c0.06-0.015,0.119-0.032,0.18-0.047c0.228-0.055,0.458-0.105,0.69-0.148c0.044-0.008,0.089-0.014,0.133-0.022
						c0.19-0.033,0.382-0.063,0.574-0.088c0.076-0.01,0.152-0.018,0.228-0.027c0.171-0.019,0.343-0.035,0.516-0.047
						c0.073-0.005,0.145-0.011,0.218-0.015c0.241-0.013,0.482-0.022,0.725-0.023c3.643,0.006,6.633,1.381,8.897,3.449l0.173-6.11
						C207.338,186.773,204.347,185.398,200.705,185.392z"/>
					<g id="XMLID_133_" style="enable-background:new    ;">
						<defs>
							<path id="SVGID_149_" style="enable-background:new    ;" d="M210.901,204.711l-0.173,6.11
								c-2.548-0.023-5.101-0.036-7.652-0.04c-0.85-0.001-1.7-0.002-2.549-0.001l0.173-6.11c0.849-0.001,1.699,0,2.549,0.001
								C205.8,204.675,208.353,204.688,210.901,204.711z"/>
						</defs>
						<use xlink:href="#SVGID_149_"  style="overflow:visible;fill:#111111;"/>
						<clipPath id="SVGID_29_">
							<use xlink:href="#SVGID_149_"  style="overflow:visible;"/>
						</clipPath>
						<g id="XMLID_134_" style="clip-path:url(#SVGID_29_);enable-background:new    ;">
							<path id="XMLID_135_" style="fill:#111111;" d="M210.901,204.711l-0.173,6.11c-2.548-0.023-5.101-0.036-7.652-0.04
								c-0.85-0.001-1.7-0.002-2.549-0.001l0.173-6.11c0.849-0.001,1.699,0,2.549,0.001
								C205.8,204.675,208.353,204.688,210.901,204.711"/>
						</g>
					</g>
					<g id="XMLID_130_" style="enable-background:new    ;">
						<defs>
							<path id="SVGID_151_" style="enable-background:new    ;" d="M200.7,204.67l-0.173,6.111
								c-0.005-3.011-0.01-6.013-0.015-9.024l0.173-6.11C200.69,198.657,200.695,201.659,200.7,204.67z"/>
						</defs>
						<use xlink:href="#SVGID_151_"  style="overflow:visible;fill:#111111;"/>
						<clipPath id="SVGID_30_">
							<use xlink:href="#SVGID_151_"  style="overflow:visible;"/>
						</clipPath>
						<g id="XMLID_131_" style="clip-path:url(#SVGID_30_);enable-background:new    ;">
							<path id="XMLID_132_" style="fill:#111111;" d="M200.7,204.67l-0.173,6.11c-0.005-3.011-0.01-6.013-0.015-9.024l0.173-6.11
								C200.69,198.657,200.695,201.659,200.7,204.67"/>
						</g>
					</g>
					<path id="XMLID_129_" style="fill:#111111;" d="M226.996,205.482c0.01-0.111,0.02-0.221,0.028-0.333
						c0.029-0.391,0.052-0.784,0.063-1.18l0.173-6.11c-0.011,0.396-0.034,0.788-0.063,1.179c-0.008,0.112-0.018,0.223-0.028,0.335
						c-0.026,0.303-0.058,0.605-0.095,0.906c-0.012,0.095-0.022,0.191-0.034,0.285c-0.051,0.377-0.109,0.751-0.176,1.123
						c-0.042,0.236-0.094,0.468-0.143,0.701c-0.04,0.189-0.075,0.38-0.119,0.568c-0.055,0.237-0.12,0.471-0.182,0.705
						c-0.047,0.18-0.09,0.362-0.142,0.541c-0.069,0.242-0.148,0.479-0.225,0.717c-0.053,0.167-0.102,0.337-0.159,0.503
						c-0.087,0.254-0.184,0.503-0.279,0.753c-0.055,0.146-0.105,0.294-0.163,0.439c-0.168,0.421-0.349,0.836-0.538,1.246
						c-0.057,0.124-0.12,0.244-0.179,0.366c-0.137,0.284-0.276,0.568-0.423,0.846c-0.079,0.15-0.163,0.298-0.245,0.446
						c-0.137,0.247-0.275,0.492-0.42,0.734c-0.092,0.154-0.187,0.307-0.282,0.458c-0.145,0.232-0.294,0.462-0.447,0.689
						c-0.129,0.192-0.257,0.384-0.391,0.572c-0.045,0.063-0.089,0.127-0.135,0.19c-0.212,0.292-0.429,0.58-0.652,0.864
						c-0.043,0.054-0.086,0.107-0.129,0.161c-0.203,0.253-0.411,0.503-0.623,0.749c-0.041,0.047-0.08,0.095-0.121,0.142
						c-0.238,0.272-0.482,0.538-0.731,0.799c-0.055,0.058-0.112,0.116-0.168,0.173c-0.24,0.248-0.484,0.492-0.733,0.73
						c-0.021,0.02-0.04,0.04-0.061,0.06c-0.265,0.251-0.537,0.496-0.812,0.736c-0.064,0.055-0.127,0.111-0.192,0.166
						c-0.277,0.238-0.558,0.471-0.846,0.697c-0.025,0.02-0.051,0.039-0.076,0.058c-0.27,0.211-0.545,0.416-0.823,0.617
						c-0.066,0.047-0.131,0.095-0.197,0.142c-0.296,0.209-0.596,0.414-0.9,0.611c-0.053,0.035-0.108,0.068-0.162,0.102
						c-0.275,0.176-0.554,0.346-0.835,0.512c-0.059,0.035-0.118,0.071-0.178,0.105c-0.315,0.182-0.634,0.357-0.956,0.527
						c-0.07,0.037-0.141,0.073-0.212,0.109c-0.302,0.155-0.607,0.305-0.915,0.449c-0.038,0.018-0.075,0.036-0.113,0.054
						c-0.335,0.154-0.675,0.3-1.017,0.441c-0.079,0.033-0.158,0.065-0.238,0.096c-0.347,0.139-0.696,0.273-1.05,0.398
						c-0.017,0.006-0.034,0.011-0.051,0.017c-0.341,0.119-0.686,0.23-1.033,0.336c-0.081,0.025-0.162,0.05-0.244,0.074
						c-0.357,0.105-0.716,0.205-1.079,0.295c-0.057,0.014-0.115,0.027-0.173,0.041c-0.328,0.08-0.658,0.153-0.99,0.221
						c-0.074,0.015-0.147,0.031-0.221,0.046c-0.368,0.072-0.739,0.136-1.112,0.192c-0.079,0.012-0.158,0.022-0.236,0.034
						c-0.343,0.049-0.687,0.092-1.034,0.128c-0.052,0.005-0.104,0.012-0.156,0.017c-0.381,0.037-0.765,0.065-1.151,0.086
						c-0.088,0.005-0.176,0.009-0.265,0.013c-0.393,0.018-0.788,0.03-1.186,0.03c-14.289-0.023-26.103-11.157-26.539-25.284
						c-0.015-0.482-0.015-0.961-0.002-1.437l-0.173,6.111c-0.013,0.476-0.013,0.955,0.001,1.437
						c0.436,14.127,12.251,25.261,26.54,25.284c0.397-0.001,0.792-0.013,1.186-0.03c0.088-0.004,0.177-0.008,0.265-0.013
						c0.386-0.021,0.77-0.049,1.151-0.086c0.052-0.005,0.104-0.012,0.156-0.017c0.347-0.036,0.691-0.079,1.034-0.128
						c0.079-0.011,0.158-0.022,0.236-0.034c0.373-0.057,0.744-0.121,1.112-0.192c0.074-0.014,0.147-0.03,0.221-0.045
						c0.332-0.068,0.662-0.141,0.99-0.221c0.057-0.014,0.115-0.027,0.173-0.041c0.363-0.091,0.722-0.19,1.078-0.295
						c0.082-0.024,0.163-0.049,0.244-0.074c0.347-0.106,0.692-0.217,1.033-0.337c0.017-0.006,0.034-0.011,0.051-0.017
						c0.354-0.125,0.703-0.259,1.051-0.398c0.079-0.032,0.159-0.064,0.238-0.096c0.342-0.141,0.682-0.287,1.017-0.441
						c0.038-0.017,0.075-0.036,0.113-0.054c0.309-0.144,0.613-0.294,0.915-0.449c0.071-0.036,0.141-0.072,0.212-0.109
						c0.323-0.169,0.642-0.345,0.957-0.527c0.06-0.035,0.118-0.07,0.178-0.105c0.282-0.166,0.56-0.336,0.835-0.512
						c0.054-0.034,0.108-0.068,0.162-0.102c0.305-0.198,0.605-0.402,0.901-0.612c0.066-0.047,0.131-0.094,0.196-0.141
						c0.279-0.201,0.554-0.406,0.825-0.618c0.025-0.019,0.05-0.038,0.075-0.057c0.287-0.226,0.568-0.46,0.846-0.698
						c0.064-0.055,0.128-0.11,0.192-0.166c0.275-0.24,0.547-0.485,0.812-0.736c0.021-0.02,0.041-0.04,0.061-0.06
						c0.249-0.238,0.493-0.482,0.733-0.73c0.056-0.058,0.112-0.115,0.168-0.173c0.249-0.262,0.494-0.528,0.732-0.8
						c0.041-0.046,0.08-0.094,0.12-0.141c0.212-0.246,0.42-0.496,0.624-0.749c0.043-0.054,0.087-0.107,0.129-0.16
						c0.223-0.283,0.44-0.571,0.652-0.864c0.046-0.063,0.09-0.126,0.135-0.19c0.076-0.106,0.153-0.211,0.227-0.319
						c0.057-0.083,0.108-0.17,0.164-0.254c0.152-0.227,0.301-0.457,0.447-0.689c0.095-0.152,0.19-0.305,0.282-0.459
						c0.144-0.241,0.282-0.486,0.419-0.731c0.083-0.149,0.167-0.298,0.247-0.449c0.146-0.277,0.285-0.559,0.421-0.842
						c0.06-0.124,0.123-0.246,0.181-0.371c0.189-0.409,0.37-0.824,0.538-1.245c0.002-0.005,0.005-0.011,0.007-0.016
						c0.057-0.144,0.106-0.291,0.161-0.436c0.093-0.246,0.189-0.491,0.274-0.741c0.057-0.168,0.107-0.339,0.161-0.508
						c0.076-0.237,0.154-0.472,0.223-0.711c0.052-0.181,0.095-0.365,0.144-0.548c0.061-0.232,0.125-0.463,0.18-0.698
						c0.044-0.189,0.08-0.381,0.119-0.571c0.049-0.232,0.1-0.464,0.142-0.698c0.004-0.022,0.01-0.044,0.014-0.067
						c0.062-0.35,0.115-0.702,0.162-1.057c0.013-0.094,0.023-0.189,0.034-0.283C226.938,206.09,226.969,205.787,226.996,205.482z"/>
					<g id="XMLID_126_" style="enable-background:new    ;">
						<defs>
							<path id="SVGID_153_" style="enable-background:new    ;" d="M249.98,172.971l-0.173,6.11
								c-0.267,6.079-0.526,12.158-0.793,18.237l0.173-6.11C249.454,185.129,249.713,179.05,249.98,172.971z"/>
						</defs>
						<use xlink:href="#SVGID_153_"  style="overflow:visible;fill:#111111;"/>
						<clipPath id="SVGID_31_">
							<use xlink:href="#SVGID_153_"  style="overflow:visible;"/>
						</clipPath>
						<g id="XMLID_127_" style="clip-path:url(#SVGID_31_);enable-background:new    ;">
							<path id="XMLID_128_" style="fill:#111111;" d="M249.98,172.971l-0.173,6.11c-0.267,6.079-0.526,12.158-0.793,18.237
								l0.173-6.11C249.454,185.129,249.713,179.05,249.98,172.971"/>
						</g>
					</g>
					<g id="XMLID_123_" style="enable-background:new    ;">
						<defs>
							<path id="SVGID_155_" style="enable-background:new    ;" d="M265.354,205.522l-0.173,6.11
								c-5.587-0.333-11.174-0.617-16.76-0.859l0.173-6.11C254.18,204.905,259.767,205.189,265.354,205.522z"/>
						</defs>
						<use xlink:href="#SVGID_155_"  style="overflow:visible;fill:#111111;"/>
						<clipPath id="SVGID_32_">
							<use xlink:href="#SVGID_155_"  style="overflow:visible;"/>
						</clipPath>
						<g id="XMLID_124_" style="clip-path:url(#SVGID_32_);enable-background:new    ;">
							<path id="XMLID_125_" style="fill:#111111;" d="M265.354,205.522l-0.173,6.11c-5.587-0.333-11.174-0.617-16.76-0.859
								l0.173-6.11C254.18,204.905,259.767,205.189,265.354,205.522"/>
						</g>
					</g>
					<g id="XMLID_120_" style="enable-background:new    ;">
						<defs>
							<path id="SVGID_157_" style="enable-background:new    ;" d="M248.593,204.664l-0.173,6.11
								c-0.284,6.512-0.568,13.023-0.853,19.526l0.173-6.11C248.025,217.687,248.309,211.175,248.593,204.664z"/>
						</defs>
						<use xlink:href="#SVGID_157_"  style="overflow:visible;fill:#111111;"/>
						<clipPath id="SVGID_33_">
							<use xlink:href="#SVGID_157_"  style="overflow:visible;"/>
						</clipPath>
						<g id="XMLID_121_" style="clip-path:url(#SVGID_33_);enable-background:new    ;">
							<path id="XMLID_122_" style="fill:#111111;" d="M248.593,204.664l-0.173,6.11c-0.284,6.512-0.568,13.023-0.853,19.526
								l0.173-6.11C248.025,217.687,248.309,211.175,248.593,204.664"/>
						</g>
					</g>
					<g id="XMLID_117_" style="enable-background:new    ;">
						<defs>
							<path id="SVGID_159_" style="enable-background:new    ;" d="M247.741,224.19l-0.173,6.11
								c-4.538-0.19-9.077-0.364-13.615-0.504l0.173-6.11C238.664,223.826,243.202,224,247.741,224.19z"/>
						</defs>
						<use xlink:href="#SVGID_159_"  style="overflow:visible;fill:#111111;"/>
						<clipPath id="SVGID_34_">
							<use xlink:href="#SVGID_159_"  style="overflow:visible;"/>
						</clipPath>
						<g id="XMLID_118_" style="clip-path:url(#SVGID_34_);enable-background:new    ;">
							<path id="XMLID_119_" style="fill:#111111;" d="M247.741,224.19l-0.173,6.11c-4.538-0.19-9.077-0.364-13.615-0.504
								l0.173-6.11C238.664,223.826,243.202,224,247.741,224.19"/>
						</g>
					</g>
					<g id="XMLID_114_" style="enable-background:new    ;">
						<defs>
							<path id="SVGID_161_" style="enable-background:new    ;" d="M281.504,174.793l-0.173,6.11
								c-1.236,17.047-2.472,34.086-3.716,51.134l0.173-6.11C279.033,208.879,280.268,191.84,281.504,174.793z"/>
						</defs>
						<use xlink:href="#SVGID_161_"  style="overflow:visible;fill:#111111;"/>
						<clipPath id="SVGID_35_">
							<use xlink:href="#SVGID_161_"  style="overflow:visible;"/>
						</clipPath>
						<g id="XMLID_115_" style="clip-path:url(#SVGID_35_);enable-background:new    ;">
							<path id="XMLID_116_" style="fill:#111111;" d="M281.504,174.793l-0.173,6.11c-1.236,17.047-2.472,34.086-3.716,51.134
								l0.173-6.11C279.033,208.879,280.268,191.84,281.504,174.793"/>
						</g>
					</g>
					<g id="XMLID_111_" style="enable-background:new    ;">
						<defs>
							<path id="SVGID_163_" style="enable-background:new    ;" d="M277.788,225.926l-0.173,6.11
								c-4.53-0.323-9.068-0.622-13.598-0.887l0.173-6.11C268.72,225.305,273.259,225.603,277.788,225.926z"/>
						</defs>
						<use xlink:href="#SVGID_163_"  style="overflow:visible;fill:#111111;"/>
						<clipPath id="SVGID_36_">
							<use xlink:href="#SVGID_163_"  style="overflow:visible;"/>
						</clipPath>
						<g id="XMLID_112_" style="clip-path:url(#SVGID_36_);enable-background:new    ;">
							<path id="XMLID_113_" style="fill:#111111;" d="M277.788,225.926l-0.173,6.11c-4.53-0.323-9.068-0.622-13.598-0.887
								l0.173-6.11C268.72,225.305,273.259,225.603,277.788,225.926"/>
						</g>
					</g>
					<g id="XMLID_108_" style="enable-background:new    ;">
						<defs>
							<path id="SVGID_165_" style="enable-background:new    ;" d="M304.129,190.04l-0.173,6.11
								c-4.639-0.44-9.286-0.838-13.933-1.22l0.173-6.11C294.843,189.202,299.49,189.6,304.129,190.04z"/>
						</defs>
						<use xlink:href="#SVGID_165_"  style="overflow:visible;fill:#111111;"/>
						<clipPath id="SVGID_37_">
							<use xlink:href="#SVGID_165_"  style="overflow:visible;"/>
						</clipPath>
						<g id="XMLID_109_" style="clip-path:url(#SVGID_37_);enable-background:new    ;">
							<path id="XMLID_110_" style="fill:#111111;" d="M304.129,190.04l-0.173,6.11c-4.639-0.44-9.286-0.838-13.933-1.22l0.173-6.11
								C294.843,189.202,299.49,189.6,304.129,190.04"/>
						</g>
					</g>
					<g id="XMLID_105_" style="enable-background:new    ;">
						<defs>
							<path id="SVGID_167_" style="enable-background:new    ;" d="M334.006,179.75l-0.173,6.11
								c-0.534,4.432-1.076,8.864-1.609,13.296l0.173-6.11C332.93,188.614,333.472,184.182,334.006,179.75z"/>
						</defs>
						<use xlink:href="#SVGID_167_"  style="overflow:visible;fill:#111111;"/>
						<clipPath id="SVGID_38_">
							<use xlink:href="#SVGID_167_"  style="overflow:visible;"/>
						</clipPath>
						<g id="XMLID_106_" style="clip-path:url(#SVGID_38_);enable-background:new    ;">
							<path id="XMLID_107_" style="fill:#111111;" d="M334.006,179.75l-0.173,6.11c-0.534,4.432-1.076,8.864-1.609,13.296
								l0.173-6.11C332.93,188.614,333.472,184.182,334.006,179.75"/>
						</g>
					</g>
					<g id="XMLID_102_" style="enable-background:new    ;">
						<defs>
							<path id="SVGID_169_" style="enable-background:new    ;" d="M332.397,193.046l-0.173,6.11
								c-4.731-0.565-9.462-1.096-14.201-1.603l0.173-6.11C322.935,191.95,327.666,192.482,332.397,193.046z"/>
						</defs>
						<use xlink:href="#SVGID_169_"  style="overflow:visible;fill:#111111;"/>
						<clipPath id="SVGID_39_">
							<use xlink:href="#SVGID_169_"  style="overflow:visible;"/>
						</clipPath>
						<g id="XMLID_103_" style="clip-path:url(#SVGID_39_);enable-background:new    ;">
							<path id="XMLID_104_" style="fill:#111111;" d="M332.397,193.046l-0.173,6.11c-4.731-0.565-9.462-1.096-14.201-1.603
								l0.173-6.11C322.935,191.95,327.666,192.482,332.397,193.046"/>
						</g>
					</g>
					<g id="XMLID_99_" style="enable-background:new    ;">
						<defs>
							<path id="SVGID_171_" style="enable-background:new    ;" d="M314.135,229.17l-0.173,6.11
								c-4.53-0.49-9.051-0.938-13.58-1.361l0.173-6.11C305.084,228.232,309.605,228.68,314.135,229.17z"/>
						</defs>
						<use xlink:href="#SVGID_171_"  style="overflow:visible;fill:#111111;"/>
						<clipPath id="SVGID_40_">
							<use xlink:href="#SVGID_171_"  style="overflow:visible;"/>
						</clipPath>
						<g id="XMLID_100_" style="clip-path:url(#SVGID_40_);enable-background:new    ;">
							<path id="XMLID_101_" style="fill:#111111;" d="M314.135,229.17l-0.173,6.11c-4.53-0.49-9.051-0.938-13.58-1.361l0.173-6.11
								C305.084,228.232,309.605,228.68,314.135,229.17"/>
						</g>
					</g>
					<g id="XMLID_93_" style="enable-background:new    ;">
						<defs>
							<path id="SVGID_173_" style="enable-background:new    ;" d="M361.412,198.893l-0.173,6.11
								c0.055-1.936-1.46-3.719-3.523-4.009c-0.195-0.028-0.39-0.042-0.582-0.043c-1.971-0.003-3.682,1.427-3.952,3.337
								c-0.02,0.139-0.031,0.277-0.035,0.415l0.173-6.11c0.004-0.137,0.015-0.276,0.035-0.415c0.27-1.91,1.981-3.34,3.952-3.337
								c0.192,0,0.386,0.014,0.582,0.043C359.952,195.174,361.467,196.956,361.412,198.893z"/>
						</defs>
						<use xlink:href="#SVGID_173_"  style="overflow:visible;fill:#111111;"/>
						<clipPath id="SVGID_41_">
							<use xlink:href="#SVGID_173_"  style="overflow:visible;"/>
						</clipPath>
						<g id="XMLID_94_" style="clip-path:url(#SVGID_41_);enable-background:new    ;">
							<path id="XMLID_98_" style="fill:#111111;" d="M361.412,198.893l-0.173,6.11c0.055-1.936-1.46-3.719-3.523-4.009
								c-0.195-0.028-0.39-0.042-0.582-0.043c-1.363-0.002-2.601,0.681-3.325,1.734l0.173-6.11c0.724-1.053,1.962-1.736,3.325-1.734
								c0.192,0,0.386,0.014,0.582,0.043C359.952,195.174,361.467,196.956,361.412,198.893"/>
							<path id="XMLID_97_" style="fill:#111111;" d="M353.982,196.575l-0.173,6.11c-0.159,0.232-0.294,0.482-0.399,0.746
								l0.173-6.11C353.689,197.056,353.823,196.806,353.982,196.575"/>
							<path id="XMLID_96_" style="fill:#111111;" d="M353.583,197.321l-0.173,6.11c-0.093,0.233-0.163,0.476-0.208,0.729
								l0.173-6.11C353.421,197.797,353.491,197.553,353.583,197.321"/>
							<path id="XMLID_95_" style="fill:#111111;" d="M353.376,198.05l-0.173,6.11c-0.008,0.043-0.014,0.085-0.02,0.128
								c-0.02,0.139-0.031,0.277-0.035,0.415l0.173-6.11c0.004-0.137,0.015-0.276,0.035-0.415
								C353.361,198.135,353.368,198.092,353.376,198.05"/>
						</g>
					</g>
					<g id="XMLID_90_" style="enable-background:new    ;">
						<defs>
							<path id="SVGID_175_" style="enable-background:new    ;" d="M373.904,199.209l-0.173,6.11
								c-0.019,0.663-0.082,1.331-0.192,2.004l0.173-6.11C373.822,200.541,373.885,199.872,373.904,199.209z"/>
						</defs>
						<use xlink:href="#SVGID_175_"  style="overflow:visible;fill:#111111;"/>
						<clipPath id="SVGID_42_">
							<use xlink:href="#SVGID_175_"  style="overflow:visible;"/>
						</clipPath>
						<g id="XMLID_91_" style="clip-path:url(#SVGID_42_);enable-background:new    ;">
							<path id="XMLID_92_" style="fill:#111111;" d="M373.904,199.209l-0.173,6.11c-0.019,0.663-0.082,1.331-0.192,2.004
								l0.173-6.11C373.822,200.541,373.885,199.872,373.904,199.209"/>
						</g>
					</g>
					<g id="XMLID_87_" style="enable-background:new    ;">
						<defs>
							<path id="SVGID_177_" style="enable-background:new    ;" d="M373.712,201.213l-0.173,6.11
								c-4.11-0.655-8.22-1.286-12.338-1.891l0.173-6.11C365.492,199.927,369.602,200.558,373.712,201.213z"/>
						</defs>
						<use xlink:href="#SVGID_177_"  style="overflow:visible;fill:#111111;"/>
						<clipPath id="SVGID_43_">
							<use xlink:href="#SVGID_177_"  style="overflow:visible;"/>
						</clipPath>
						<g id="XMLID_88_" style="clip-path:url(#SVGID_43_);enable-background:new    ;">
							<path id="XMLID_89_" style="fill:#111111;" d="M373.712,201.213l-0.173,6.11c-4.11-0.655-8.22-1.286-12.338-1.891l0.173-6.11
								C365.492,199.927,369.602,200.558,373.712,201.213"/>
						</g>
					</g>
					<g id="XMLID_84_" style="enable-background:new    ;">
						<defs>
							<path id="SVGID_179_" style="enable-background:new    ;" d="M350.396,224.159l0.173-6.11
								c0.004-0.148,0.017-0.297,0.038-0.447l-0.173,6.11C350.413,223.862,350.4,224.011,350.396,224.159z"/>
						</defs>
						<use xlink:href="#SVGID_179_"  style="overflow:visible;fill:#111111;"/>
						<clipPath id="SVGID_44_">
							<use xlink:href="#SVGID_179_"  style="overflow:visible;"/>
						</clipPath>
						<g id="XMLID_85_" style="clip-path:url(#SVGID_44_);enable-background:new    ;">
							<path id="XMLID_86_" style="fill:#111111;" d="M350.607,217.602l-0.173,6.11c-0.021,0.15-0.034,0.299-0.038,0.447l0.173-6.11
								C350.573,217.901,350.586,217.752,350.607,217.602"/>
						</g>
					</g>
					<g id="XMLID_81_" style="enable-background:new    ;">
						<defs>
							<path id="SVGID_181_" style="enable-background:new    ;" d="M358.513,218.368l-0.173,6.11
								c0.055-1.934-1.435-3.713-3.456-4.003c-8.393-1.202-14.421-8.183-14.193-16.231l0.173-6.11
								c-0.228,8.048,5.8,15.028,14.193,16.231C357.078,214.655,358.568,216.434,358.513,218.368z"/>
						</defs>
						<use xlink:href="#SVGID_181_"  style="overflow:visible;fill:#111111;"/>
						<clipPath id="SVGID_45_">
							<use xlink:href="#SVGID_181_"  style="overflow:visible;"/>
						</clipPath>
						<g id="XMLID_82_" style="clip-path:url(#SVGID_45_);enable-background:new    ;">
							<path id="XMLID_83_" style="fill:#111111;" d="M358.513,218.368l-0.173,6.11c0.055-1.934-1.435-3.713-3.456-4.003
								c-8.393-1.202-14.421-8.183-14.193-16.231l0.173-6.11c-0.228,8.048,5.8,15.028,14.193,16.231
								C357.078,214.655,358.568,216.434,358.513,218.368"/>
						</g>
					</g>
					<g id="XMLID_75_" style="enable-background:new    ;">
						<defs>
							<path id="SVGID_183_" style="enable-background:new    ;" d="M370.763,218.661l-0.173,6.11
								c-0.02,0.701-0.087,1.41-0.202,2.124c-1.29,7.853-8.152,13.32-15.968,13.307c-0.782-0.001-1.573-0.057-2.369-0.171
								c-8.224-1.184-14.182-8.068-13.949-16.303l0.173-6.11c-0.233,8.236,5.725,15.12,13.949,16.303
								c0.796,0.114,1.587,0.17,2.369,0.171c7.816,0.013,14.678-5.454,15.968-13.307
								C370.676,220.072,370.743,219.363,370.763,218.661z"/>
						</defs>
						<use xlink:href="#SVGID_183_"  style="overflow:visible;fill:#111111;"/>
						<clipPath id="SVGID_46_">
							<use xlink:href="#SVGID_183_"  style="overflow:visible;"/>
						</clipPath>
						<g id="XMLID_76_" style="clip-path:url(#SVGID_46_);enable-background:new    ;">
							<path id="XMLID_80_" style="fill:#111111;" d="M370.763,218.661l-0.173,6.11c-0.02,0.701-0.087,1.41-0.202,2.124
								c-0.013,0.077-0.026,0.153-0.039,0.229l0.173-6.11c0.014-0.076,0.027-0.153,0.039-0.229
								C370.676,220.072,370.743,219.363,370.763,218.661"/>
							<path id="XMLID_79_" style="fill:#111111;" d="M370.521,221.015l-0.173,6.11c-0.191,1.067-0.486,2.089-0.872,3.058
								l0.173-6.11C370.036,223.104,370.33,222.082,370.521,221.015"/>
							<path id="XMLID_78_" style="fill:#111111;" d="M369.65,224.073l-0.173,6.11c-0.434,1.089-0.983,2.11-1.63,3.053l0.173-6.11
								C368.667,226.183,369.216,225.162,369.65,224.073"/>
							<path id="XMLID_77_" style="fill:#111111;" d="M368.019,227.126l-0.173,6.11c-2.952,4.299-7.956,6.975-13.426,6.966
								c-0.782-0.001-1.573-0.057-2.369-0.171c-8.224-1.184-14.182-8.068-13.949-16.303l0.173-6.11
								c-0.233,8.236,5.725,15.12,13.949,16.303c0.796,0.114,1.587,0.17,2.369,0.171
								C360.064,234.102,365.067,231.426,368.019,227.126"/>
						</g>
					</g>
				</g>
			</g>
			<g id="XMLID_34_">
				<g id="XMLID_69_">
					<path id="XMLID_70_" style="fill:#FFFFFF;" d="M126.172,132.641c1.267,14.107-9.216,26.574-23.346,28.406
						c-6.377,0.83-12.737,1.734-19.088,2.722c-2.674-16.887-5.347-33.766-8.03-50.653c6.788-1.054,13.593-2.024,20.397-2.903
						c1.286-0.167,2.562-0.247,3.817-0.245C113.594,109.988,125.011,119.743,126.172,132.641z M101.155,147.887
						c6.838-0.879,11.82-6.934,11.072-13.597c-0.677-6.035-6.115-10.563-12.48-10.574c-0.583-0.001-1.174,0.036-1.77,0.113
						c-1.997,0.255-3.994,0.518-5.991,0.797c1.123,8.011,2.247,16.022,3.362,24.041C97.287,148.397,99.217,148.142,101.155,147.887"
						/>
				</g>
				<g id="XMLID_65_">
					<path id="XMLID_66_" style="fill:#FFFFFF;" d="M172.073,136.707c3.986,6.061,7.872,12.155,11.674,18.274
						c-5.227,0.108-10.462,0.274-15.688,0.49c-2.872-4.412-5.787-8.817-8.752-13.204c-2.861,0.153-5.722,0.315-8.583,0.502
						c0.297,4.525,0.594,9.05,0.891,13.574c-4.539,0.292-9.069,0.618-13.6,0.993c-1.432-17.035-2.856-34.062-4.288-51.097
						c7.769-0.636,15.546-1.156,23.323-1.568c0.402-0.022,0.802-0.032,1.199-0.031c10.737,0.017,19.497,8.053,19.737,18.071
						C178.139,128.175,175.768,133.162,172.073,136.707z M158.682,130.664c4.279-0.226,7.563-3.572,7.391-7.673
						c-0.166-3.957-3.558-7.012-7.73-7.019c-0.152,0-0.304,0.004-0.458,0.011c-2.962,0.162-5.923,0.331-8.876,0.518
						c0.313,4.891,0.635,9.781,0.956,14.672C152.868,130.988,155.771,130.818,158.682,130.664"/>
				</g>
				<g id="XMLID_61_">
					<path id="XMLID_62_" style="fill:#FFFFFF;" d="M214.861,103.683c15.394,0.282,27.183,12.544,26.337,26.664
						c-0.838,13.978-12.807,24.626-26.839,24.603c-0.151,0-0.302-0.002-0.454-0.004c-14.228-0.281-25.96-11.452-26.279-25.608
						c-0.324-13.982,11.567-25.683,26.725-25.66C214.522,103.678,214.69,103.68,214.861,103.683z M227.189,129.66
						c0.259-6.761-5.363-12.442-12.578-12.578c-0.08-0.002-0.16-0.002-0.239-0.002c-7.038-0.011-12.736,5.413-12.727,12.099
						c0.009,6.703,5.632,12.235,12.511,12.37c0.074,0.001,0.149,0.002,0.223,0.002C221.226,141.561,226.932,136.283,227.189,129.66"
						/>
				</g>
				<g id="XMLID_59_">
					<path id="XMLID_60_" style="fill:#FFFFFF;" d="M252.61,105.274c4.849,0.324,9.697,0.681,14.537,1.088
						c-1.445,17.03-2.891,34.061-4.328,51.091c-4.53-0.382-9.068-0.721-13.598-1.02C250.348,139.377,251.483,122.33,252.61,105.274z
						"/>
				</g>
				<g id="XMLID_55_">
					<path id="XMLID_56_" style="fill:#FFFFFF;" d="M298.737,109.639c15.308,1.879,25.788,15.244,23.448,29.188
						c-2.156,12.873-13.649,21.91-26.507,21.889c-1.094-0.002-2.198-0.069-3.307-0.205c-6.375-0.784-12.758-1.493-19.142-2.118
						c1.68-17.005,3.361-34.01,5.049-51.023C285.106,108.037,291.926,108.797,298.737,109.639z M308.244,136.959
						c0.955-6.569-4.046-12.806-11.142-13.682c-1.996-0.244-4.001-0.48-5.997-0.717c-0.949,8.032-1.889,16.073-2.829,24.106
						c1.938,0.219,3.875,0.455,5.804,0.691c0.538,0.067,1.075,0.1,1.605,0.101C301.892,147.468,307.356,143.064,308.244,136.959"/>
				</g>
				<g id="XMLID_53_">
					<path id="XMLID_54_" style="fill:#FFFFFF;" d="M138.203,173.731c0.996,17.059,2,34.118,2.995,51.186
						c-1.863,0.105-3.733,0.219-5.596,0.332c-8.666-7.565-17.516-15.023-26.551-22.373c0.704,8.06,1.416,16.12,2.12,24.18
						c-4.531,0.384-9.061,0.801-13.583,1.251c-1.709-17.01-3.426-34.013-5.135-51.023c1.93-0.188,3.851-0.376,5.781-0.556
						c9.329,7.234,18.465,14.584,27.424,22.05c-0.578-8.052-1.148-16.095-1.726-24.138
						C128.689,174.307,133.446,173.998,138.203,173.731z"/>
				</g>
				<g id="XMLID_51_">
					<path id="XMLID_52_" style="fill:#FFFFFF;" d="M82.838,178.275c-7.384,8.654-14.583,17.375-21.598,26.171
						c10.771,7.96,21.298,16.069,31.591,24.336c-6.376,0.655-12.761,1.377-19.13,2.148c-6.873-5.275-13.839-10.485-20.913-15.619
						c-0.933,1.238-1.874,2.475-2.806,3.713c0.716,4.916,1.423,9.833,2.139,14.749c-4.506,0.642-9.011,1.308-13.509,2.008
						c-2.682-16.879-5.356-33.766-8.038-50.645c4.724-0.741,9.448-1.44,14.18-2.115c0.824,5.707,1.656,11.413,2.489,17.12
						c5.125-6.554,10.35-13.066,15.676-19.552C69.548,179.759,76.193,178.988,82.838,178.275z"/>
				</g>
				<g id="XMLID_49_">
					<path id="XMLID_50_" style="fill:#FFFFFF;" d="M163.363,172.582c0.601,17.075,1.211,34.159,1.813,51.234
						c-4.539,0.159-9.077,0.343-13.616,0.56c-0.828-17.076-1.656-34.143-2.484-51.21
						C153.833,172.941,158.598,172.741,163.363,172.582z"/>
				</g>
				<g id="XMLID_47_">
					<path id="XMLID_48_" style="fill:#FFFFFF;" d="M200.653,171.927c7.532,0.012,14.236,2.953,19.035,7.599
						c-3.393,3.088-6.752,6.193-10.086,9.315c-2.264-2.068-5.255-3.443-8.897-3.449c-6.786,0.006-12.673,5.211-12.564,12.247
						c0.109,7.033,6.107,12.077,12.53,12.088c4.168-0.002,8.02-1.958,10.23-5.015c-2.548-0.023-5.101-0.036-7.652-0.04
						c-0.85-0.001-1.7-0.002-2.549-0.001c-0.005-3.011-0.01-6.013-0.015-9.024c0.958-0.001,1.917-0.001,2.875,0.001
						c7.916,0.013,15.826,0.117,23.744,0.3c-0.018,0.64-0.027,1.272-0.044,1.913c-0.394,14.154-12.285,25.313-26.538,25.332
						c-14.289-0.023-26.103-11.157-26.54-25.284C173.753,183.768,185.561,171.936,200.653,171.927z"/>
				</g>
				<g id="XMLID_40_">
					<path id="XMLID_41_" style="fill:#FFFFFF;" d="M235.694,172.449c4.765,0.141,9.53,0.315,14.286,0.522
						c-0.267,6.079-0.526,12.158-0.793,18.237c5.654,0.242,11.308,0.534,16.962,0.867c0.359-6.071,0.727-12.141,1.086-18.22
						c4.756,0.282,9.513,0.597,14.269,0.938c-1.236,17.047-2.472,34.086-3.716,51.134c-4.53-0.323-9.068-0.622-13.598-0.887
						c0.385-6.511,0.77-13.014,1.163-19.518c-5.587-0.333-11.174-0.617-16.76-0.859c-0.284,6.512-0.568,13.023-0.853,19.526
						c-4.538-0.19-9.077-0.364-13.615-0.504C234.648,206.612,235.171,189.531,235.694,172.449z"/>
				</g>
				<g id="XMLID_38_">
					<path id="XMLID_39_" style="fill:#FFFFFF;" d="M291.285,175.465c14.26,1.154,28.503,2.582,42.721,4.285
						c-0.534,4.432-1.076,8.864-1.609,13.296c-4.731-0.565-9.462-1.096-14.201-1.603c-1.357,12.573-2.705,25.145-4.061,37.727
						c-4.53-0.49-9.051-0.938-13.58-1.361c1.197-12.59,2.386-25.179,3.575-37.769c-4.639-0.44-9.286-0.838-13.933-1.22
						C290.562,184.371,290.919,179.923,291.285,175.465z"/>
				</g>
				<g id="XMLID_35_">
					<path id="XMLID_37_" style="fill:#FFFFFF;" d="M357.089,182.996c0.822,0.001,1.656,0.06,2.499,0.181
						c9.243,1.321,15.534,9.398,14.124,18.037c-4.11-0.655-8.22-1.286-12.338-1.891c0.313-2.095-1.27-4.127-3.485-4.438
						c-0.195-0.028-0.39-0.042-0.582-0.043c-1.971-0.003-3.682,1.427-3.952,3.337c-0.296,2.095,1.237,4.036,3.426,4.347
						c5.167,0.74,9.475,3.816,11.845,7.92c1.825,3.055,2.534,6.632,1.935,10.341c-1.29,7.853-8.152,13.32-15.968,13.307
						c-0.782-0.001-1.573-0.057-2.369-0.171c-8.765-1.262-14.956-8.998-13.822-17.945c4.068,0.514,8.136,1.061,12.204,1.625
						c-0.305,2.17,1.195,4.102,3.342,4.413c0.193,0.027,0.385,0.04,0.575,0.041c1.935,0.003,3.666-1.344,3.951-3.252
						c0.313-2.095-1.245-4.127-3.418-4.438c-8.925-1.278-15.174-9.09-14.074-17.77C341.983,188.705,348.898,182.982,357.089,182.996
						z"/>
				</g>
			</g>
		</g>
		<g id="XMLID_21_">
			<g id="XMLID_239_">
				<path id="XMLID_240_" style="fill:#FFFFFF;" d="M187.712,128.614l53.492,1.53c0.293-10.233-5.201-19.287-13.515-24.026
					l6.76-8.211c0.246-0.298,0.203-0.739-0.095-0.985c-0.298-0.245-0.739-0.203-0.985,0.096l-6.938,8.428
					c-3.382-1.695-7.177-2.697-11.208-2.812c-4.03-0.115-7.877,0.669-11.35,2.167l-6.445-8.811
					c-0.228-0.312-0.666-0.379-0.978-0.152c-0.312,0.228-0.38,0.666-0.152,0.978l6.28,8.584
					C194.007,109.656,188.004,118.381,187.712,128.614z M225.8,115.043c1.574,0.045,2.813,1.357,2.768,2.931
					s-1.357,2.813-2.931,2.768c-1.574-0.045-2.813-1.357-2.768-2.931S224.227,114.998,225.8,115.043z M203.953,114.418
					c1.574,0.045,2.813,1.357,2.768,2.931s-1.357,2.813-2.931,2.768c-1.574-0.045-2.813-1.357-2.768-2.931
					S202.379,114.373,203.953,114.418z"/>
			</g>
		</g>
		<g id="XMLID_10_">
			
				<image style="overflow:visible;opacity:0.6;" width="104" height="104" id="XMLID_42_" xlink:href="CA30C65D8456ABCC.png"  transform="matrix(0.24 0 0 0.24 191.369 104.6843)">
			</image>
			<g id="XMLID_22_">
				<circle id="XMLID_36_" style="fill:#36363A;" cx="203.772" cy="117.087" r="2.729"/>
			</g>
		</g>
		<g id="XMLID_5_">
			
				<image style="overflow:visible;opacity:0.6;" width="104" height="104" id="XMLID_29_" xlink:href="CA30C65D8456ABCB.png"  transform="matrix(0.24 0 0 0.24 212.7009 104.8274)">
			</image>
			<g id="XMLID_20_">
				<circle id="XMLID_28_" style="fill:#36363A;" cx="225.104" cy="117.23" r="2.729"/>
			</g>
		</g>
	</g>
	<g id="XMLID_1_">
		<path id="XMLID_6_" style="fill:#00DEAB;" d="M145.942,64.996l-1.095-6.275c3.594-1.067,7.118-1.601,10.571-1.601
			c1.628,0,3.109,0.092,4.443,0.274c1.333,0.183,2.478,0.562,3.433,1.137c0.954,0.576,1.691,1.411,2.211,2.506
			c0.52,1.095,0.779,2.569,0.779,4.422c0,1.376-0.168,2.548-0.505,3.517c-0.337,0.968-0.955,1.846-1.853,2.632
			c-0.899,0.787-2.148,1.531-3.749,2.232c-1.6,0.702-3.664,1.474-6.191,2.316v1.179h11.876v6.738h-21.605v-5.265
			c0-0.786,0.049-1.509,0.147-2.169c0.098-0.659,0.28-1.284,0.547-1.874c0.267-0.589,0.632-1.158,1.095-1.706
			c0.463-0.547,1.045-1.116,1.748-1.706c0.393-0.337,0.849-0.66,1.369-0.969c0.52-0.309,1.081-0.611,1.685-0.905
			c0.604-0.295,1.222-0.583,1.853-0.864c0.632-0.28,1.228-0.547,1.79-0.8c0.562-0.253,1.067-0.484,1.516-0.695
			c0.449-0.21,0.856-0.4,1.222-0.568v-2.274c-0.646-0.056-1.257-0.105-1.832-0.147c-0.576-0.042-1.131-0.063-1.664-0.063
			C151.094,64.069,148.497,64.378,145.942,64.996z"/>
		<path id="XMLID_8_" style="fill:#00DEAB;" d="M169.442,70.892c0-2.162,0.133-4.092,0.4-5.791c0.267-1.698,0.807-3.138,1.621-4.317
			s1.958-2.084,3.433-2.716s3.418-0.948,5.833-0.948c2.443,0,4.401,0.316,5.875,0.948s2.611,1.537,3.412,2.716
			c0.8,1.179,1.327,2.626,1.579,4.338c0.253,1.713,0.379,3.65,0.379,5.812c0,2.134-0.133,4.058-0.4,5.77
			c-0.267,1.713-0.8,3.159-1.601,4.338c-0.8,1.179-1.937,2.084-3.411,2.716s-3.418,0.948-5.833,0.948
			c-2.415,0-4.359-0.316-5.833-0.948s-2.618-1.544-3.433-2.737s-1.354-2.646-1.621-4.359
			C169.575,74.949,169.442,73.026,169.442,70.892z M178.118,66.132v11.792h1.769c1.264,0,2.148-0.133,2.653-0.4
			c0.505-0.267,0.758-0.877,0.758-1.832V63.9h-1.979c-1.236,0-2.079,0.126-2.527,0.379C178.342,64.532,178.118,65.15,178.118,66.132
			z"/>
		<path id="XMLID_12_" style="fill:#00DEAB;" d="M196.479,64.996l-1.095-6.275c3.593-1.067,7.119-1.601,10.572-1.601
			c1.627,0,3.109,0.092,4.443,0.274c1.332,0.183,2.477,0.562,3.432,1.137c0.955,0.576,1.691,1.411,2.211,2.506
			c0.52,1.095,0.779,2.569,0.779,4.422c0,1.376-0.168,2.548-0.506,3.517c-0.336,0.968-0.955,1.846-1.854,2.632
			c-0.898,0.787-2.146,1.531-3.748,2.232c-1.6,0.702-3.664,1.474-6.189,2.316v1.179h11.875v6.738h-21.604v-5.265
			c0-0.786,0.049-1.509,0.147-2.169c0.098-0.659,0.28-1.284,0.547-1.874c0.267-0.589,0.632-1.158,1.095-1.706
			c0.463-0.547,1.045-1.116,1.748-1.706c0.393-0.337,0.849-0.66,1.37-0.969c0.518-0.309,1.08-0.611,1.684-0.905
			c0.604-0.295,1.221-0.583,1.854-0.864c0.631-0.28,1.229-0.547,1.789-0.8c0.562-0.253,1.066-0.484,1.518-0.695
			c0.447-0.21,0.855-0.4,1.221-0.568v-2.274c-0.646-0.056-1.258-0.105-1.832-0.147c-0.576-0.042-1.131-0.063-1.664-0.063
			C201.632,64.069,199.034,64.378,196.479,64.996z"/>
		<path id="XMLID_14_" style="fill:#00DEAB;" d="M219.979,70.892c0-2.162,0.133-4.092,0.4-5.791
			c0.267-1.698,0.807-3.138,1.621-4.317s1.959-2.084,3.433-2.716s3.418-0.948,5.833-0.948c2.442,0,4.401,0.316,5.875,0.948
			c1.475,0.632,2.611,1.537,3.411,2.716c0.801,1.179,1.327,2.626,1.58,4.338c0.252,1.713,0.379,3.65,0.379,5.812
			c0,2.134-0.134,4.058-0.4,5.77c-0.268,1.713-0.8,3.159-1.601,4.338c-0.8,1.179-1.938,2.084-3.411,2.716s-3.419,0.948-5.833,0.948
			c-2.415,0-4.359-0.316-5.833-0.948s-2.618-1.544-3.433-2.737s-1.354-2.646-1.621-4.359
			C220.112,74.949,219.979,73.026,219.979,70.892z M228.655,66.132v11.792h1.769c1.264,0,2.148-0.133,2.653-0.4
			c0.506-0.267,0.759-0.877,0.759-1.832V63.9h-1.979c-1.236,0-2.078,0.126-2.527,0.379C228.88,64.532,228.655,65.15,228.655,66.132z
			"/>
	</g>
</g>
</svg>
