<?xml version="1.0" encoding="iso-8859-1"?>
<!-- Generator: Adobe Illustrator 19.0.0, SVG Export Plug-In . SVG Version: 6.00 Build 0)  -->
<svg version="1.1" id="Layer_1" xmlns="http://www.w3.org/2000/svg" xmlns:xlink="http://www.w3.org/1999/xlink" x="0px" y="0px"
	 viewBox="0 0 400 300" style="enable-background:new 0 0 400 300;" xml:space="preserve">
<g>
	<g>
		<path id="XMLID_35_" style="fill:#0D926F;" d="M203.821,154.17L203.821,154.17c-0.395-1.195,0.26-2.497,1.455-2.892l43.368-14.333
			c1.195-0.395,2.497,0.26,2.892,1.455v0c0.395,1.195-0.26,2.497-1.455,2.892l-43.368,14.333
			C205.518,156.021,204.216,155.366,203.821,154.17z"/>
		
			<linearGradient id="XMLID_25_" gradientUnits="userSpaceOnUse" x1="-463.4816" y1="-697.5316" x2="-515.5249" y2="-659.4009" gradientTransform="matrix(0.9495 -0.3138 0.3138 0.9495 900.4926 644.2701)">
			<stop  offset="0" style="stop-color:#00BD82"/>
			<stop  offset="0.3007" style="stop-color:#00C187;stop-opacity:0.6993"/>
			<stop  offset="0.6393" style="stop-color:#00CC94;stop-opacity:0.3607"/>
			<stop  offset="0.9953" style="stop-color:#00DEAB;stop-opacity:0.0047"/>
			<stop  offset="1" style="stop-color:#00DEAB;stop-opacity:0"/>
		</linearGradient>
		<path id="XMLID_34_" style="fill:url(#XMLID_25_);" d="M246.911,182.357c-21.054,6.958-43.762-4.469-50.72-25.523
			c-6.958-21.054,4.469-43.762,25.523-50.72"/>
		<g>
			<circle id="XMLID_33_" style="opacity:0.17;fill:#00DEAB;" cx="36.889" cy="193.769" r="12.376"/>
			<circle id="XMLID_32_" style="opacity:0.17;fill:#00DEAB;" cx="36.889" cy="193.769" r="16.005"/>
			<path id="XMLID_31_" style="fill:#19191C;" d="M36.889,193.769L36.889,193.769c-0.395-1.195,0.26-2.497,1.455-2.892l29.529-9.768
				c1.195-0.395,2.497,0.26,2.892,1.455l0,0c0.395,1.195-0.26,2.497-1.455,2.892l-29.529,9.768
				C38.585,195.619,37.284,194.965,36.889,193.769z"/>
			<g>
				<circle id="XMLID_30_" style="fill:#00DEAB;" cx="36.889" cy="193.769" r="7.857"/>
				<path id="XMLID_29_" style="fill:#FFFFFF;" d="M40.137,192.739c0.138-0.092,0.275-0.189,0.41-0.291
					c-0.169-0.001-0.337,0.003-0.503,0.011c-1.663,0.084-3.216-0.698-4.139-2.083c-0.092-0.138-0.189-0.275-0.291-0.41
					c-0.001,0.169,0.003,0.337,0.011,0.503c0.084,1.66-0.696,3.213-2.078,4.136c-0.14,0.093-0.278,0.192-0.415,0.295
					c0.171,0.001,0.34-0.002,0.508-0.011c1.659-0.082,3.209,0.698,4.131,2.079c0.093,0.14,0.191,0.277,0.294,0.414
					c0.001-0.171-0.002-0.34-0.011-0.508C37.972,195.213,38.754,193.661,40.137,192.739z"/>
			</g>
			<path id="XMLID_28_" style="fill:#19191C;" d="M105.479,211.964l22.726,14.171c1.541,0.961,2.466,2.658,2.439,4.473
				l-0.323,21.867c-0.136,9.23,4.821,17.786,12.897,22.258l11.168,6.185l0.871-59.036l16.839-5.565
				c6.299-2.082,9.717-8.875,7.636-15.174l-5.074-15.353L105.479,211.964z"/>
			<g>
				
					<linearGradient id="XMLID_36_" gradientUnits="userSpaceOnUse" x1="-592.9025" y1="-740.175" x2="-590.8611" y2="-712.8198" gradientTransform="matrix(0.9495 -0.3138 0.3138 0.9495 900.4926 644.2701)">
					<stop  offset="0" style="stop-color:#28282D"/>
					<stop  offset="1" style="stop-color:#000000"/>
				</linearGradient>
				<path id="XMLID_27_" style="fill:url(#XMLID_36_);" d="M69.058,147.521c-1.739,0.575-1.985,2.934-0.401,3.855L80.2,166.818
					l77.713-25.684l-2.241-2.998c-6.888-9.216-18.898-12.995-29.822-9.384L69.058,147.521z"/>
			</g>
			<g>
				<path id="XMLID_26_" style="fill:#28282D;" d="M173.997,131.732L59.158,169.685c-1.887,0.623-2.66,2.873-1.556,4.525
					l11.118,16.633c2.111,3.158,6.07,4.52,9.677,3.328l104.79-34.632L173.997,131.732z"/>
				<path id="XMLID_24_" style="fill:#28282D;" d="M80.275,193.55l10.162,15.203c4.713,7.051,13.552,10.09,21.604,7.429
					l88.999-29.413l-9.871-29.869L80.275,193.55z"/>
				
					<linearGradient id="XMLID_37_" gradientUnits="userSpaceOnUse" x1="-578.4752" y1="-654.5804" x2="-578.8858" y2="-680.8564" gradientTransform="matrix(0.9495 -0.3138 0.3138 0.9495 900.4926 644.2701)">
					<stop  offset="0" style="stop-color:#28282D"/>
					<stop  offset="1" style="stop-color:#000000"/>
				</linearGradient>
				<path id="XMLID_23_" style="fill:url(#XMLID_37_);" d="M80.275,193.55l10.162,15.203c4.713,7.051,13.552,10.09,21.604,7.429
					l88.999-29.413l-9.871-29.869L80.275,193.55z"/>
			</g>
			
				<rect id="XMLID_22_" x="182.145" y="127.153" transform="matrix(0.9495 -0.3138 0.3138 0.9495 -39.6957 68.4383)" style="fill:#00DEAB;" width="21.191" height="60.743"/>
			<g id="XMLID_21_" style="opacity:0.75;">
				
					<image style="overflow:visible;" width="464" height="569" id="XMLID_59_" xlink:href="9AAF43A3FB6407FB.png"  transform="matrix(0.24 0 0 0.24 137.1492 89.3625)">
				</image>
			</g>
			<path id="XMLID_19_" style="fill:#28282D;" d="M217.733,187.236L217.733,187.236c-2.463,0.814-5.145-0.535-5.959-2.998
				l-19.667-59.508c-0.814-2.463,0.535-5.145,2.998-5.959v0c2.463-0.814,5.145,0.535,5.959,2.998l19.667,59.508
				C221.546,183.741,220.197,186.422,217.733,187.236z"/>
			
				<linearGradient id="XMLID_38_" gradientUnits="userSpaceOnUse" x1="-515.9062" y1="-708.0332" x2="-516.3127" y2="-658.0455" gradientTransform="matrix(0.9495 -0.3138 0.3138 0.9495 900.4926 644.2701)">
				<stop  offset="0" style="stop-color:#00BD82"/>
				<stop  offset="0.3007" style="stop-color:#00C187;stop-opacity:0.6993"/>
				<stop  offset="0.6393" style="stop-color:#00CC94;stop-opacity:0.3607"/>
				<stop  offset="0.9953" style="stop-color:#00DEAB;stop-opacity:0.0047"/>
				<stop  offset="1" style="stop-color:#00DEAB;stop-opacity:0"/>
			</linearGradient>
			<polygon id="XMLID_18_" style="fill:url(#XMLID_38_);" points="206.585,184.936 203.964,185.802 184.903,128.128 
				187.524,127.261 			"/>
			
				<linearGradient id="XMLID_39_" gradientUnits="userSpaceOnUse" x1="-522.631" y1="-708.0879" x2="-523.0374" y2="-658.1001" gradientTransform="matrix(0.9495 -0.3138 0.3138 0.9495 900.4926 644.2701)">
				<stop  offset="0" style="stop-color:#00BD82"/>
				<stop  offset="0.3007" style="stop-color:#00C187;stop-opacity:0.6993"/>
				<stop  offset="0.6393" style="stop-color:#00CC94;stop-opacity:0.3607"/>
				<stop  offset="0.9953" style="stop-color:#00DEAB;stop-opacity:0.0047"/>
				<stop  offset="1" style="stop-color:#00DEAB;stop-opacity:0"/>
			</linearGradient>
			<polygon id="XMLID_17_" style="fill:url(#XMLID_39_);" points="200.2,187.046 197.578,187.913 178.517,130.238 181.139,129.372 
							"/>
			<g>
				<circle id="XMLID_16_" style="fill:#202021;" cx="123.241" cy="181.361" r="23.734"/>
				<circle id="XMLID_15_" style="fill:#38383D;" cx="122.018" cy="177.993" r="23.734"/>
				<circle id="XMLID_14_" style="fill:#28282D;" cx="122.018" cy="177.993" r="18.978"/>
				<g id="XMLID_10_">
					
						<image style="overflow:visible;opacity:0.6;" width="219" height="204" id="XMLID_88_" xlink:href="9AAF43A3FB6407F9.png"  transform="matrix(0.24 0 0 0.24 96.9371 152.0247)">
					</image>
					<g id="XMLID_69_">
						<path id="XMLID_84_" style="fill:#00DEAB;" d="M112.657,186.617l22.48-7.43c-1.421-4.301-5.072-7.238-9.244-7.955l1.574-4.435
							c0.057-0.161-0.027-0.338-0.188-0.395c-0.161-0.057-0.338,0.027-0.395,0.188l-1.615,4.552c-1.662-0.195-3.392-0.04-5.086,0.52
							c-1.694,0.56-3.176,1.466-4.394,2.613l-4.009-2.693c-0.142-0.095-0.334-0.057-0.43,0.084c-0.095,0.142-0.058,0.334,0.084,0.43
							l3.906,2.624C112.416,177.782,111.235,182.316,112.657,186.617z M126.453,175.228c0.661-0.219,1.375,0.14,1.593,0.802
							c0.219,0.661-0.14,1.375-0.802,1.593c-0.661,0.219-1.375-0.14-1.593-0.802S125.791,175.447,126.453,175.228z M117.271,178.263
							c0.661-0.219,1.375,0.14,1.593,0.802s-0.14,1.375-0.802,1.593c-0.661,0.219-1.375-0.14-1.593-0.802
							S116.61,178.481,117.271,178.263z"/>
					</g>
				</g>
			</g>
		</g>
		<path id="XMLID_9_" style="fill:none;stroke:#FFFFFF;stroke-width:4.8629;stroke-linecap:round;stroke-miterlimit:10;" d="
			M220.279,114.401c-2.563,0.97-4.931,2.229-7.081,3.727"/>
		<path id="XMLID_8_" style="fill:none;stroke:#FFFFFF;stroke-width:4.8629;stroke-linecap:round;stroke-miterlimit:10;" d="
			M207.217,123.525c0.655-0.76,1.347-1.491,2.074-2.19"/>
		<path id="XMLID_7_" style="fill:#FFFF00;" d="M265.9,114.711c0.29-0.193,0.577-0.396,0.86-0.609
			c-0.355-0.002-0.706,0.006-1.054,0.023c-3.486,0.176-6.744-1.464-8.68-4.368c-0.193-0.29-0.396-0.577-0.609-0.86
			c-0.002,0.355,0.006,0.706,0.023,1.054c0.176,3.482-1.459,6.737-4.358,8.672c-0.294,0.196-0.584,0.402-0.87,0.618
			c0.358,0.003,0.713-0.005,1.065-0.022c3.479-0.173,6.729,1.463,8.663,4.36c0.195,0.293,0.4,0.582,0.616,0.868
			c0.003-0.359-0.005-0.714-0.022-1.065C261.359,119.898,262.999,116.645,265.9,114.711z"/>
		<path id="XMLID_6_" style="fill:#FFFFFF;" d="M264.29,155.598c0.097-0.064,0.192-0.132,0.286-0.203
			c-0.118-0.001-0.235,0.002-0.351,0.008c-1.161,0.059-2.246-0.487-2.89-1.455c-0.064-0.097-0.132-0.192-0.203-0.286
			c-0.001,0.118,0.002,0.235,0.008,0.351c0.059,1.159-0.486,2.243-1.451,2.888c-0.098,0.065-0.194,0.134-0.29,0.206
			c0.119,0.001,0.238-0.002,0.355-0.007c1.158-0.058,2.241,0.487,2.885,1.452c0.065,0.097,0.133,0.194,0.205,0.289
			c0.001-0.119-0.002-0.238-0.007-0.355C262.778,157.325,263.324,156.242,264.29,155.598z"/>
		<path id="XMLID_5_" style="fill:#00DEAB;" d="M297.37,144.13c0.175-0.117,0.349-0.24,0.52-0.368
			c-0.215-0.001-0.427,0.003-0.637,0.014c-2.108,0.106-4.078-0.885-5.248-2.641c-0.117-0.175-0.24-0.349-0.368-0.52
			c-0.001,0.214,0.003,0.427,0.014,0.637c0.106,2.105-0.882,4.073-2.635,5.244c-0.177,0.118-0.353,0.243-0.526,0.374
			c0.217,0.002,0.431-0.003,0.644-0.013c2.103-0.104,4.069,0.885,5.238,2.636c0.118,0.177,0.242,0.352,0.373,0.525
			c0.002-0.217-0.003-0.431-0.014-0.644C294.624,147.267,295.616,145.3,297.37,144.13z"/>
		<path id="XMLID_4_" style="fill:#FFFF00;" d="M286.167,159.794c0.219-0.146,0.436-0.299,0.65-0.461
			c-0.268-0.002-0.534,0.004-0.797,0.018c-2.636,0.133-5.099-1.107-6.563-3.303c-0.146-0.219-0.299-0.436-0.461-0.651
			c-0.002,0.268,0.004,0.534,0.018,0.797c0.133,2.632-1.103,5.094-3.295,6.557c-0.222,0.148-0.441,0.304-0.658,0.467
			c0.271,0.002,0.539-0.003,0.805-0.017c2.63-0.131,5.088,1.106,6.55,3.297c0.148,0.221,0.303,0.44,0.466,0.656
			c0.002-0.271-0.004-0.54-0.017-0.806C282.734,163.716,283.974,161.257,286.167,159.794z"/>
		<circle id="XMLID_3_" style="fill:#00DEAB;" cx="252.575" cy="138.058" r="7.304"/>
	</g>
	<g id="XMLID_2_">
		
			<image style="overflow:visible;opacity:0.6;" width="598" height="589" id="XMLID_54_" xlink:href="9AAF43A3FB6407FF.png"  transform="matrix(0.24 0 0 0.24 254.3966 2.0564)">
		</image>
		<g id="XMLID_47_">
			<polygon id="XMLID_53_" style="fill:#00DEAB;" points="327.008,71.18 382.437,17.355 319.778,60.736 318.153,61.861 
				313.575,65.031 322.013,77.219 269.695,128.024 328.838,87.077 333.98,83.517 335.041,82.782 			"/>
		</g>
	</g>
	<polygon id="XMLID_1_" style="fill:#FFFF00;" points="336.02,110.323 369.894,97.466 334.851,104.482 333.942,104.664 
		331.382,105.177 332.746,111.993 300.773,124.128 333.85,117.506 336.726,116.93 337.319,116.812 	"/>
</g>
</svg>
