<svg xmlns="http://www.w3.org/2000/svg" viewBox="0 0 259.51 117.85"><defs><style>.cls-1{fill:none;stroke:#000;stroke-miterlimit:10;stroke-width:5px;}.cls-2{fill:#49ff06;}</style></defs><title>Asset 3</title><g id="Layer_2" data-name="Layer 2"><g id="Layer_5" data-name="Layer 5"><path class="cls-1" d="M36.59,49.71,30.77,9.81l1.48-.22c6.48-.95,9.65-1.37,16.13-2.16a24.7,24.7,0,0,1,18.23,5.08,18,18,0,0,1,6.88,12.57c.83,9.44-6.67,20.68-20.23,22.38-6.11.74-9.09,1.14-15.19,2ZM34.17,12.35l5,34c5.17-.75,8.15-1.14,13.77-1.83C64.68,43,71.21,33.4,70.5,25.34a15,15,0,0,0-5.78-10.5,21.66,21.66,0,0,0-16-4.43C42.8,11.14,39.66,11.55,34.17,12.35ZM46.05,38.64,43.41,18.15,44.9,18l4.75-.6a12.3,12.3,0,0,1,9.11,2.45,9.57,9.57,0,0,1,3.67,6.48c.6,5.62-4,10.82-10.28,11.58l-4.61.58Zm.72-17.9,1.87,14.54,3.14-.39c4.65-.57,8.09-4.28,7.66-8.29a6.6,6.6,0,0,0-2.56-4.45A9.29,9.29,0,0,0,50,20.34Z"/><path class="cls-1" d="M79.75,44.79,76.63,4.59l1.5-.12c7.4-.57,11-.81,18.43-1.18a18.28,18.28,0,0,1,13.36,4.63,14,14,0,0,1,4.66,9.93,14.51,14.51,0,0,1-4.26,10.43c3.28,4.62,5.09,7.23,8.49,12.25l1.55,2.28-2.76.06c-5,.11-7.47.18-12.48.38l-.82,0-.47-.67c-2.58-3.65-3.92-5.53-6.39-8.92l-4.5.25.6,9.88-1.5.09c-4.33.26-6.45.41-10.81.75Zm.1-37.44,2.66,34.22c3-.23,4.93-.36,7.87-.54l-.6-9.88,1.5-.09c2.73-.17,4.1-.24,6.83-.38l.81,0,.48.65c2.63,3.61,4,5.49,6.43,9,3.54-.14,5.82-.22,9-.29-2.69-3.94-4.47-6.49-7.66-11l-.79-1.1,1-.89a11.74,11.74,0,0,0,4.23-9,11.06,11.06,0,0,0-3.7-7.81A15.36,15.36,0,0,0,96.71,6.28C89.85,6.63,86.25,6.86,79.85,7.35Zm9.6,18.34L88.62,12l1.5-.09c2.81-.17,4.22-.25,7-.39a8.12,8.12,0,0,1,5.86,2,6.45,6.45,0,0,1,2.15,4.51c.16,3.8-3.06,6.94-7.32,7.16-2.76.14-4.13.22-6.89.38ZM91.8,14.82l.47,7.68,5.42-.29c2.6-.13,4.56-1.91,4.47-4A3.46,3.46,0,0,0,101,15.75a5.1,5.1,0,0,0-3.69-1.23Z"/><path class="cls-1" d="M142,42.82h-.43c-13.62-.22-22.22-10.6-22.38-20.09a18.09,18.09,0,0,1,5.55-13.3,24.57,24.57,0,0,1,34.79.6,18,18,0,0,1,5.11,13.44C164.21,32.84,155.43,42.82,142,42.82ZM141.85,5.5a21.49,21.49,0,0,0-15,6,15.15,15.15,0,0,0-4.68,11.13c.14,8.09,7.6,16.95,19.43,17.14h.31c9.19,0,19.24-6.56,19.73-16.5a15.12,15.12,0,0,0-4.31-11.25A21.6,21.6,0,0,0,142.19,5.5ZM142,33.07h-.21c-6.31-.1-11.43-4.81-11.43-10.49a9.73,9.73,0,0,1,3-6.94,12.59,12.59,0,0,1,17.47.29,9.7,9.7,0,0,1,2.77,7C153.38,28.57,148.2,33.07,142,33.07Zm-.09-17.81a9.2,9.2,0,0,0-6.44,2.52,6.75,6.75,0,0,0-2.11,4.8c0,4.06,3.8,7.42,8.47,7.49s8.64-3.16,8.77-7.21A6.73,6.73,0,0,0,148.62,18,9.3,9.3,0,0,0,142,15.25h-.16Z"/><path class="cls-1" d="M182,44.74l-1.5-.11c-4.34-.33-6.46-.48-10.81-.74l-1.5-.09,2.41-40.25,1.5.09c4.61.28,6.86.43,11.49.78l1.5.11ZM171.35,41c2.95.18,4.92.31,7.87.54L181.84,7.3c-3.18-.24-5.28-.38-8.45-.58Z"/><path class="cls-1" d="M206.9,47a26.4,26.4,0,0,1-2.91-.16c-6.12-.7-9.1-1-15.23-1.55l-1.49-.13L190.87,5l1.49.13c6.52.59,9.7.91,16.18,1.65A24.74,24.74,0,0,1,225.12,16a18,18,0,0,1,3.77,13.81C227.6,38.49,219,47,206.9,47Zm-16.38-4.56c5.19.47,8.18.78,13.8,1.42,11.81,1.3,20.41-6.52,21.59-14.52a15,15,0,0,0-3.17-11.54,21.68,21.68,0,0,0-14.53-8c-5.94-.68-9.09-1-14.61-1.5Zm16.07-5.1a12.9,12.9,0,0,1-1.46-.08l-4.61-.51L199,36.61l2.19-20.55,1.49.16,4.76.52a12.3,12.3,0,0,1,8.29,4.5,9.57,9.57,0,0,1,2.07,7.15C217.16,33.57,212.27,37.36,206.59,37.36Zm-4.26-3.41,3.14.35c4.66.53,8.86-2.29,9.38-6.28a6.6,6.6,0,0,0-1.45-4.92,9.29,9.29,0,0,0-6.27-3.37l-3.25-.36Z"/><path class="cls-1" d="M11.13,114.9,3,75.41l1.47-.3c4.15-.86,6.19-1.26,10.36-2.05l1.47-.28,2,10.41c3.05-4.23,5.16-7.05,8.89-11.93l.36-.47.58-.1c5.86-1,8.72-1.42,14.59-2.26l3.76-.54-2.38,3C38.12,78.21,35.16,82,29.88,89.2c7.59,5.13,15.1,10.51,22.35,16l2.88,2.19-3.59.49c-5.54.76-8.24,1.17-13.75,2.06l-.61.1-.5-.36c-5.76-4.11-8.81-6.21-14.35-9.88l-.73,1.06,2.18,11.52-1.47.28c-3.93.75-5.83,1.12-9.69,1.92ZM6.5,77.74l7,33.61c2.5-.52,4.24-.86,6.79-1.35l-1.86-9.8.35-.51,1.93-2.8.84-1.2,1.22.81c6.2,4.1,9.28,6.21,15.16,10.39,3.86-.62,6.35-1,9.62-1.47-6.72-5-13.64-9.92-20.61-14.6l-1.3-.87.93-1.26c5.11-6.95,8-10.78,12.78-16.75-3.45.51-6.08.93-10.18,1.61C24.9,79.09,22.77,82,18.62,87.77l-2,2.85L13.87,76.28C11.11,76.81,9.25,77.18,6.5,77.74Z"/><path class="cls-1" d="M53.46,107.63l-5.26-40,1.49-.2,4.24-.54.58-.07.48.35c7.4,5.35,11.4,8.35,17.75,13.35L71.29,65l1.49-.14c4.22-.4,6.27-.57,10.48-.89l1.5-.12L87.85,104l-1.5.11-4,.32-.62.05-.47-.4c-6.75-5.69-10.54-8.76-16.79-13.6l1.78,15.52-1.49.17c-3.95.45-5.86.69-9.77,1.2ZM51.57,70.24l4.47,34c2.54-.33,4.29-.55,6.85-.84L60.65,83.85,63.46,86c7.93,6.08,11.8,9.19,19.23,15.45l1.94-.16L82,67.07c-2.77.22-4.66.38-7.44.64l1.83,19.54-2.75-2.19C65.77,78.82,61.77,75.78,53.72,70Z"/><path class="cls-1" d="M92.32,103.73,89.75,63.5l1.5-.1c4.2-.27,6.26-.38,10.49-.58l1.5-.07,1.9,40.27-1.5.07c-4,.19-5.88.29-9.82.55Zm.61-37.43,2.19,34.25c2.55-.16,4.31-.26,6.87-.38l-1.62-34.28C97.59,66,95.71,66.13,92.93,66.3Z"/><path class="cls-1" d="M129.2,102.45a20.82,20.82,0,0,1-20.79-19.73,19.14,19.14,0,0,1,5.43-14,21.49,21.49,0,0,1,15.3-6.57h.14a21.52,21.52,0,0,1,14.85,6l1.16,1.12-1.19,1.08c-3,2.69-4.43,4-7.36,6.75l-1,.94-1-.93a8,8,0,0,0-5.49-2.11h0a7.88,7.88,0,0,0-5.58,2.33,7.06,7.06,0,0,0-2,5.1,7.58,7.58,0,0,0,7.64,7.29h0a8.09,8.09,0,0,0,3.23-.69h-4.73l0-9.57h1.5c7.82,0,11.64,0,19.45.25l1.5,0-.08,2.89a20.86,20.86,0,0,1-20.79,19.87Zm.08-37.32h-.12A18.47,18.47,0,0,0,116,70.77a16.16,16.16,0,0,0-4.59,11.83c.34,9.14,8.48,16.84,17.8,16.84h.06A18.08,18.08,0,0,0,147.05,82.6c-6.31-.17-10-.22-16.35-.21V86c2.08,0,3.51,0,5.94,0l2.9,0-1.7,2.35a10.79,10.79,0,0,1-8.62,4.28h0a10.58,10.58,0,0,1-10.63-10.23,10,10,0,0,1,2.88-7.26,10.9,10.9,0,0,1,7.72-3.23h0a11,11,0,0,1,6.42,2c2-1.82,3.28-3,5.2-4.77A18.57,18.57,0,0,0,129.28,65.13Z"/><path class="cls-1" d="M186.34,105l-1.49-.14c-3.94-.36-5.86-.52-9.8-.82l-1.5-.11,1.07-14.19c-3.45-.25-5.69-.4-9.15-.6l-.78,14.21-1.5-.08c-3.94-.22-5.87-.31-9.82-.46l-1.5-.06,1.53-40.29,1.5.06c4.23.16,6.29.26,10.5.49l1.5.08-.73,13.27c3.55.2,5.85.35,9.41.61l1-13.25,1.5.11c4.2.32,6.25.49,10.48.88l1.49.14Zm-9.58-3.84c2.55.2,4.31.34,6.86.57l3.15-34.17c-2.79-.25-4.67-.41-7.44-.62l-1,13.25-1.5-.11c-5-.37-7.39-.53-12.34-.8l-1.5-.08L163.73,66c-2.78-.15-4.67-.24-7.45-.35L155,99.92c2.56.1,4.32.18,6.88.32L162.63,86l1.5.08c4.92.27,7.31.42,12.21.79l1.5.11Z"/><path class="cls-1" d="M212.49,108.12l-1.49-.21c-3.91-.54-5.82-.79-9.77-1.26l-1.49-.18,3.31-27.42c-3.15-.38-5.12-.59-8.65-1l-1.49-.16,1.32-12.68,1.49.15c10.43,1.05,21,2.42,31.33,4.06l1.48.23-2,12.6-1.48-.23c-3.62-.56-5.63-.86-8.83-1.31Zm-9.4-4.27c2.56.31,4.31.54,6.84.88l3.77-27.36,1.49.21c3.63.5,5.64.79,8.88,1.29l1-6.68c-9.33-1.45-18.8-2.67-28.2-3.65l-.7,6.72c3.14.33,5.12.56,8.7,1l1.49.18Z"/><path class="cls-1" d="M240.95,112.59a14,14,0,0,1-2.57-.24,13.18,13.18,0,0,1-10.73-15.17l.25-1.48,1.48.25c3.58.6,5.32.9,8.85,1.54l.41.07A13.1,13.1,0,0,1,230,83.15a12.51,12.51,0,0,1,5.23-8.24,14.18,14.18,0,0,1,19.59,3.68,12.41,12.41,0,0,1,1.9,9.5l-.3,1.47-1.47-.3c-3.62-.75-5.37-1.1-8.93-1.78l-.57-.11a13.59,13.59,0,0,1,7.13,6.26,12.64,12.64,0,0,1,1.22,8.59A13,13,0,0,1,240.95,112.59ZM230.47,99.17a10.35,10.35,0,0,0,20.42,2.44A9.67,9.67,0,0,0,250,95a10.57,10.57,0,0,0-7.35-5.37,4.38,4.38,0,0,1-3.58-5,4.25,4.25,0,0,1,1.79-2.75,4.44,4.44,0,0,1,3.37-.71,4.59,4.59,0,0,1,2.93,1.91,4.35,4.35,0,0,1,.69,1.66c2.32.45,3.92.76,6.19,1.23a9.5,9.5,0,0,0-1.64-5.72,10.89,10.89,0,0,0-7.15-4.6,10.77,10.77,0,0,0-8.23,1.7,9.54,9.54,0,0,0-4,6.28,10.25,10.25,0,0,0,8.57,11.62,4.49,4.49,0,0,1,2.86,1.87,4.25,4.25,0,0,1,.69,3.21,4.37,4.37,0,0,1-5.13,3.39,4.32,4.32,0,0,1-3.52-3.53C234.22,99.82,232.67,99.54,230.47,99.17Zm9.2-1.27-.24,1.33a1.34,1.34,0,0,0,1.1,1.57,1.38,1.38,0,0,0,1.63-1,1.27,1.27,0,0,0-.22-1,1.46,1.46,0,0,0-.93-.61Q240.33,98.09,239.67,97.9Zm3.69-13.8a1.46,1.46,0,0,0-.83.26,1.27,1.27,0,0,0-.54.82,1.37,1.37,0,0,0,1.18,1.53,13.26,13.26,0,0,1,1.44.35l.26-1.34a1.24,1.24,0,0,0-.22-.93,1.57,1.57,0,0,0-1-.65Z"/><path d="M32.47,11.08c6.43-.94,9.65-1.37,16.1-2.16C59.28,7.62,71,14.11,72,25.21,72.94,35.88,63.54,44.66,53.08,46c-6.09.74-9.14,1.15-15.22,2ZM47.35,37,52,36.38c5.45-.66,9.49-5.09,9-9.94s-5.51-8.28-11.11-7.6l-4.74.59Z"/><path d="M105.08,41.76c-2.72-3.85-4.09-5.77-6.89-9.6-2.73.14-4.09.21-6.82.38l.6,9.88c-4.34.26-6.5.41-10.84.75L78.24,6c7.35-.57,11-.81,18.39-1.18,8.85-.45,16.25,5.54,16.45,13.1a13.19,13.19,0,0,1-4.73,10.2c3.76,5.29,5.61,7.94,9.23,13.28C112.58,41.48,110.08,41.56,105.08,41.76ZM90.86,24.1c2.76-.17,4.14-.24,6.91-.38,3.4-.17,6-2.62,5.9-5.6s-3-5.26-6.44-5.09c-2.81.14-4.21.22-7,.39Z"/><path d="M142.22,4c10.8.18,21.5,8.27,21,19.39-.53,10.69-11.06,18.09-21.56,17.92s-20.73-7.92-20.91-18.61C120.52,11.57,131.42,3.83,142.22,4Zm-.16,9.75c-5.63-.09-10.23,3.89-10.24,8.82s4.47,8.9,10,9,10.14-3.79,10.29-8.66S147.75,13.85,142.06,13.75Z"/><path d="M172,5.13c4.59.27,6.88.43,11.46.78L180.6,43.13c-4.33-.33-6.5-.48-10.84-.74Z"/><path d="M192.23,6.65c6.46.58,9.69.91,16.14,1.64,10.72,1.22,20.65,10.26,19,21.29-1.56,10.6-12.76,17-23.24,15.79-6.1-.69-9.15-1-15.26-1.55Zm8.45,28.63,4.62.51c5.46.62,10.41-2.74,11-7.58s-3.44-9.33-9-10l-4.75-.52Z"/><path d="M42.86,69.91c-6.26,7.79-9.28,11.73-15.12,19.67,8,5.37,15.9,11,23.58,16.83-5.52.76-8.28,1.17-13.79,2.06C31.4,104.1,28.28,102,21.92,97.75L20,100.54l2,10.66c-3.89.74-5.83,1.12-9.71,1.93L4.73,76.58c4.13-.85,6.19-1.26,10.33-2L17.4,86.9C21.65,81,23.83,78,28.31,72.17,34.12,71.19,37,70.74,42.86,69.91Z"/><path d="M82.19,103c-7.65-6.45-11.59-9.61-19.65-15.8l2,17.55c-3.92.45-5.88.69-9.8,1.2l-4.86-37,4.23-.54c8.38,6.06,12.47,9.16,20.45,15.49L72.92,66.35c4.18-.39,6.27-.57,10.45-.89l2.86,37.21Z"/><path d="M91.34,64.9c4.19-.27,6.28-.38,10.47-.58l1.76,37.28c-3.94.19-5.91.3-9.84.55Z"/><path d="M148.6,81.14l0,1.39a19.48,19.48,0,0,1-19.29,18.41c-10.12,0-19-8.16-19.36-18.29-.39-10.57,8.75-19,19.24-19a19.89,19.89,0,0,1,13.94,5.54c-3,2.69-4.46,4-7.38,6.77a9.49,9.49,0,0,0-6.53-2.5,8.94,8.94,0,0,0-9.11,9,9.07,9.07,0,0,0,9.16,8.76,9.23,9.23,0,0,0,7.41-3.66c-3,0-4.45,0-7.42,0,0-2.63,0-3.94,0-6.57C137,80.87,140.84,80.92,148.6,81.14Z"/><path d="M165.31,64.56l-.73,13.27c5,.27,7.43.43,12.37.8l1-13.25c4.18.31,6.27.49,10.45.88L185,103.42c-3.93-.36-5.89-.53-9.83-.82l1.07-14.19c-4.87-.37-7.3-.52-12.17-.79l-.78,14.21c-3.94-.22-5.91-.31-9.85-.46q.71-18.65,1.42-37.29C159,64.23,161.13,64.33,165.31,64.56Z"/><path d="M195.57,66.91C206,68,216.46,69.32,226.82,71l-1.5,9.64c-4.13-.64-6.2-.94-10.34-1.51l-3.77,27.36c-3.91-.54-5.87-.79-9.79-1.27l3.31-27.42c-4.06-.49-6.1-.72-10.17-1.14Z"/><path d="M246.33,86a2.94,2.94,0,0,0-2.42-3.34,2.9,2.9,0,0,0-3.41,2.26,2.86,2.86,0,0,0,2.38,3.27,12.06,12.06,0,0,1,8.4,6.15,11.2,11.2,0,0,1,1.08,7.59,11.84,11.84,0,0,1-23.23-4.49c3.53.59,5.3.89,8.83,1.53a2.84,2.84,0,0,0,2.3,3.31,2.87,2.87,0,0,0,3.38-2.2,2.91,2.91,0,0,0-2.35-3.33,11.76,11.76,0,0,1-9.78-13.34c1-6.28,7.26-10.46,14-9.21s11.09,7.35,9.79,13.59C251.71,87,249.92,86.69,246.33,86Z"/><path class="cls-2" d="M36.59,49.71,30.77,9.81l1.48-.22c6.5-.95,9.67-1.37,16.13-2.16a24.72,24.72,0,0,1,18.23,5.08,18,18,0,0,1,6.87,12.57c.83,9.44-6.67,20.69-20.23,22.38-6.13.75-9.11,1.15-15.19,2ZM34.17,12.35l5,34c5.15-.75,8.14-1.14,13.77-1.83C64.68,43,71.21,33.4,70.5,25.34a15,15,0,0,0-5.77-10.5,21.65,21.65,0,0,0-16-4.43C42.82,11.14,39.68,11.55,34.17,12.35ZM46.05,38.64l-2.64-20.5L44.9,18l4.75-.6a12.3,12.3,0,0,1,9.11,2.45,9.57,9.57,0,0,1,3.67,6.48c.6,5.62-4,10.82-10.28,11.58l-4.61.58Zm.72-17.9,1.87,14.54,3.14-.39c4.65-.57,8.09-4.29,7.66-8.29a6.6,6.6,0,0,0-2.56-4.45A9.28,9.28,0,0,0,50,20.34Z"/><path class="cls-2" d="M79.75,44.79,76.63,4.59l1.5-.12c7.38-.57,11-.81,18.43-1.18a18.37,18.37,0,0,1,13.36,4.64,14,14,0,0,1,4.66,9.93,14.51,14.51,0,0,1-4.26,10.43c3.29,4.62,5.09,7.23,8.5,12.25l1.55,2.28-2.76.06c-5,.1-7.44.18-12.48.38l-.82,0-.47-.67c-2.59-3.68-3.94-5.56-6.39-8.92l-4.5.25.6,9.88-1.5.09c-4.34.26-6.46.41-10.81.75Zm.1-37.44,2.66,34.22c3-.23,4.93-.36,7.87-.54l-.6-9.88,1.5-.09c2.73-.17,4.1-.24,6.83-.38l.81,0,.48.65c2.62,3.59,4,5.47,6.43,9,3.56-.14,5.84-.22,9-.29-2.69-3.94-4.47-6.49-7.66-11l-.79-1.1,1-.89a11.74,11.74,0,0,0,4.23-9,11.06,11.06,0,0,0-3.7-7.8A15.3,15.3,0,0,0,96.71,6.28C89.83,6.63,86.23,6.86,79.85,7.35Zm9.6,18.34L88.62,12l1.5-.09c2.81-.17,4.22-.25,7-.39a8.07,8.07,0,0,1,5.86,2,6.45,6.45,0,0,1,2.15,4.51c.16,3.8-3.06,6.94-7.32,7.16-2.76.14-4.13.22-6.89.38ZM91.8,14.83l.47,7.68,5.42-.29c2.6-.13,4.56-1.91,4.48-4A3.46,3.46,0,0,0,101,15.75a5.11,5.11,0,0,0-3.69-1.23Z"/><path class="cls-2" d="M142,42.82h-.44c-13.62-.22-22.22-10.6-22.38-20.09a18.09,18.09,0,0,1,5.55-13.3,24.57,24.57,0,0,1,34.79.6,18,18,0,0,1,5.11,13.44C164.21,32.84,155.43,42.82,142,42.82ZM141.85,5.5a21.49,21.49,0,0,0-15,6,15.15,15.15,0,0,0-4.68,11.13c.14,8.09,7.6,16.95,19.43,17.14h.31c9.19,0,19.24-6.56,19.73-16.5a15.12,15.12,0,0,0-4.31-11.25A21.6,21.6,0,0,0,142.19,5.5ZM142,33.07h-.21c-6.31-.1-11.43-4.81-11.43-10.49a9.73,9.73,0,0,1,3-6.94,12.26,12.26,0,0,1,8.76-3.38h0a12.32,12.32,0,0,1,8.71,3.67,9.7,9.7,0,0,1,2.77,7C153.38,28.57,148.2,33.07,142,33.07Zm-.08-17.82a9.2,9.2,0,0,0-6.45,2.52,6.75,6.75,0,0,0-2.11,4.8c0,4.05,3.8,7.42,8.47,7.49s8.64-3.16,8.77-7.21A6.73,6.73,0,0,0,148.62,18,9.31,9.31,0,0,0,142,15.25Z"/><path class="cls-2" d="M182,44.74l-1.5-.12c-4.31-.33-6.43-.48-10.81-.74l-1.5-.09,2.41-40.25,1.5.09c4.64.28,6.9.43,11.49.79l1.5.11ZM171.35,41c3,.18,4.95.32,7.87.54L181.84,7.3c-3.16-.24-5.26-.38-8.45-.58Z"/><path class="cls-2" d="M206.91,47a26.53,26.53,0,0,1-2.91-.16c-6.12-.7-9.1-1-15.23-1.55l-1.49-.13L190.87,5l1.49.13c6.53.59,9.7.91,16.18,1.65A24.74,24.74,0,0,1,225.12,16a18,18,0,0,1,3.77,13.81C227.6,38.49,219,47,206.91,47Zm-16.38-4.57c5.19.47,8.18.78,13.8,1.42,11.81,1.31,20.41-6.52,21.59-14.52a15,15,0,0,0-3.18-11.55,21.68,21.68,0,0,0-14.53-8c-5.93-.68-9.08-1-14.61-1.5Zm16.07-5.1a12.9,12.9,0,0,1-1.46-.08l-4.61-.51L199,36.61l2.19-20.55,1.49.16,4.76.52a12.3,12.3,0,0,1,8.29,4.5,9.57,9.57,0,0,1,2.07,7.15C217.16,33.57,212.27,37.36,206.59,37.36Zm-4.26-3.41,3.14.35c4.66.53,8.86-2.29,9.38-6.28a6.6,6.6,0,0,0-1.45-4.92,9.29,9.29,0,0,0-6.27-3.37l-3.25-.36Z"/><path class="cls-2" d="M11.13,114.9,3,75.41l1.47-.3c4.13-.86,6.16-1.26,10.36-2.05l1.47-.28,2,10.41c3-4.22,5.16-7,8.89-11.93l.36-.47.58-.1c5.84-1,8.7-1.42,14.59-2.26l3.76-.54-2.38,3C38.13,78.2,35.16,82,29.88,89.21c7.59,5.13,15.11,10.51,22.35,16l2.88,2.19-3.59.49c-5.52.76-8.22,1.16-13.75,2.06l-.61.1-.5-.36c-5.75-4.1-8.8-6.2-14.35-9.88l-.73,1.06,2.18,11.52-1.47.28c-3.89.74-5.79,1.11-9.69,1.92ZM6.5,77.74l7,33.61c2.53-.52,4.27-.87,6.79-1.35l-1.86-9.8.35-.51,1.93-2.8.84-1.2,1.22.81C29,100.61,32,102.72,37.9,106.89c3.87-.62,6.36-1,9.62-1.47-6.71-5-13.63-9.92-20.61-14.6l-1.3-.87.93-1.26c5.11-7,8-10.78,12.78-16.75-3.47.51-6.09.93-10.18,1.61C24.9,79.1,22.77,82,18.62,87.77l-2,2.85L13.87,76.28C11.1,76.81,9.23,77.18,6.5,77.74Z"/><path class="cls-2" d="M53.46,107.63l-5.26-40,1.49-.2,4.24-.54.59-.07.48.35c7.39,5.34,11.4,8.34,17.75,13.35L71.29,65l1.49-.14c4.16-.39,6.22-.57,10.48-.89l1.5-.12L87.85,104l-1.5.11-4,.32-.62.05-.47-.4c-6.75-5.69-10.54-8.76-16.79-13.6l1.78,15.52-1.49.17c-3.92.45-5.84.69-9.77,1.2ZM51.57,70.24l4.47,34c2.55-.33,4.3-.55,6.85-.84L60.65,83.85,63.46,86c7.93,6.08,11.8,9.19,19.23,15.45l1.94-.16L82,67.07c-2.81.22-4.69.38-7.44.64l1.83,19.54-2.75-2.19C65.76,78.81,61.76,75.78,53.72,70Z"/><path class="cls-2" d="M92.32,103.73,89.75,63.5l1.5-.1c4.2-.27,6.26-.38,10.49-.58l1.5-.07,1.9,40.28-1.5.07c-3.94.19-5.87.29-9.82.55Zm.61-37.43,2.19,34.25c2.56-.16,4.32-.26,6.87-.38l-1.62-34.28C97.59,66,95.71,66.13,92.93,66.3Z"/><path class="cls-2" d="M129.2,102.45a20.82,20.82,0,0,1-20.79-19.73,19.13,19.13,0,0,1,5.43-14,21.49,21.49,0,0,1,15.3-6.57h.14a21.52,21.52,0,0,1,14.85,6l1.16,1.12-1.19,1.08c-3,2.71-4.45,4-7.36,6.75l-1,.94-1-.93a8,8,0,0,0-5.49-2.11h0a7.88,7.88,0,0,0-5.58,2.33,7.06,7.06,0,0,0-2,5.1,7.58,7.58,0,0,0,7.63,7.29h0a8.1,8.1,0,0,0,3.23-.69h-4.73l0-9.57h1.5c7.81,0,11.63,0,19.45.25l1.5,0-.08,2.89a20.86,20.86,0,0,1-20.79,19.87Zm.08-37.32h-.12A18.47,18.47,0,0,0,116,70.77a16.16,16.16,0,0,0-4.6,11.83c.34,9.14,8.48,16.84,17.8,16.84h.06A18.08,18.08,0,0,0,147.05,82.6c-6.32-.18-10-.23-16.35-.21V86c2.07,0,3.51,0,5.94,0l2.9,0-1.7,2.35a10.79,10.79,0,0,1-8.62,4.28h0a10.58,10.58,0,0,1-10.63-10.23,10,10,0,0,1,2.88-7.25,10.9,10.9,0,0,1,7.72-3.23h0a11,11,0,0,1,6.42,2c1.94-1.81,3.27-3,5.2-4.77A18.56,18.56,0,0,0,129.28,65.13Z"/><path class="cls-2" d="M186.34,105.05l-1.49-.14c-4-.37-5.88-.53-9.8-.82l-1.5-.11,1.07-14.19c-3.47-.26-5.72-.4-9.15-.59l-.78,14.21-1.5-.08c-3.92-.22-5.85-.3-9.82-.46l-1.5-.06,1.53-40.29,1.5.06c4.2.16,6.26.25,10.5.49l1.5.08-.73,13.27c3.55.2,5.85.35,9.41.61l1-13.25,1.5.11c4.22.32,6.28.49,10.48.88l1.49.14Zm-9.58-3.84c2.54.19,4.3.34,6.86.57l3.15-34.17c-2.77-.25-4.65-.41-7.44-.62l-1,13.25-1.5-.11c-5-.37-7.39-.53-12.34-.8l-1.5-.08L163.73,66c-2.8-.15-4.68-.24-7.45-.35L155,99.92c2.57.1,4.33.18,6.88.32L162.63,86l1.5.08c4.87.27,7.27.42,12.21.79l1.5.11Z"/><path class="cls-2" d="M212.49,108.12l-1.49-.2c-4-.55-5.88-.79-9.77-1.26l-1.49-.18,3.31-27.42c-3.1-.37-5.07-.59-8.65-1l-1.49-.16,1.32-12.68,1.49.15c10.43,1.06,21,2.42,31.33,4.06l1.48.23-2,12.6-1.48-.23c-3.6-.56-5.6-.86-8.83-1.31Zm-9.4-4.26c2.52.31,4.27.53,6.84.88l3.77-27.36,1.49.2c3.65.5,5.67.79,8.88,1.29l1-6.68c-9.33-1.45-18.8-2.67-28.2-3.65l-.7,6.72c3.19.34,5.17.56,8.7,1l1.49.18Z"/><path class="cls-2" d="M240.94,112.59a14,14,0,0,1-2.57-.24,13.18,13.18,0,0,1-10.73-15.17l.25-1.48,1.48.25c3.57.59,5.31.9,8.85,1.54l.41.07A13.1,13.1,0,0,1,230,83.15a12.51,12.51,0,0,1,5.23-8.24,14.18,14.18,0,0,1,19.59,3.68,12.41,12.41,0,0,1,1.9,9.49l-.3,1.47-1.47-.3c-3.62-.75-5.38-1.1-8.93-1.78l-.57-.11a13.58,13.58,0,0,1,7.13,6.26,12.64,12.64,0,0,1,1.22,8.59A13,13,0,0,1,240.94,112.59ZM230.47,99.17a10.35,10.35,0,0,0,20.42,2.44A9.67,9.67,0,0,0,250,95a10.57,10.57,0,0,0-7.35-5.37,4.38,4.38,0,0,1-3.58-5,4.25,4.25,0,0,1,1.79-2.75,4.44,4.44,0,0,1,3.36-.71,4.59,4.59,0,0,1,2.93,1.91,4.34,4.34,0,0,1,.69,1.67c2.32.45,3.91.76,6.19,1.23a9.5,9.5,0,0,0-1.64-5.72,10.9,10.9,0,0,0-7.15-4.6,10.79,10.79,0,0,0-8.23,1.7,9.54,9.54,0,0,0-4,6.28,10.25,10.25,0,0,0,8.57,11.62,4.48,4.48,0,0,1,2.86,1.88,4.25,4.25,0,0,1,.69,3.21,4.37,4.37,0,0,1-5.13,3.39,4.32,4.32,0,0,1-3.51-3.53C234.22,99.81,232.66,99.54,230.47,99.17Zm9.2-1.27-.24,1.33a1.34,1.34,0,0,0,1.1,1.57,1.38,1.38,0,0,0,1.63-1,1.27,1.27,0,0,0-.22-1,1.47,1.47,0,0,0-.93-.62Q240.33,98.09,239.67,97.9Zm3.69-13.8a1.45,1.45,0,0,0-.83.26,1.27,1.27,0,0,0-.55.82,1.37,1.37,0,0,0,1.18,1.53,13.35,13.35,0,0,1,1.44.35l.26-1.34a1.25,1.25,0,0,0-.22-.93,1.57,1.57,0,0,0-1-.65Z"/></g></g></svg>