<?xml version="1.0" encoding="UTF-8" standalone="no"?>
<svg width="64px" height="64px" viewBox="0 0 64 64" version="1.1" xmlns="http://www.w3.org/2000/svg" xmlns:xlink="http://www.w3.org/1999/xlink">
    <!-- Generator: Sketch 42 (36781) - http://www.bohemiancoding.com/sketch -->
    <title>favicon</title>
    <desc>Created with Sketch.</desc>
    <defs></defs>
    <g id="드로이드나이츠" stroke="none" stroke-width="1" fill="none" fill-rule="evenodd">
        <g id="favicon" fill-rule="nonzero">
            <g id="dk_main_badge" transform="translate(2.000000, 6.000000)">
                <g id="Asset-1">
                    <g id="Layer_2">
                        <g id="Layer_1-2">
                            <path d="M49.9229584,20.6092416 C49.7697823,20.6092416 49.6456086,20.4860607 49.6456086,20.3341093 L49.6456086,10.8668078 C49.6456086,10.7148564 49.7697823,10.5916755 49.9229584,10.5916755 L58.8822804,10.5916755 C58.9761818,10.5916981 59.0636948,10.6388523 59.1148306,10.7169792 C59.1659665,10.7951061 59.1737798,10.8935946 59.1355932,10.9786949 L57.1312789,15.4477601 L59.6200308,20.2075485 C59.664545,20.2927852 59.6610561,20.3948749 59.6108248,20.4769252 C59.5605935,20.5589755 59.4708837,20.6091215 59.374114,20.6092416 L49.9229584,20.6092416 Z" id="Shape" fill="#000000"></path>
                            <path d="M58.8795069,10.8668078 L56.8206471,15.4569312 L59.370416,20.3350265 L49.9229584,20.3350265 L49.9229584,10.8668078 L58.8822804,10.8668078 L58.8795069,10.8668078 Z M58.8822804,10.3165432 L49.9229584,10.3165432 C49.6166063,10.3165432 49.3682589,10.562905 49.3682589,10.8668078 L49.3682589,20.3341093 C49.3682589,20.6380121 49.6166063,20.8843739 49.9229584,20.8843739 L59.3713405,20.8843739 C59.5650446,20.8844535 59.7447603,20.7842896 59.8454462,20.6201326 C59.9461321,20.4559757 59.9532025,20.251606 59.8640986,20.0809877 L57.4372881,15.4385891 L59.387057,11.090582 C59.4634302,10.9203815 59.4478035,10.7234045 59.3455319,10.5671507 C59.2432602,10.4108968 59.0682343,10.3165885 58.8804314,10.3165432 L58.8822804,10.3165432 Z" id="Shape" fill="#49FF06"></path>
                            <path d="M50.4610169,20.6092416 C50.3078409,20.6092416 50.1836672,20.4860607 50.1836672,20.3341093 L50.1836672,16.0237037 C50.1837491,15.9332214 50.2286727,15.8485632 50.3038187,15.7972791 C50.3789647,15.7459949 50.4747256,15.7346415 50.5599384,15.7669136 L54.3420647,17.1920988 C54.4358645,17.2276196 54.5029886,17.3106556 54.5175633,17.4091998 C54.5321381,17.507744 54.4918876,17.6064079 54.4123267,17.6671605 L50.6302003,20.552381 C50.5816702,20.5893243 50.5221894,20.6093151 50.4610169,20.6092416 L50.4610169,20.6092416 Z" id="Shape" fill="#000000"></path>
                            <path d="M50.4610169,16.0282892 L54.2431433,17.4534744 L50.4610169,20.3341093 L50.4610169,16.0237037 L50.4610169,16.0282892 Z M50.4610169,15.4734392 C50.1546649,15.4734392 49.9063174,15.719801 49.9063174,16.0237037 L49.9063174,20.3341093 C49.9063909,20.5435365 50.0262976,20.7347665 50.215632,20.8274117 C50.4049665,20.9200569 50.630901,20.8980541 50.7984592,20.7706526 L54.5805855,17.8900176 C54.7401975,17.7685987 54.8210452,17.5709804 54.7918745,17.3735585 C54.7627039,17.1761366 54.628086,17.0098481 54.4400616,16.9389771 L50.6579353,15.5137919 C50.5950258,15.4901209 50.5282999,15.4780012 50.4610169,15.4780247 L50.4610169,15.4734392 Z" id="Shape" fill="#49FF06"></path>
                            <path d="M0.554699538,20.6092416 C0.457929824,20.6091215 0.368220028,20.5589755 0.317988768,20.4769252 C0.267757508,20.3948749 0.264268564,20.2927852 0.308782743,20.2075485 L2.79753467,15.4477601 L0.79229584,10.9786949 C0.75410926,10.8935946 0.761922605,10.7951061 0.81305842,10.7169792 C0.864194235,10.6388523 0.951707211,10.5916981 1.04560863,10.5916755 L10.0049307,10.5916755 C10.1581067,10.5916755 10.2822804,10.7148564 10.2822804,10.8668078 L10.2822804,20.3341093 C10.2822804,20.4860607 10.1581067,20.6092416 10.0049307,20.6092416 L0.554699538,20.6092416 Z" id="Shape" fill="#000000"></path>
                            <path d="M10.0049307,10.8668078 L10.0049307,20.3341093 L0.554699538,20.3341093 L3.10446841,15.4560141 L1.04560863,10.8668078 L10.0049307,10.8668078 L10.0049307,10.8668078 Z M10.0049307,10.3165432 L1.04560863,10.3165432 C0.857805794,10.3165885 0.682779841,10.4108968 0.580508211,10.5671507 C0.478236582,10.7234045 0.46260989,10.9203815 0.538983051,11.090582 L2.48875193,15.4385891 L0.0619414484,20.0846561 C-0.0253835766,20.2549791 -0.0173820548,20.4580493 0.0830784458,20.6210908 C0.183538947,20.7841324 0.362073595,20.8837996 0.554699538,20.8843739 L10.0049307,20.8843739 C10.3112828,20.8843739 10.5596302,20.6380121 10.5596302,20.3341093 L10.5596302,10.8668078 C10.5596302,10.562905 10.3112828,10.3165432 10.0049307,10.3165432 L10.0049307,10.3165432 Z" id="Shape" fill="#49FF06"></path>
                            <path d="M9.46502311,20.6092416 C9.40385068,20.6093151 9.34436987,20.5893243 9.29583975,20.552381 L5.51371341,17.671746 C5.43415248,17.6109934 5.39390196,17.5123296 5.40847672,17.4137853 C5.42305147,17.3152411 5.49017552,17.2322051 5.58397535,17.1966843 L9.36610169,15.7742504 C9.45131444,15.7419784 9.54707533,15.7533318 9.62222134,15.8046159 C9.69736734,15.8559001 9.74229095,15.9405583 9.74237288,16.0310406 L9.74237288,20.3414462 C9.74237288,20.4933976 9.61819916,20.6165785 9.46502311,20.6165785 L9.46502311,20.6092416 Z" id="Shape" fill="#000000"></path>
                            <path d="M9.46502311,16.0282892 L9.46502311,20.3386949 L5.68289676,17.4534744 L9.46502311,16.0282892 L9.46502311,16.0282892 Z M9.46502311,15.4780247 C9.3977402,15.4780012 9.3310143,15.4901209 9.26810478,15.5137919 L5.48597843,16.9389771 C5.29795409,17.0098481 5.16333619,17.1761366 5.13416551,17.3735585 C5.10499484,17.5709804 5.1858426,17.7685987 5.34545455,17.8900176 L9.12758089,20.7706526 C9.29513908,20.8980541 9.52107356,20.9200569 9.71040802,20.8274117 C9.89974249,20.7347665 10.0196491,20.5435365 10.0197227,20.3341093 L10.0197227,16.0237037 C10.0197227,15.719801 9.77137521,15.4734392 9.46502311,15.4734392 L9.46502311,15.4780247 Z" id="Shape" fill="#49FF06"></path>
                            <path d="M50.4305085,31.7603527 L50.4305085,0 L40.1371341,3.32268078 L29.992604,0 L19.2489985,3.32268078 L9.55377504,0 L9.55377504,31.7603527 C9.55377504,31.7603527 8.62927581,43.3452557 29.992604,51.9137919 C51.3596302,43.3452557 50.4305085,31.7603527 50.4305085,31.7603527 Z" id="Shape" stroke="#49FF06" stroke-width="0.891089109" stroke-linecap="round" stroke-linejoin="round" fill="#000000"></path>
                            <path d="M54.3605547,17.7286067 C54.3348935,17.728435 54.3093805,17.7247312 54.2847458,17.7176014 C46.7315871,15.5834921 38.6699538,14.5013051 30.3217257,14.5013051 C16.1149461,14.5013051 5.87241911,17.6827513 5.76979969,17.7111817 C5.69659752,17.735139 5.61664673,17.7277948 5.54912385,17.6909106 C5.48160096,17.6540265 5.43259762,17.5909299 5.41386749,17.5167549 L3.01571649,7.95132275 C2.97935695,7.80565338 3.06737684,7.65795038 3.21355932,7.61932981 C11.7115562,5.37791887 20.7272727,4.24162257 30.0120185,4.24162257 C45.8209553,4.24162257 57.0813559,7.58723104 57.1922958,7.62116402 C57.336456,7.66530404 57.4186067,7.81566028 57.3771957,7.95957672 L54.622188,17.5286772 C54.5888394,17.6451797 54.482618,17.7263498 54.3605547,17.7286067 Z" id="Shape" fill="#000000"></path>
                            <path d="M30.0120185,4.51675485 C45.9596302,4.51675485 57.1127889,7.88712522 57.1127889,7.88712522 L54.3605547,17.4534744 C45.7950693,15.0332275 37.5346687,14.2261728 30.3235747,14.2261728 C15.9013867,14.2261728 5.68751926,17.4534744 5.68751926,17.4534744 L3.28474576,7.88712522 C12.8644068,5.36141093 22.0363636,4.51950617 30.0120185,4.51950617 L30.0120185,4.51675485 Z M30.0120185,3.96924162 C20.7032357,3.9664903 11.6634823,5.10553792 3.14329738,7.3524515 C2.8504812,7.42968684 2.67431454,7.72571408 2.74761171,8.0173545 L5.14483821,17.586455 C5.18245704,17.7335014 5.27960498,17.8586172 5.4133234,17.9322341 C5.54704182,18.005851 5.70546583,18.0214369 5.85115562,17.9753086 C5.8761171,17.9670547 8.43975347,17.1655026 12.7174114,16.3740388 C18.5234103,15.3135738 24.4144363,14.7779267 30.3180277,14.7736861 C38.6385208,14.7736861 46.6770416,15.8522046 54.2052388,17.9835626 C54.4995611,18.0666163 54.8060895,17.8975475 54.8902928,17.6057143 L57.6453005,8.03661376 C57.7287068,7.7484901 57.5642849,7.44714934 57.2755008,7.35887125 C57.1599384,7.32402116 54.4003082,6.49770723 49.6409861,5.6594709 C43.1594651,4.53459346 36.5919835,3.96815415 30.0120185,3.9664903 L30.0120185,3.96924162 Z" id="Shape" fill="#49FF06"></path>
                            <path d="M22.2952234,39.0687831 C22.1420474,39.0687831 22.0178737,38.9456022 22.0178737,38.7936508 C22.0178737,36.0973545 23.5682589,33.5964021 26.0856703,32.2023986 L24.9540832,30.1544974 C24.8855565,30.0336241 24.8692178,29.8903973 24.9087827,29.7573898 C24.9682047,29.5529527 25.1462204,29.4043685 25.3594308,29.3812476 C25.5726412,29.3581267 25.7788128,29.4650491 25.8813559,29.6519224 L27.0397535,31.7429277 C28.1235748,31.3031879 29.2838903,31.0788382 30.4548536,31.0826102 L30.4724191,31.0826102 C31.6454926,31.0793048 32.8077675,31.3049153 33.8930663,31.7465961 L35.0505393,29.6491711 C35.1419443,29.4801591 35.3194447,29.3745104 35.5127889,29.3740388 C35.7483858,29.3732987 35.9557474,29.5280448 36.020339,29.7528042 C36.0597668,29.8868334 36.0431044,30.0309679 35.974114,30.1526631 L34.8434515,32.2005644 C37.3571649,33.5964021 38.9057011,36.0964374 38.9057011,38.7881481 C38.9057011,38.9400995 38.7815274,39.0632804 38.6283513,39.0632804 L22.2952234,39.0687831 Z M26.7476117,34.7739683 C26.5226844,34.7744748 26.340663,34.9555883 26.3408332,35.1787177 C26.3410034,35.4018471 26.5233009,35.5826871 26.7482287,35.582856 C26.9731565,35.5830248 27.1557297,35.4024587 27.1562404,35.1793298 C27.1564866,35.0717466 27.1135138,34.9684993 27.0368276,34.8924262 C26.9601415,34.8163532 26.8560621,34.773724 26.7476117,34.7739683 L26.7476117,34.7739683 Z M34.185208,34.7739683 C33.9601611,34.7759728 33.7785063,34.9569926 33.7775039,35.1802469 C33.7775039,35.4031089 33.9596253,35.5837743 34.1842835,35.5837743 C34.4089417,35.5837743 34.5910632,35.4031089 34.5910632,35.1802469 C34.5915773,34.9565779 34.4097506,34.7745653 34.1842835,34.7730511 L34.185208,34.7739683 Z" id="Shape" fill="#000000"></path>
                            <path d="M35.5146379,29.6528395 C35.5565891,29.6530461 35.5978515,29.6634366 35.6348228,29.6831041 C35.6934292,29.7152055 35.7367777,29.7690902 35.7553297,29.8329009 C35.7738817,29.8967117 35.766117,29.96522 35.7337442,30.023351 L34.4681048,32.3161199 C36.9522342,33.5918166 38.6283513,36.0111464 38.6283513,38.7936508 L22.2933744,38.7936508 C22.2933744,36.0111464 23.9731895,33.587231 26.4610169,32.3142857 L25.194453,30.0215168 C25.1515151,29.943372 25.1538645,29.8484393 25.2006164,29.7724789 C25.2473682,29.6965185 25.3314197,29.6510705 25.4211094,29.6532549 C25.5107992,29.6554392 25.5925012,29.704924 25.6354391,29.7830688 L26.9167951,32.0987654 C28.0311183,31.6114329 29.2361279,31.3614851 30.4539291,31.3650794 L30.4724191,31.3650794 C31.6920969,31.3606323 32.8990931,31.6106001 34.0151002,32.0987654 L35.2936826,29.7821517 C35.3375096,29.7017811 35.4225287,29.6520244 35.5146379,29.6528395 L35.5146379,29.6528395 Z M34.183359,35.8589065 L34.183359,35.8589065 C34.5617039,35.8589065 34.8684129,35.5546497 34.8684129,35.1793298 C34.8684129,34.8040099 34.5617039,34.4997531 34.183359,34.4997531 C33.8050142,34.4997531 33.4983051,34.8040099 33.4983051,35.1793298 C33.4978123,35.3597142 33.5698292,35.5328514 33.6984087,35.6604028 C33.8269882,35.7879543 34.0015208,35.8593954 34.183359,35.8589065 L34.183359,35.8589065 Z M26.7457627,35.8589065 C27.1241075,35.8589065 27.4308166,35.5546497 27.4308166,35.1793298 C27.4308166,34.8040099 27.1241075,34.4997531 26.7457627,34.4997531 L26.7457627,34.4997531 C26.3674179,34.4997531 26.0607088,34.8040099 26.0607088,35.1793298 C26.0607088,35.5546497 26.3674179,35.8589065 26.7457627,35.8589065 L26.7457627,35.8589065 Z M35.5137134,29.102575 L35.5137134,29.102575 C35.2173432,29.1021228 34.9447928,29.2635701 34.8046225,29.5226102 L33.7664099,31.4035979 C32.7138057,31.0079138 31.5971355,30.8065061 30.4714946,30.8093122 L30.4530046,30.8093122 C29.3294579,30.8060251 28.2147394,31.0061766 27.1636364,31.3999295 L26.1226502,29.5198589 C25.9651865,29.2373591 25.6519512,29.0764722 25.3285129,29.1119665 C25.0050746,29.1474608 24.7348626,29.3723755 24.6434515,29.6821869 C24.5834141,29.8859873 24.6087442,30.1051925 24.7137134,30.2902293 L25.7112481,32.0987654 C23.2465331,33.5661376 21.7359014,36.0826808 21.7359014,38.7936508 C21.7359014,39.0975535 21.9842488,39.3439153 22.2906009,39.3439153 L22.2906009,39.3439153 L38.6255778,39.3439153 C38.9319299,39.3439153 39.1802773,39.0975535 39.1802773,38.7936508 C39.1802773,36.0881834 37.6751926,33.5661376 35.2141757,32.0987654 L36.2154083,30.2847266 C36.4296605,29.89841 36.2887208,29.4129601 35.9001541,29.1988713 L35.8899846,29.1933686 C35.7727021,29.1326767 35.6422958,29.1012014 35.5100154,29.1016578 L35.5137134,29.102575 Z M34.183359,35.308642 C34.1488713,35.3086428 34.1158094,35.2949897 34.0915098,35.2707123 C34.0672103,35.2464348 34.0536828,35.2135409 34.0539291,35.1793298 C34.0539291,35.1084192 34.1118769,35.0509347 34.183359,35.0509347 C34.2548412,35.0509347 34.3127889,35.1084192 34.3127889,35.1793298 C34.3132839,35.2134557 34.2999639,35.2463535 34.2758106,35.2706584 C34.2516573,35.2949633 34.2186881,35.3086455 34.1842835,35.308642 L34.183359,35.308642 Z M26.7466872,35.308642 C26.6755664,35.308138 26.61818,35.2508009 26.6181818,35.1802469 C26.6181832,35.1282328 26.6498187,35.0813583 26.6982969,35.0615401 C26.7467752,35.041722 26.8025171,35.052876 26.8394599,35.0897872 C26.8764028,35.1266983 26.8872469,35.182073 26.866922,35.2300204 C26.8465971,35.2779677 26.7991192,35.3090135 26.7466872,35.308642 Z" id="Shape" fill="#49FF06"></path>
                            <path d="M21.648074,43.4974956 L21.648074,35.1188007 C21.648074,33.9806702 20.8742681,32.9516755 19.751926,32.7141446 L19.7010786,32.7040564 C18.3060092,32.4335097 17.0200308,33.5477954 16.9941448,34.9573898 L16.9941448,34.9573898 C16.9519433,37.1003042 17.7321831,39.1790607 19.1768875,40.772769 L21.648074,43.4974956 Z" id="Shape" stroke="#49FF06" stroke-width="0.891089109" stroke-linecap="round" stroke-linejoin="round" fill="#000000"></path>
                            <path d="M39.3725732,41.8879718 L39.3725732,33.5092769 C39.3725732,32.3711464 40.146379,31.3421517 41.2687211,31.1046208 L41.3195686,31.0945326 C42.7146379,30.8239859 44.0006163,31.9382716 44.0265023,33.347866 L44.0265023,33.347866 C44.0679967,35.4898365 43.2878039,37.5674843 41.8437596,39.1604938 L39.3725732,41.8879718 Z" id="Shape" stroke="#49FF06" stroke-width="0.891089109" stroke-linecap="round" stroke-linejoin="round" fill="#000000"></path>
                            <path d="M21.648074,39.7437743 L21.648074,47.3365079 C21.648074,47.3365079 25.4385208,50.422575 30.1174114,51.8514286 C30.1174114,51.8514286 38.1827427,48.538836 39.3734977,47.3365079 L39.3734977,39.7437743" id="Shape" stroke="#49FF06" stroke-width="0.891089109" stroke-linecap="round" stroke-linejoin="round" fill="#000000"></path>
                            <path d="M21.01849,28.7329806 C20.8251939,28.7334929 20.6397408,28.6571964 20.5035439,28.5211287 L19.5069337,27.5297354 C19.2392263,27.6617657 18.9573065,27.7632945 18.6665639,27.832381 C18.1066114,27.9791036 17.5169544,27.9718116 16.9608629,27.8112875 C16.6610471,27.7326422 16.3717837,27.618724 16.0992296,27.4719577 L15.0379045,28.5220459 C14.8938927,28.6647449 14.6962669,28.7411682 14.4928931,28.7328056 C14.2895193,28.724443 14.0989472,28.6320573 13.9673344,28.4780247 C13.7247628,28.1782612 13.7524158,27.7445192 14.0311248,27.4774603 L15.1488444,26.3686772 C15.019389,26.1098284 14.9299435,25.8331256 14.8835131,25.547866 L13.7057011,25.547866 C13.4394088,25.5572809 13.1891806,25.4217223 13.053219,25.1943906 C12.9172575,24.967059 12.9172575,24.6842285 13.053219,24.4568968 C13.1891806,24.2295652 13.4394088,24.0940066 13.7057011,24.1034215 L14.8437596,24.1034215 L14.8437596,23.1569665 L13.9192604,22.2398589 C13.726976,22.0590727 13.6487831,21.788986 13.7150621,21.5345353 C13.781341,21.2800845 13.9816426,21.0813844 14.2381442,21.0156354 C14.4946458,20.9498864 14.7669092,21.027454 14.9491525,21.2182011 L15.8736518,22.1353086 L19.7436055,22.1353086 L20.6681048,21.2182011 C20.9546069,20.9488312 21.4052544,20.9548227 21.6843762,21.2317128 C21.963498,21.508603 21.9695379,21.9556475 21.6979969,22.2398589 L20.8151002,23.1156966 L20.8151002,24.1006702 L21.8644068,24.1006702 C22.130699,24.0912553 22.3809273,24.2268138 22.5168888,24.4541455 C22.6528504,24.6814772 22.6528504,24.9643077 22.5168888,25.1916393 C22.3809273,25.418971 22.130699,25.5545295 21.8644068,25.5451146 L20.7734977,25.5451146 C20.726654,25.8618252 20.6279741,26.1688184 20.4813559,26.4539683 L21.5103236,27.474709 C21.7890326,27.7417679 21.8166856,28.1755099 21.574114,28.4752734 C21.4361605,28.6381022 21.2329034,28.732376 21.01849,28.7329806 Z" id="Shape" fill="#000000"></path>
                            <path d="M21.1756549,21.2833157 C21.3580911,21.2833662 21.522541,21.3924073 21.5923495,21.5596117 C21.6621579,21.7268161 21.6235836,21.9192705 21.4946071,22.0472663 L20.5303544,23.0038095 L20.5303544,24.3794709 L21.8644068,24.3794709 C22.0302936,24.3720159 22.186899,24.4555627 22.2720882,24.5969634 C22.3572773,24.738364 22.3572773,24.9147577 22.2720882,25.0561583 C22.186899,25.197559 22.0302936,25.2811058 21.8644068,25.2736508 L20.5238829,25.2736508 C20.4992344,25.7093482 20.3661475,26.1321994 20.1365177,26.5044092 L21.3143297,27.6728042 C21.4908932,27.8386439 21.5120746,28.1102146 21.3633282,28.3010229 C21.2818602,28.3964073 21.163888,28.4536407 21.0379726,28.458867 C20.9120572,28.4640933 20.7896777,28.416836 20.7004622,28.3285362 L19.5429892,27.1803175 C19.3432974,27.3417284 18.9531587,27.4737919 18.5935285,27.568254 C18.0821464,27.7023383 17.543602,27.6956801 17.0357473,27.5489947 C16.6659476,27.4435273 16.2702619,27.295873 16.0650231,27.1161199 L14.8428351,28.3285362 C14.7536197,28.416836 14.6312402,28.4640933 14.5053248,28.458867 C14.3794094,28.4536407 14.2614371,28.3964073 14.1799692,28.3010229 C14.0312228,28.1102146 14.0524042,27.8386439 14.2289676,27.6728042 L15.4927581,26.4191182 C15.285449,26.0698489 15.1620713,25.677883 15.1322034,25.2736508 L13.7057011,25.2736508 C13.5398142,25.2811058 13.3832088,25.197559 13.2980197,25.0561583 C13.2128305,24.9147577 13.2128305,24.738364 13.2980197,24.5969634 C13.3832088,24.4555627 13.5398142,24.3720159 13.7057011,24.3794709 L15.1211094,24.3794709 L15.1211094,23.0432451 L14.1171032,22.0472663 C13.9993475,21.9350041 13.9519463,21.7683757 13.9931708,21.6116084 C14.0343952,21.4548411 14.1578077,21.3324153 14.3158385,21.2915205 C14.4738693,21.2506257 14.6418407,21.2976478 14.7550077,21.4144621 L15.7562404,22.4086067 L19.85547,22.4086067 L20.8567026,21.4144621 C20.9411693,21.3303513 21.0559732,21.2831464 21.1756549,21.2833157 L21.1756549,21.2833157 Z M21.1756549,20.7330511 C20.9088055,20.7325026 20.6528176,20.8378436 20.4647149,21.0256085 L19.6252696,21.8583422 L15.9855162,21.8583422 L15.1460709,21.0256085 C14.8947066,20.76115 14.5182617,20.6532046 14.1634276,20.7438358 C13.8085936,20.834467 13.5315091,21.1093362 13.4401474,21.4613332 C13.3487857,21.8133302 13.4576012,22.1867654 13.7241911,22.4361199 L14.5654854,23.2706878 L14.5654854,23.8273721 L13.7047766,23.8273721 C13.3383144,23.8163471 12.9948312,24.0039937 12.8083165,24.3171128 C12.6218018,24.6302319 12.6218018,25.0192214 12.8083165,25.3323405 C12.9948312,25.6454596 13.3383144,25.8331061 13.7047766,25.8220811 L14.6560863,25.8220811 C14.6960149,25.9881403 14.7495043,26.1506995 14.8160247,26.3081481 L13.8342065,27.2821164 C13.4526377,27.6510779 13.4181399,28.2479728 13.7546995,28.6577778 C13.9364707,28.8707558 14.1998418,28.9984918 14.4809114,29.0099932 C14.761981,29.0214946 15.0350624,28.9157104 15.2338983,28.7183069 L16.148228,27.8112875 C16.3847861,27.9190958 16.629629,28.0080311 16.8804314,28.0772487 C17.484746,28.2517039 18.1255409,28.2596299 18.7340524,28.1001764 C18.9769811,28.0391083 19.2149394,27.9600142 19.4459168,27.8635626 L20.3066256,28.7173898 C20.5054614,28.9147933 20.7785429,29.0205775 21.0596125,29.0090761 C21.340682,28.9975746 21.6040532,28.8698387 21.7858243,28.6568607 C22.122384,28.2470557 22.0878862,27.6501607 21.7063174,27.2811993 L20.8151002,26.3971076 C20.8947569,26.2116016 20.9566624,26.0190796 21,25.8220811 L21.8607088,25.8220811 C22.227171,25.8331061 22.5706541,25.6454596 22.7571689,25.3323405 C22.9436836,25.0192214 22.9436836,24.6302319 22.7571689,24.3171128 C22.5706541,24.0039937 22.227171,23.8163471 21.8607088,23.8273721 L21.0822804,23.8273721 L21.0822804,23.2312522 L21.8838213,22.4361199 C22.1712349,22.1507581 22.2571716,21.7217962 22.1015909,21.3490999 C21.9460102,20.9764037 21.579521,20.7332973 21.1728814,20.7330511 L21.1756549,20.7330511 Z" id="Shape" fill="#49FF06"></path>
                            <path d="M16.0354391,22.5159083 C15.8822631,22.5159083 15.7580894,22.3927274 15.7580894,22.240776 C15.7580894,21.1302648 16.6655923,20.2300176 17.7850539,20.2300176 C18.9045155,20.2300176 19.8120185,21.1302648 19.8120185,22.240776 C19.8120185,22.3927274 19.6878448,22.5159083 19.5346687,22.5159083 L16.0354391,22.5159083 Z" id="Shape" fill="#000000"></path>
                            <path d="M17.7845917,20.5046914 C18.750622,20.5046914 19.5337442,21.2815523 19.5337442,22.2398589 L16.0354391,22.2398589 C16.0354391,21.2815523 16.8185614,20.5046914 17.7845917,20.5046914 L17.7845917,20.5046914 Z M17.7845917,19.9544268 C16.5138947,19.9584541 15.4847994,20.9793215 15.4807396,22.2398589 C15.4807396,22.5437616 15.729087,22.7901235 16.0354391,22.7901235 L19.5346687,22.7901235 C19.8410208,22.7901235 20.0893683,22.5437616 20.0893683,22.2398589 C20.0853085,20.9793215 19.0562131,19.9584541 17.7855162,19.9544268 L17.7845917,19.9544268 Z" id="Shape" fill="#49FF06"></path>
                            <path id="Shape" stroke="#49FF06" stroke-width="0.891089109" stroke-linecap="round" stroke-linejoin="round" fill="#000000"></path>
                            <polygon id="Shape" stroke="#49FF06" stroke-width="0.891089109" stroke-linecap="round" stroke-linejoin="round" fill="#000000" points="45.9836672 18.2687831 42.3032357 20.0993298 41.5691834 28.7714991 43.9885978 29.5189418 47.9473035 21.8427513"></polygon>
                            <rect id="Rectangle-path" stroke="#49FF06" stroke-width="0.891089109" stroke-linecap="round" stroke-linejoin="round" fill="#000000" transform="translate(42.089669, 31.386573) rotate(17.300000) translate(-42.089669, -31.386573) " x="41.1101619" y="29.9095713" width="1.95901387" height="2.95400353"></rect>
                            <path d="M44.9121726,21.8189065 L42.7701079,29.1420106" id="Shape" stroke="#49FF06" stroke-width="0.891089109" stroke-linecap="round" stroke-linejoin="round" fill="#000000"></path>
                            <polygon id="Shape" stroke="#49FF06" stroke-width="0.891089109" stroke-linecap="round" stroke-linejoin="round" fill="#000000" points="44.3167951 31.2825397 40.2434515 29.8766138 40.6631741 28.4982011 44.7365177 29.9032099"></polygon>
                            <path d="M7.85824345,14.8067019 C7.41816359,14.807664 7.03840033,14.5007581 6.95038521,14.0730159 L6.05084746,9.76261023 C5.99983607,9.52328937 6.04731533,9.27366981 6.18273025,9.06924369 C6.31814518,8.86481756 6.53027322,8.72252677 6.77195686,8.67400353 C7.44776579,8.53552028 7.7990755,8.46582011 8.47950693,8.33650794 C9.34603107,8.17939803 10.2399508,8.37114155 10.9636364,8.86934744 C11.6377599,9.33129139 12.0954326,10.0435602 12.2329738,10.8447972 C12.5149461,12.4955908 11.3676425,14.1216226 9.67303544,14.4646208 C9.00832049,14.5911817 8.69121726,14.653545 8.04684129,14.7856085 C7.98486073,14.7989758 7.92166843,14.8060435 7.85824345,14.8067019 L7.85824345,14.8067019 Z" id="Shape" fill="#000000"></path>
                            <path d="M11.9029276,14.0537566 C11.4493211,14.0552744 11.061609,13.7301023 10.9876733,13.2861376 L10.248074,8.94730159 C10.2064275,8.70610306 10.2636802,8.45839659 10.4070948,8.25929022 C10.5505095,8.06018386 10.7681908,7.92619236 11.0117103,7.88712522 C11.7901387,7.75689594 12.1913713,7.69361552 12.9633282,7.57805996 C13.6633845,7.47006917 14.3776988,7.64771618 14.9436055,8.07054674 C15.8692112,8.74805784 16.2082414,9.96532246 15.7645609,11.0181305 C16.0114022,11.3235273 16.21849,11.5858201 16.5365177,11.9884303 C16.7437644,12.2481098 16.7937641,12.5984654 16.6673238,12.9050074 C16.5408834,13.2115494 16.2576503,13.4266445 15.9263482,13.4677249 C15.3947612,13.537425 15.1294299,13.5731922 14.5978428,13.6511464 C14.3290612,13.6902333 14.0565527,13.6100735 13.8526965,13.4319577 C13.7107784,13.6618402 13.4740954,13.8181436 13.205547,13.8593298 C12.7432974,13.9308642 12.5158706,13.9684656 12.05547,14.0427513 C12.0050068,14.050511 11.9539915,14.0541915 11.9029276,14.0537566 Z" id="Shape" fill="#000000"></path>
                            <path d="M17.5349769,13.2457848 C15.9633282,13.2457848 14.5765794,12.0911464 14.3676425,10.5302293 C14.2581462,9.71392849 14.4873523,8.88849959 15.0027735,8.24296296 C15.5376511,7.5635577 16.3242986,7.12466823 17.1873652,7.02412698 L17.1873652,7.02412698 C18.0539504,6.92969608 18.9225775,7.18334572 19.5993837,7.72846561 C20.2458804,8.24251803 20.6545371,8.99472218 20.7318952,9.81305115 C20.8890601,11.5005291 19.6169492,13.0311817 17.8964561,13.2246914 C17.7764612,13.2384878 17.6557748,13.2455302 17.5349769,13.2457848 Z M17.5506934,9.99463845 L17.5275809,9.99463845 L17.5275809,9.99463845 C17.4833935,9.99852185 17.4426888,10.0200354 17.414792,10.0542504 C17.3949801,10.0770022 17.3856022,10.1069044 17.388906,10.1367901 C17.4092248,10.2116659 17.4816556,10.2605704 17.5593268,10.2518564 C17.636998,10.2431424 17.6965893,10.1794262 17.6995378,10.10194 C17.6965334,10.0725946 17.6810658,10.0459095 17.6570108,10.0285714 C17.6262927,10.0061693 17.5887839,9.99484486 17.5506934,9.99647266 L17.5506934,9.99463845 Z" id="Shape" fill="#000000"></path>
                            <path d="M20.2252696,12.9844092 C19.7445121,12.9862172 19.3425932,12.6221991 19.3007704,12.1470899 L18.8986133,7.76514991 C18.875256,7.52170189 18.9508794,7.27908236 19.1086801,7.09120112 C19.2664807,6.90331989 19.4933879,6.78573926 19.7389831,6.76458554 C20.2289676,6.72056437 20.4739599,6.6994709 20.9639445,6.66095238 C21.2094661,6.64043856 21.4530849,6.71799692 21.6407213,6.87641068 C21.8283577,7.03482443 21.9444862,7.26098615 21.9633282,7.50469136 L22.3183359,11.8902998 C22.3390088,12.1340058 22.2607006,12.375808 22.1008138,12.5619706 C21.940927,12.7481331 21.7127073,12.8632336 21.4668721,12.8816931 C21.0046225,12.9183774 20.7716487,12.9385538 20.3084746,12.9798236 C20.2816641,12.9834921 20.2530046,12.9844092 20.2252696,12.9844092 Z" id="Shape" fill="#000000"></path>
                            <path d="M21.6961479,12.8615168 C21.211127,12.8628358 20.8075385,12.4921009 20.7716487,12.0122751 L20.431433,7.62483245 C20.4112909,7.38113318 20.4900849,7.13954501 20.6503111,6.95373591 C20.8105373,6.76792682 21.0389275,6.65328343 21.2847458,6.63527337 C21.9679507,6.58299824 22.3238829,6.55823633 23.0144838,6.51513228 C23.8911388,6.46865112 24.7503853,6.77026639 25.4024653,7.35336861 C26.0124618,7.89672435 26.3757668,8.66116968 26.4101695,9.47372134 C26.4795069,11.1483598 25.1380586,12.6148148 23.41849,12.7432099 C22.7528505,12.7844797 22.4320493,12.8064903 21.7710324,12.8578483 C21.7432974,12.8605996 21.7192604,12.8615168 21.6961479,12.8615168 Z" id="Shape" fill="#000000"></path>
                            <path d="M27.8662558,12.5588713 C27.3617442,12.5589436 26.9503332,12.1577601 26.9417565,11.6573545 L26.8493066,7.2552381 C26.8431084,7.01089547 26.9354887,6.77420701 27.1059409,6.59771358 C27.276393,6.42122015 27.5108135,6.31952503 27.7571649,6.31520282 C28.248074,6.30511464 28.4967643,6.3005291 28.9848998,6.29502646 C29.2917181,6.29374229 29.5791899,6.44354421 29.7522342,6.69488536 L29.9075501,6.54814815 C30.0799151,6.38429095 30.3094952,6.29293024 30.548228,6.29319224 L30.548228,6.29319224 C31.233282,6.29319224 31.5873652,6.29869489 32.2687211,6.31061728 C32.6496678,6.31344187 32.9898635,6.54778355 33.1256186,6.90088578 C33.2613736,7.25398801 33.1648886,7.65354376 32.8825886,7.90730159 C32.2955316,8.44656085 31.9174114,8.79873016 31.4671803,9.22885362 C32.0607088,9.81213404 32.6496148,10.4064198 33.2237288,11.0016226 C33.4883988,11.269088 33.5623748,11.6693999 33.4105544,12.0126052 C33.2587339,12.3558106 32.9116714,12.5728381 32.5340524,12.5607055 C31.8702619,12.5469489 31.5485362,12.5423633 30.8949153,12.5386949 C30.6510608,12.5352493 30.4184565,12.4363588 30.2477658,12.2635626 L29.9112481,11.9297354 C29.7808351,12.292419 29.4359235,12.5356632 29.0477658,12.5386949 C28.5855162,12.5432804 28.3506934,12.5469489 27.8865948,12.557037 L27.8662558,12.5588713 Z" id="Shape" fill="#000000"></path>
                            <path d="M36.1285054,12.6909347 L36.0776579,12.6909347 L35.6006163,12.6670899 C35.3549255,12.655481 35.1240268,12.5472256 34.9590139,12.3662787 C34.774114,12.1635979 34.6095532,11.985679 34.4570108,11.8205996 C34.3799373,12.2736061 33.9768706,12.6001454 33.5140216,12.5845503 C33.051772,12.5707937 32.8169492,12.565291 32.3528505,12.5561199 C32.1065042,12.5522748 31.8718955,12.4510441 31.7010984,12.2748973 C31.5303012,12.0987505 31.4374461,11.8622605 31.4431433,11.6179189 L31.5291217,7.21580247 C31.5345438,6.97283729 31.6369571,6.74194073 31.8138675,6.57382716 C31.9901054,6.40245489 32.2291324,6.30972799 32.4758089,6.31703704 L32.974114,6.32804233 C33.2126711,6.3333596 33.4399169,6.42997195 33.6083205,6.59767196 C33.8385208,6.82603175 34.0391371,7.0259612 34.2249615,7.21213404 C34.2808111,6.73319542 34.7009509,6.37893181 35.1864407,6.40141093 C35.6773498,6.42250441 35.9260401,6.43442681 36.4132512,6.46010582 C36.6595678,6.47193739 36.8909107,6.5809013 37.0558426,6.76277023 C37.2207744,6.94463917 37.3056239,7.18433799 37.2915254,7.42857143 L37.0539291,11.8224339 C37.027833,12.310217 36.6209105,12.6921097 36.1285054,12.6909347 L36.1285054,12.6909347 Z" id="Shape" fill="#000000"></path>
                            <path d="M37.5947612,12.77806 L37.5318952,12.77806 C37.0696456,12.7477954 36.8357473,12.7331217 36.3725732,12.7074427 C36.1274059,12.6939621 35.8977156,12.5842839 35.7341659,12.4026003 C35.5706162,12.2209167 35.4866436,11.9821541 35.5007704,11.7389771 L35.7503852,7.34603175 C35.763247,7.10182976 35.8738879,6.87283585 36.0577259,6.70992716 C36.2415639,6.54701846 36.4833734,6.46368732 36.7294299,6.47844797 C37.220339,6.5059612 37.4690293,6.52063492 37.9562404,6.55365079 C38.2023118,6.56893217 38.432036,6.68108554 38.5943556,6.86518416 C38.7566751,7.04928279 38.838141,7.29007336 38.8206471,7.5340388 L38.5201849,11.9223986 C38.4875114,12.4051147 38.082461,12.7796307 37.5947612,12.77806 Z" id="Shape" fill="#000000"></path>
                            <path d="M40.2453005,12.9779894 C40.1528505,12.9779894 40.0604006,12.9740153 39.9679507,12.966067 C38.2474576,12.8138272 36.9429892,11.3152734 37.0594761,9.61679012 C37.1163095,8.8005856 37.5038391,8.0419792 38.1337442,7.51386243 C38.7959754,6.95280056 39.6565576,6.67714672 40.5244992,6.7480776 C41.372667,6.81715864 42.1589192,7.21604228 42.7118644,7.85777778 C43.0002598,8.18860172 43.0130313,8.67541307 42.7423729,9.02067019 C43.1999807,9.12622452 43.5050156,9.55546125 43.4514638,10.0184832 L43.4329738,10.1817284 L43.4329738,10.1973192 C43.2151161,11.7814944 41.8569917,12.966213 40.2453005,12.9779894 L40.2453005,12.9779894 Z" id="Shape" fill="#000000"></path>
                            <path d="M46.0520801,13.664903 C46.0075407,13.6649934 45.9630516,13.6619285 45.9189522,13.6557319 C45.4567026,13.5897002 45.2274268,13.5576014 44.7661017,13.4961552 C44.5218015,13.4641498 44.3004912,13.3367171 44.1513097,13.1421517 C44.1365177,13.1228924 44.1226502,13.1036332 44.1097072,13.0834568 C43.9100226,13.2659443 43.6395691,13.3521328 43.3701079,13.3191534 C42.9078582,13.264127 42.6767334,13.2375309 42.2144838,13.1861728 C41.9693693,13.160369 41.7447915,13.0385322 41.5906406,12.8477286 C41.4364897,12.656925 41.3655312,12.4129553 41.3935285,12.1700176 L41.8798151,7.79541446 C41.9058269,7.55225975 42.0286457,7.32947747 42.2209871,7.17655906 C42.4133285,7.02364065 42.6592646,6.95324943 42.9041602,6.98102293 C43.3932203,7.03421517 43.6372881,7.0626455 44.1263482,7.12134039 C44.4158227,7.1554692 44.6721145,7.32303821 44.8178737,7.57347443 C44.8466998,7.54327636 44.8775896,7.51508493 44.9103236,7.48910053 C45.1058347,7.34026343 45.3528174,7.27431242 45.5972265,7.30567901 C46.0853621,7.37079365 46.3294299,7.40472663 46.816641,7.47442681 C47.0636477,7.50613617 47.287308,7.63537165 47.4369705,7.83286582 C47.586633,8.03035998 47.6496356,8.27940401 47.6117103,8.52359788 L46.9747304,12.8780247 C46.9100628,13.3317547 46.5177105,13.6685003 46.0557781,13.6667372 L46.0520801,13.664903 Z" id="Shape" fill="#000000"></path>
                            <path d="M48.5676425,14.0583422 C48.5159072,14.0583552 48.4642621,14.0540603 48.4132512,14.0455026 C47.9510015,13.9684656 47.7235747,13.9308642 47.2631741,13.8620811 C47.0196395,13.8248845 46.8011498,13.692785 46.6562114,13.4951096 C46.511273,13.2974342 46.4518797,13.0505409 46.4912173,12.8092416 L46.8610169,10.5063845 L46.6049307,10.4687831 C46.3610485,10.4341217 46.141201,10.3043269 45.9941842,10.1082073 C45.8471674,9.91208765 45.7851438,9.66586792 45.8218798,9.42419753 L45.9901387,8.28606702 C46.0250898,8.04431908 46.155797,7.82638467 46.3532891,7.68056886 C46.5507812,7.53475305 46.7987448,7.47310065 47.0422188,7.5092769 C48.2560863,7.68444444 49.4847458,7.88345679 50.6930663,8.10081129 C50.9354157,8.14344215 51.1506242,8.28017953 51.2910126,8.4807293 C51.4314009,8.68127906 51.4853783,8.92908352 51.4409861,9.16924162 L51.2357473,10.3009524 C51.1930002,10.5417228 51.0551154,10.7555965 50.8527142,10.895077 C50.6503129,11.0345574 50.4001501,11.0880983 50.1577812,11.0438095 L49.8804314,10.9942857 L49.4893683,13.2934744 C49.4154326,13.7374392 49.0277205,14.0626113 48.574114,14.0610935 L48.5676425,14.0583422 Z" id="Shape" fill="#000000"></path>
                            <path d="M51.5020031,14.5636684 C51.3524483,14.5637819 51.2032279,14.5496548 51.0563945,14.5214815 C50.454287,14.4125384 49.9207379,14.0701308 49.5737488,13.5699867 C49.2267597,13.0698425 49.094923,12.4531744 49.207396,11.8563668 C49.249998,11.6223164 49.3825908,11.413837 49.5771957,11.2749206 C49.4710939,10.928729 49.4501707,10.5623544 49.5161787,10.2064903 C49.623157,9.61518322 49.9661624,9.09172709 50.4674884,8.75470899 C51.5625596,8.02665375 53.044884,8.31361526 53.7836672,9.3966843 C54.1198404,9.8925147 54.2401682,10.5019084 54.1174114,11.0869136 C54.068651,11.3220246 53.9289146,11.528801 53.7281972,11.6628571 C53.8320631,12.0174696 53.8460361,12.3920401 53.7688752,12.7532981 C53.5391591,13.8121579 52.5938305,14.5671165 51.5020031,14.5636684 L51.5020031,14.5636684 Z" id="Shape" fill="#000000"></path>
                            <path d="M7.85824345,14.3068783 C7.65530566,14.3062799 7.48055698,14.1646904 7.4394453,13.9675485 L6.53990755,9.65714286 C6.51669843,9.54670062 6.53874813,9.43163616 6.60118998,9.33734574 C6.66363184,9.24305531 6.7613322,9.17729101 6.87272727,9.1545679 C7.5540832,9.01516755 7.88967643,8.9491358 8.57288136,8.81798942 C9.30667558,8.68519334 10.0635662,8.84790265 10.6761171,9.27012346 C11.2404519,9.65577273 11.6241007,10.2509478 11.7402157,10.9209171 C11.977812,12.3130864 11.0061633,13.682328 9.57318952,13.972134 C8.91217257,14.1060317 8.59784284,14.1693122 7.95069337,14.3022928 C7.92013595,14.3071464 7.88913652,14.308684 7.85824345,14.3068783 Z M7.46533128,9.9047619 L8.19106317,13.3815168 C8.59691834,13.2998942 8.90292758,13.2402822 9.40677966,13.1439859 C10.3867488,12.9458907 11.0560863,12.0141093 10.8952234,11.0685714 C10.8176029,10.6216106 10.5612168,10.2247271 10.1842835,9.96804233 C9.76064502,9.67634083 9.237423,9.56382195 8.73004622,9.65530864 C8.20955316,9.75985891 7.89337442,9.82130511 7.46625578,9.9047619 L7.46533128,9.9047619 Z M8.78274268,12.9651499 C8.57832142,12.9646306 8.40267017,12.8210881 8.36302003,12.6221517 L7.95901387,10.5779189 C7.91377572,10.3475003 8.06517874,10.1242633 8.29738059,10.0790123 L8.80030817,9.98271605 C9.20103078,9.90464478 9.61656358,9.98992971 9.95315871,10.2193298 C10.2742566,10.4343016 10.4945303,10.7685165 10.5642527,11.1465256 C10.7011939,11.950113 10.1628324,12.7140435 9.3550077,12.8624339 L8.86502311,12.9541446 C8.83801742,12.9604323 8.81046269,12.9641178 8.78274268,12.9651499 L8.78274268,12.9651499 Z M8.8825886,10.8319577 L9.1248074,12.0416226 L9.19784284,12.027866 C9.5460252,11.9671397 9.78065102,11.6404731 9.7248074,11.2941799 C9.6952702,11.1397073 9.6043068,11.0035268 9.47241911,10.9163316 C9.32422556,10.8178178 9.14248369,10.7821563 8.96764253,10.817284 L8.8825886,10.8319577 Z" id="Shape" fill="#49FF06"></path>
                            <path d="M11.9029276,13.5585185 C11.6938399,13.5587191 11.515204,13.4090426 11.4804314,13.204515 L10.740832,8.86567901 C10.7218398,8.75450735 10.7482013,8.64040709 10.8141039,8.548537 C10.8800066,8.4566669 10.9800381,8.39457183 11.0921418,8.37594356 C11.8761171,8.24479718 12.2579353,8.18426808 13.0335901,8.06779541 C13.6011452,7.97908839 14.1807314,8.12199943 14.6403698,8.46398589 C15.075601,8.78291251 15.3623539,9.26285647 15.4354391,9.79470899 C15.4938269,10.2397322 15.4014674,10.6913856 15.1728814,11.0786596 C15.5177196,11.5041975 15.7423729,11.7866667 16.1389831,12.2892416 C16.2332271,12.4089046 16.2560486,12.5693197 16.1988683,12.710182 C16.1416881,12.8510444 16.0131721,12.9510054 15.8616333,12.9724868 C15.3272727,13.0421869 15.0610169,13.0788713 14.5266564,13.1559083 C14.3763401,13.1779076 14.2255854,13.1188566 14.1309707,13.0009171 C13.8453005,12.6469136 13.6788906,12.4423986 13.4283513,12.1379189 L13.3691834,12.1470899 L13.4856703,12.880776 C13.5222313,13.1127069 13.3625543,13.3301995 13.1288136,13.366843 C12.6665639,13.4392945 12.4354391,13.4759788 11.9731895,13.5502646 C11.9500441,13.5549684 11.9265403,13.5577295 11.9029276,13.5585185 Z M11.6597843,9.14356261 L12.2542373,12.6441623 L12.5731895,12.5928042 L12.4567026,11.8591182 C12.4388897,11.7476955 12.4665066,11.6338211 12.533458,11.5426281 C12.6004093,11.451435 12.7011909,11.3904206 12.8135593,11.3730511 C13.1057011,11.3271958 13.2508475,11.3051852 13.5429892,11.261164 C13.692553,11.2388823 13.8428929,11.2963771 13.9386749,11.4124868 C14.2308166,11.7664903 14.4009245,11.9728395 14.6477658,12.2800705 L15.007396,12.2296296 C14.7919877,11.9544974 14.5959938,11.7160494 14.3103236,11.3647972 C14.1804958,11.208113 14.1804958,10.9822221 14.3103236,10.8255379 C14.5278926,10.5717092 14.6284652,10.2391476 14.5876733,9.90843034 C14.5441723,9.60196321 14.3774146,9.32603519 14.1254237,9.14356261 C13.849049,8.93878792 13.500863,8.85376077 13.1602465,8.90786596 C12.5473035,9.00049383 12.1812018,9.0573545 11.6597843,9.14356261 Z M12.7229584,11.2327337 C12.512527,11.232184 12.3335683,11.0802947 12.3004622,10.8741446 L12.1016949,9.62962963 C12.0651339,9.39769877 12.2248109,9.18020615 12.4585516,9.14356261 C12.7562404,9.09679012 12.9050847,9.07477954 13.198151,9.02984127 C13.4874576,8.98479024 13.7828864,9.05681793 14.0181818,9.22977072 C14.2446278,9.39528211 14.3945325,9.64411702 14.4342065,9.92035273 C14.4743849,10.2003795 14.3997966,10.4847019 14.2271114,10.709776 C14.0544262,10.9348502 13.7980404,11.0819123 13.5152542,11.1180952 C13.2231125,11.1621164 13.0770416,11.184127 12.7848998,11.2299824 C12.7640154,11.2320804 12.7430065,11.2326933 12.7220339,11.2318166 L12.7229584,11.2327337 Z M13.0151002,9.9157672 L13.0798151,10.3220459 L13.3922958,10.2752734 C13.4505473,10.2711215 13.5046027,10.2436843 13.5420762,10.1992486 C13.5795496,10.1548129 13.597229,10.0971876 13.5910632,10.0395767 C13.5834998,9.98773096 13.5551664,9.94110655 13.5124807,9.91026455 C13.4592859,9.87164681 13.3924381,9.85639475 13.3275809,9.8680776 L13.0151002,9.9157672 Z" id="Shape" fill="#49FF06"></path>
                            <path d="M17.5340524,12.7477954 C16.1943846,12.7503973 15.056189,11.776406 14.8622496,10.4614462 C14.7710457,9.77708457 14.9638986,9.08532 15.3966102,8.54469136 C15.8491583,7.96959451 16.5151024,7.59832622 17.2456086,7.51386243 L17.2456086,7.51386243 C17.9767648,7.43521261 18.7092287,7.65022241 19.2795069,8.11089947 C19.8214161,8.54007753 20.1649529,9.16871953 20.2317411,9.85340388 C20.3639445,11.2740035 19.2896764,12.5634568 17.8382126,12.7267019 C17.7373076,12.7394138 17.6357588,12.7464562 17.5340524,12.7477954 Z M17.3399076,8.35851852 C16.838926,8.41742285 16.3825199,8.67269723 16.0724191,9.06744268 C15.7813927,9.42906398 15.6512264,9.89259159 15.7118644,10.3513933 C15.8403698,11.295097 16.772265,12.0021869 17.7457627,11.8893827 C18.7192604,11.7765785 19.4708783,10.886067 19.3830508,9.93869489 C19.337541,9.48054669 19.1067028,9.06028577 18.7432974,8.77396825 C18.3505043,8.45683442 17.8462361,8.30857953 17.342681,8.36218695 L17.3399076,8.35851852 Z M17.5377504,11.5977425 C16.7814245,11.5995273 16.1413834,11.04392 16.0428351,10.3000353 C15.994469,9.91362048 16.1051128,9.52417411 16.3497689,9.21968254 C16.87825,8.56177575 17.8442842,8.45338073 18.5075501,8.97756614 C18.8130998,9.22144862 19.0067192,9.57716076 19.0446841,9.9643739 C19.1206863,10.7783333 18.5243086,11.5022281 17.7050847,11.5904056 C17.6495183,11.596504 17.5936558,11.5995657 17.5377504,11.5995767 L17.5377504,11.5977425 Z M17.4730354,9.50306878 C17.2963469,9.52187844 17.1347343,9.61046789 17.0246533,9.74885362 C16.922172,9.8755541 16.8755117,10.0378903 16.8952234,10.1991534 C16.9478582,10.5455867 17.2673791,10.7886058 17.6182967,10.7491038 C17.9692142,10.7096017 18.2257201,10.4017404 18.1987673,10.0524162 C18.1818207,9.89139434 18.1001691,9.74394352 17.972265,9.64338624 C17.8315946,9.53202136 17.6516868,9.48145504 17.4730354,9.50306878 L17.4730354,9.50306878 Z" id="Shape" fill="#49FF06"></path>
                            <path d="M20.2252696,12.488254 C20.0039458,12.4882108 19.8191524,12.3208007 19.7990755,12.1021517 L19.3969183,7.72021164 C19.3771393,7.48775449 19.5501058,7.28300076 19.7842835,7.26165785 C20.2714946,7.21763668 20.5155624,7.19654321 21.003698,7.15802469 C21.1172661,7.14814489 21.2300903,7.18381297 21.3169544,7.25705715 C21.4038186,7.33030133 21.4574808,7.43501524 21.4659476,7.54779541 L21.8181818,11.9306526 C21.8276325,12.0432031 21.791494,12.1548513 21.7177588,12.240905 C21.6440237,12.3269586 21.5387678,12.3803267 21.4252696,12.3892063 C20.96302,12.4258907 20.7272727,12.446067 20.2622496,12.488254 L20.2252696,12.488254 Z M20.2890601,8.07054674 L20.6163328,11.602328 L20.9352851,11.5748148 L20.6486903,8.03569665 L20.2890601,8.07054674 Z" id="Shape" fill="#49FF06"></path>
                            <path d="M21.6961479,12.3653616 C21.4725116,12.365554 21.2864178,12.1949334 21.2690293,11.9737566 L20.9260401,7.58723104 C20.9168485,7.47458843 20.9532024,7.36294516 21.0270844,7.27692256 C21.1009663,7.19089996 21.2063076,7.13756403 21.3198767,7.12867725 C22.0086287,7.07548501 22.3460709,7.05255732 23.0422188,7.00945326 C23.7839691,6.96988568 24.5110044,7.22536676 25.0622496,7.71929453 C25.5732916,8.17383539 25.8779344,8.81362819 25.9072419,9.49389771 C25.9664099,10.9044092 24.8311248,12.1406702 23.377812,12.2452205 C22.7158706,12.2864903 22.3932203,12.3085009 21.7294299,12.3598589 L21.6961479,12.3653616 Z M21.8135593,7.944903 L22.0909091,11.4849383 C22.5060092,11.4537566 22.814792,11.4335802 23.3195686,11.4023986 C24.3124807,11.3281129 25.0918336,10.485291 25.0520801,9.53058201 C25.0322641,9.07589249 24.8278492,8.64849862 24.4853621,8.34567901 C24.1047225,8.00512585 23.6030738,7.8289066 23.0912173,7.85594356 C22.5633282,7.88712522 22.2434515,7.91280423 21.8126348,7.944903 L21.8135593,7.944903 Z M22.7824345,11.1465256 C22.5571434,11.1465444 22.3704002,10.9733234 22.3553159,10.7503351 L22.214792,8.67216931 C22.2071813,8.55979384 22.2448881,8.44902254 22.3196156,8.36422878 C22.3943431,8.27943501 22.4999687,8.22756623 22.6132512,8.22003527 L23.1226502,8.1870194 C23.5287751,8.15994616 23.9287427,8.2965011 24.2320493,8.56578483 C24.5233047,8.81981335 24.699236,9.17944001 24.7201849,9.56359788 C24.7548953,10.3767048 24.1256308,11.0670766 23.3066256,11.1144268 L22.811094,11.1465256 L22.7824345,11.1465256 Z M23.0986133,9.03717813 L23.1818182,10.2670194 L23.2539291,10.2670194 C23.6033483,10.2477935 23.8740591,9.95649581 23.8650231,9.60945326 C23.855574,9.45194973 23.782599,9.30485282 23.6625578,9.20134039 C23.5292255,9.08403941 23.3540948,9.02458792 23.1762712,9.03626102 L23.0986133,9.03717813 Z" id="Shape" fill="#49FF06"></path>
                            <path d="M27.8662558,12.062716 C27.6330657,12.0627598 27.4427455,11.8776312 27.4382126,11.6463492 L27.3457627,7.2442328 C27.3432841,7.13160888 27.3860211,7.0226236 27.4645666,6.94126602 C27.5431121,6.85990844 27.6510281,6.81284714 27.7645609,6.81044092 C28.253621,6.80035273 28.4986133,6.7957672 28.9876733,6.79118166 C29.1008808,6.79174163 29.2096294,6.83502444 29.2918336,6.91223986 C29.3728585,6.99110653 29.4190681,7.09861658 29.420339,7.21121693 L29.425886,7.69453263 C29.6736518,7.45425044 29.9177196,7.22222222 30.2579353,6.90215168 C30.3376982,6.82679433 30.4436262,6.7847619 30.553775,6.7847619 L30.553775,6.7847619 C31.244376,6.7847619 31.5799692,6.79026455 32.2668721,6.80218695 C32.4403944,6.80640518 32.59417,6.91415812 32.6561808,7.07498144 C32.7181915,7.23580476 32.6761591,7.41785543 32.5497689,7.53587302 C31.8101695,8.21820106 31.3978428,8.60155203 30.7590139,9.21876543 C31.4727273,9.91301587 32.1818182,10.6237743 32.8705701,11.337284 C32.9897141,11.4601347 33.0232442,11.6417597 32.9557201,11.7985227 C32.888196,11.9552858 32.7327105,12.0567909 32.5608629,12.0562963 L32.5516179,12.0562963 C31.8850539,12.0425397 31.5614792,12.0379541 30.9050847,12.0342857 C30.7922957,12.0335126 30.6843519,11.9887034 30.6046225,11.9095591 C30.1349769,11.4427513 29.8419106,11.1538624 29.4610169,10.7870194 L29.4702619,11.6124162 C29.4723179,11.8467295 29.2830324,12.0386014 29.0468413,12.0416226 C28.5845917,12.0462081 28.3469954,12.0507937 27.8801233,12.0599647 L27.8662558,12.062716 Z M28.209245,7.655097 L28.2859784,11.2043034 L28.6049307,11.1988007 L28.5956857,10.3440564 C28.5946487,10.2317199 28.6385299,10.1235535 28.7177196,10.0432451 L28.9950693,9.75802469 C29.1596389,9.5915862 29.4287048,9.5879018 29.5978428,9.74977072 C30.2052388,10.3284656 30.5223421,10.6347795 31.0770416,11.1914638 L31.5226502,11.1914638 C30.9679507,10.6292769 30.4030817,10.0716755 29.8372881,9.52691358 C29.7543749,9.44696356 29.7075948,9.33713834 29.7075948,9.22243386 C29.7075948,9.10772938 29.7543749,8.99790417 29.8372881,8.91795414 C30.3836672,8.38786596 30.7506934,8.03661376 31.177812,7.63400353 L30.7155624,7.63400353 C30.1719569,8.14941799 29.8714946,8.44014109 29.3038521,9.00049383 C29.181804,9.12128916 28.998615,9.15765825 28.8391042,9.09276169 C28.6795934,9.02786513 28.5748997,8.87437168 28.5734977,8.70335097 L28.5670262,7.64959436 L28.209245,7.655097 Z" id="Shape" fill="#49FF06"></path>
                            <path d="M36.1285054,12.1975309 L36.1053929,12.1975309 L35.6265023,12.172769 C35.513296,12.1672829 35.4069044,12.1174807 35.3306626,12.0342857 C34.7898305,11.4445855 34.4329738,11.0594004 34.0049307,10.6109347 L33.9725732,11.6775309 C33.9691146,11.7904229 33.9205567,11.8973201 33.8375963,11.9746737 C33.7543489,12.0513581 33.6442364,12.0928137 33.5306626,12.0902293 C33.0684129,12.0764727 32.8308166,12.07097 32.3639445,12.0617989 C32.2504134,12.059631 32.142403,12.0128015 32.0636852,11.931617 C31.9849674,11.8504325 31.9419936,11.7415467 31.9442219,11.6289242 L32.0302003,7.22680776 C32.0322431,7.11408527 32.0794882,7.00681838 32.1614792,6.9287478 C32.2418385,6.8484472 32.352611,6.80549142 32.4665639,6.81044092 L32.96302,6.82144621 C33.0729347,6.82425754 33.1775438,6.86891922 33.2551618,6.94617284 C33.8459168,7.52945326 34.2268105,7.91280423 34.6687211,8.37502646 L34.7149461,7.30017637 C34.7197454,7.1875232 34.7695143,7.08138917 34.8532795,7.00517534 C34.9370446,6.9289615 35.0479272,6.88892658 35.1614792,6.89389771 C35.6505393,6.91499118 35.8946071,6.92691358 36.3836672,6.95259259 C36.4981408,6.95710209 36.6060398,7.00684839 36.6833197,7.09074586 C36.7605995,7.17464333 36.8008384,7.28572028 36.7950693,7.39922399 L36.557473,11.7930864 C36.5465912,12.0200386 36.3575441,12.1982782 36.1285054,12.1975309 L36.1285054,12.1975309 Z M32.8095532,11.2208113 L33.1285054,11.2281481 L33.1784284,9.57093474 C33.1823184,9.39863393 33.290807,9.24575609 33.453007,9.18400951 C33.6152069,9.12226293 33.7989411,9.16389689 33.9180277,9.28938272 C34.6696456,10.0643386 35.0699538,10.4871252 35.7318952,11.2070547 L35.9167951,7.78165785 L35.5599384,7.7642328 L35.4887519,9.41502646 C35.4823562,9.58616886 35.3729467,9.73674727 35.2112986,9.79688066 C35.0496505,9.85701405 34.8674102,9.81492987 34.7491525,9.69015873 C33.9984592,8.90144621 33.5898305,8.48324515 32.8788906,7.7761552 L32.8095532,11.2208113 Z" id="Shape" fill="#49FF06"></path>
                            <path d="M37.5938367,12.2828219 L37.5651772,12.2828219 C37.1029276,12.2516402 36.8662558,12.2378836 36.4003082,12.2112875 C36.2867192,12.205138 36.1802699,12.1543876 36.1044674,12.0702432 C36.0286649,11.9860989 35.9897448,11.8754827 35.996302,11.7628219 L36.2459168,7.36987654 C36.2523521,7.25735886 36.303614,7.15199438 36.38841,7.07699344 C36.4732059,7.0019925 36.5845796,6.96350803 36.6979969,6.97001764 C37.187057,6.99753086 37.4311248,7.01220459 37.9192604,7.04430335 C38.0325429,7.0518343 38.1381684,7.10370309 38.2128959,7.18849685 C38.2876234,7.27329062 38.3253302,7.38406192 38.3177196,7.49643739 L38.0209553,11.8866314 C38.005871,12.1096197 37.8191278,12.2828407 37.5938367,12.2828219 Z M36.8755008,11.3868078 L37.194453,11.406067 L37.4338983,7.86419753 L37.0770416,7.84218695 L36.8755008,11.3868078 Z" id="Shape" fill="#49FF06"></path>
                            <path d="M40.246225,12.4818342 C40.168567,12.4818342 40.0902928,12.4784715 40.0114022,12.471746 C38.5596899,12.3429136 37.4731922,11.0941956 37.5568567,9.6507231 C37.6045067,8.9659108 37.9300901,8.3295471 38.459168,7.88712522 C39.6095994,6.90677225 41.3432843,7.03691884 42.3318952,8.17784832 C42.4081122,8.26626191 42.4445178,8.38177471 42.4326414,8.49751004 C42.420765,8.61324537 42.3616422,8.71911147 42.2690293,8.79047619 C41.9565485,9.02984127 41.7753467,9.17015873 41.5081664,9.37925926 C41.8271186,9.41135802 42.1553159,9.44529101 42.579661,9.49206349 C42.6925986,9.50428573 42.7960056,9.56054476 42.8671025,9.64844737 C42.9381995,9.73634997 42.9711537,9.84868469 42.9587057,9.96070547 L42.9402157,10.1239506 C42.7600785,11.4661018 41.6110948,12.4717362 40.246225,12.4818342 L40.246225,12.4818342 Z M40.2508475,8.07971781 C39.7970872,8.08047167 39.3584786,8.24176502 39.0138675,8.53460317 C38.6611226,8.82860914 38.4433552,9.25172969 38.4101695,9.70758377 C38.34453,10.6604586 39.1118644,11.5417989 40.0862866,11.6243386 C40.9702529,11.6925516 41.7810251,11.1356766 42.027735,10.2908642 C41.7762712,10.2642681 41.5553159,10.2413404 41.3343606,10.2193298 C41.4220759,10.2923581 41.4766361,10.3972073 41.485844,10.5104378 C41.4950519,10.6236683 41.4581396,10.7358375 41.383359,10.8218695 C40.9551457,11.3008619 40.267601,11.457318 39.6717496,11.2113594 C39.0758982,10.9654008 38.7031913,10.3712886 38.7439137,9.73234568 C38.7735255,9.34660218 38.9584655,8.98893524 39.2570108,8.74003527 C39.7747695,8.31349603 40.5115759,8.26932186 41.0773498,8.63089947 L41.3371341,8.4291358 C41.0619683,8.23513999 40.7396648,8.11737933 40.4033898,8.08797178 C40.3562404,8.08430335 40.3035439,8.08246914 40.2508475,8.08246914 L40.2508475,8.07971781 Z M40.242527,9.23435626 C40.0861394,9.23394234 39.934598,9.28816494 39.8144838,9.38751323 C39.690416,9.49012151 39.6139473,9.63852353 39.6027735,9.79837743 C39.5873966,9.97528331 39.6517036,10.1498741 39.7784284,10.2752734 L39.8348228,9.65255732 C39.856346,9.42013411 40.0625775,9.24828474 40.2970724,9.26737213 L40.5050847,9.28571429 C40.4395154,9.25939579 40.3703286,9.24301027 40.2998459,9.23710758 C40.2832049,9.23802469 40.2628659,9.23710758 40.242527,9.23710758 L40.242527,9.23435626 Z" id="Shape" fill="#49FF06"></path>
                            <path d="M46.0520801,13.170582 C46.0314593,13.1720438 46.0107595,13.1720438 45.9901387,13.170582 C45.5278891,13.1036332 45.2958398,13.0715344 44.8317411,13.0100882 C44.7186744,12.9957119 44.6160585,12.9371904 44.5466404,12.8474963 C44.4772223,12.7578021 44.4467367,12.644345 44.4619414,12.5322751 L44.6302003,11.2905115 L44.0579353,11.21806 L43.9063174,12.4616578 C43.8765394,12.693544 43.6630748,12.8576975 43.4292758,12.8285009 C42.9670262,12.7725573 42.7331279,12.7459612 42.2681048,12.6955203 C42.1551672,12.683298 42.0517602,12.627039 41.9806633,12.5391364 C41.9095663,12.4512338 41.8766121,12.3388991 41.8890601,12.2268783 L42.3753467,7.85319224 C42.3876674,7.74115763 42.4443799,7.63857743 42.532991,7.56804893 C42.621602,7.49752042 42.7348422,7.46482969 42.8477658,7.47717813 C43.3349769,7.53037037 43.5781202,7.55880071 44.0644068,7.61657848 C44.2978893,7.64659117 44.4631089,7.85802036 44.4342065,8.089806 L44.2955316,9.22335097 L44.8936826,9.2994709 L45.0471495,8.16776014 C45.0616416,8.05559737 45.1206348,7.95380193 45.2110518,7.88493885 C45.3014689,7.81607578 45.4158404,7.78583396 45.5288136,7.80091711 C46.0151002,7.86603175 46.257319,7.89904762 46.742681,7.9687478 C46.8551344,7.98485424 46.9565188,8.04465161 47.024496,8.1349647 C47.0924733,8.22527779 47.1214655,8.33869582 47.1050847,8.45022928 L46.4681048,12.8046561 C46.4389857,13.0149731 46.2577621,13.1716395 46.0437596,13.1714991 L46.0520801,13.170582 Z M45.3707242,12.2204586 L45.6896764,12.2644797 L46.203698,8.75104056 L45.8468413,8.70151675 L45.6942989,9.83231041 C45.6798068,9.94447317 45.6208136,10.0462686 45.5303966,10.1151317 C45.4399795,10.1839948 45.325608,10.2142366 45.2126348,10.1991534 C44.6385208,10.1230335 44.3510015,10.0863492 43.7750385,10.0157319 C43.541556,9.98571924 43.3763364,9.77429005 43.4052388,9.54250441 L43.5439137,8.40987654 L43.187057,8.3686067 L42.7950693,11.8976367 L43.1140216,11.934321 L43.2656394,10.689806 C43.2963666,10.458459 43.5091719,10.2948126 43.742681,10.322963 C44.3167951,10.391746 44.6033898,10.4284303 45.1756549,10.5063845 C45.2886147,10.520994 45.3910778,10.5795749 45.4604497,10.6692094 C45.5298216,10.7588438 45.5604045,10.8721699 45.5454545,10.9841975 L45.3707242,12.2204586 Z" id="Shape" fill="#49FF06"></path>
                            <path d="M48.5676425,13.5621869 C48.5437999,13.5623443 48.5199864,13.5605035 48.4964561,13.5566843 C48.0342065,13.4796473 47.8030817,13.4420459 47.340832,13.3732628 C47.1074665,13.3361727 46.9483061,13.1188205 46.9848998,12.8871958 L47.4268105,10.0881834 C47.1882897,10.0514991 46.9802773,10.0203175 46.6714946,9.97537919 C46.5590252,9.95906277 46.4577161,9.89904025 46.3899057,9.80854646 C46.3220953,9.71805266 46.2933527,9.60451944 46.3100154,9.4929806 L46.4782743,8.35485009 C46.4944888,8.2431702 46.5549375,8.14251867 46.6462216,8.07520555 C46.7375056,8.00789244 46.8520844,7.9794782 46.9645609,7.99626102 C48.1728814,8.17051146 49.3950693,8.3686067 50.5978428,8.58504409 C50.8303885,8.62687178 50.9847564,8.84774551 50.942681,9.07844797 L50.7374422,10.2101587 C50.7176377,10.321226 50.654009,10.4198761 50.5606504,10.484257 C50.4672918,10.548638 50.3519095,10.5734356 50.2400616,10.553157 C49.9220339,10.4962963 49.7093991,10.4614462 49.4625578,10.417425 L48.9901387,13.2063492 C48.9553661,13.4108768 48.7767302,13.5605533 48.5676425,13.5603527 L48.5676425,13.5621869 Z M47.8973806,12.5964727 L48.2163328,12.6478307 L48.6915254,9.8552381 C48.7103038,9.74403069 48.7728994,9.64479898 48.8655099,9.57942326 C48.9581205,9.51404754 49.0731403,9.4878968 49.185208,9.50673721 C49.5078582,9.56084656 49.7223421,9.59844797 49.9728814,9.64063492 L50.0265023,9.34532628 C49.1103236,9.18483245 48.1858243,9.03442681 47.2668721,8.89777778 L47.2224961,9.19492063 C47.4647149,9.23068783 47.6745763,9.2637037 47.9861325,9.31231041 C48.0985009,9.32967985 48.1992825,9.39069429 48.2662339,9.48188732 C48.3331852,9.57308035 48.3608021,9.68695473 48.3429892,9.79837743 L47.8973806,12.5964727 Z" id="Shape" fill="#49FF06"></path>
                            <path d="M51.5167951,14.0693474 C51.3942265,14.0693303 51.2719418,14.0576603 51.1516179,14.0344974 C50.6796252,13.9487244 50.2614643,13.6800992 49.9894772,13.287942 C49.7174902,12.8957848 49.6140514,12.4123555 49.7020031,11.9444092 C49.7220268,11.8332691 49.785844,11.7346155 49.8793498,11.6702526 C49.9728557,11.6058897 50.0883507,11.5811175 50.2003082,11.6014109 L50.2992296,11.618836 C50.0278303,11.233334 49.9235959,10.7559715 50.0098613,10.2936155 C50.0932627,9.83318767 50.3597854,9.4253633 50.7494607,9.16190476 C51.6145662,8.58935782 52.7832103,8.81573253 53.3676425,9.66906526 C53.6293643,10.0547977 53.7230365,10.5290039 53.6274268,10.9841975 C53.6045206,11.094702 53.5382262,11.1916212 53.4431758,11.2535638 C53.3481255,11.3155064 53.2321336,11.3373798 53.1208012,11.3143563 L53.0043143,11.2905115 C53.3796736,11.8360149 53.4189647,12.5430649 53.1063239,13.1261919 C52.7936831,13.7093188 52.1807312,14.0722413 51.5149461,14.0684303 L51.5167951,14.0693474 Z M50.5636364,12.531358 C50.6912374,12.9485491 51.084565,13.2293756 51.5238716,13.2169427 C51.9631781,13.2045098 52.3397265,12.901895 52.4431433,12.4781658 C52.4874053,12.2709563 52.4573216,12.0549181 52.3580894,11.8673721 C52.2187125,11.6054398 51.9677247,11.419799 51.6748844,11.3620459 C51.2599537,11.2850201 50.9856628,10.8899865 51.0610169,10.4779541 C51.0994975,10.2811826 51.2156639,10.1078308 51.3836672,9.99647266 C51.5538196,9.88163077 51.7631922,9.83903439 51.9651772,9.87816578 C52.2179437,9.92733064 52.4303739,10.0962587 52.5337442,10.3302998 L52.7694915,10.3770723 C52.7434837,10.2938346 52.7054954,10.2147588 52.6567026,10.1422928 C52.5035754,9.91814786 52.2660455,9.76447561 51.9975347,9.71583774 C51.7336744,9.66165608 51.45894,9.71556829 51.2357473,9.86532628 C51.034761,10.0002512 50.8971095,10.2098716 50.8539291,10.4467725 C50.8125478,10.6948945 50.872318,10.9491568 51.020068,11.1535272 C51.167818,11.3578977 51.3914214,11.4956028 51.6416025,11.5362963 C51.8437205,11.5760392 52.0218254,11.693387 52.1371341,11.8627866 C52.2507752,12.0286684 52.2927264,12.2327838 52.253621,12.4295591 C52.1838156,12.75502 51.9099077,12.9983717 51.5761423,13.0314604 C51.2423769,13.0645492 50.9253393,12.8797825 50.7919877,12.5744621 L50.5636364,12.531358 Z" id="Shape" fill="#49FF06"></path>
                            <path d="M6.9605547,9.60853616 C7.63728814,9.4691358 7.97750385,9.40218695 8.65516179,9.27379189 C9.87827427,9.05276896 11.1115562,9.81488536 11.3195686,11.03097 C11.5220339,12.2140388 10.6872111,13.3530864 9.48998459,13.5988713 C8.83728814,13.7226808 8.51186441,13.7868783 7.86101695,13.920776 L6.9605547,9.60853616 Z M8.78274268,12.5707937 L9.27457627,12.4790829 C9.64970786,12.4159604 9.96108451,12.1564999 10.0885178,11.8008508 C10.2159511,11.4452017 10.1395082,11.0489941 9.88869522,10.7651602 C9.63788225,10.4813264 9.25193106,10.3542632 8.8798151,10.4330159 L8.37873652,10.5247266 L8.78274268,12.5707937 Z" id="Shape" fill="#000000"></path>
                            <path d="M14.4656394,12.7670547 C14.1244992,12.3442681 13.9525424,12.1333333 13.6058552,11.712381 C13.3155624,11.755485 13.1694915,11.7784127 12.8791988,11.823351 L13.0640986,12.9761552 C12.601849,13.0486067 12.3679507,13.0862081 11.9047766,13.1595767 L11.1651772,8.82074074 C11.9389831,8.69142857 12.3263482,8.62998236 13.1010786,8.51442681 C14.0329738,8.37502646 14.8936826,8.99407407 15.014792,9.87816578 C15.0735729,10.3269904 14.9393658,10.779646 14.6449923,11.1254321 C15.1155624,11.704127 15.3476117,11.9948501 15.8080123,12.5790476 C15.2690293,12.6560847 15.0009245,12.6900176 14.4656394,12.7670547 Z M12.7229584,10.8411287 C13.0160247,10.7952734 13.16302,10.7732628 13.4560863,10.7292416 C13.686296,10.7018918 13.8832673,10.5524449 13.9701551,10.3392051 C14.0570429,10.1259653 14.0200813,9.88271698 13.8736902,9.7043594 C13.7272991,9.52600182 13.4946718,9.44079284 13.2665639,9.48197531 C12.9697997,9.52599647 12.8218798,9.54892416 12.5269646,9.59569665 L12.7229584,10.8411287 Z" id="Shape" fill="#000000"></path>
                            <path d="M17.2881356,7.9696649 C18.5121726,7.83209877 19.6918336,8.70335097 19.803698,9.92952381 C19.9146379,11.1217637 18.9855162,12.2067019 17.7882897,12.3415168 C16.5910632,12.4763316 15.4446841,11.6252557 15.2838213,10.4376014 C15.1220339,9.21784832 16.0677966,8.10723104 17.2881356,7.9696649 Z M17.41849,9.11238095 C16.8443998,9.19355814 16.4430149,9.71783606 16.5182662,10.2882286 C16.5935176,10.8586211 17.1173895,11.262775 17.6932034,11.1946626 C18.2690173,11.1265502 18.6824014,10.6115294 18.620339,10.0395767 C18.5871208,9.758249 18.4417044,9.50183823 18.2165703,9.32761697 C17.9914362,9.1533957 17.7053411,9.07587892 17.422188,9.11238095 L17.41849,9.11238095 Z" id="Shape" fill="#000000"></path>
                            <path d="M19.8231125,7.71287478 C20.3084746,7.66885362 20.5516179,7.64867725 21.0379045,7.60924162 L21.3929122,11.9948501 C20.9251156,12.0324515 20.6921418,12.0517108 20.2252696,12.0938977 L19.8231125,7.71287478 Z" id="Shape" fill="#000000"></path>
                            <path d="M21.3559322,7.58539683 C22.0419106,7.53220459 22.3848998,7.50835979 23.0718028,7.46617284 C24.3115562,7.4010582 25.4311248,8.31449735 25.4819723,9.54433862 C25.5318952,10.7365785 24.564869,11.7674074 23.348228,11.8582011 C22.6881356,11.8994709 22.3580894,11.9223986 21.6989214,11.9728395 L21.3559322,7.58539683 Z M22.785208,10.7530864 L23.2825886,10.7209877 C23.663034,10.705728 24.0053559,10.4873974 24.1772601,10.1503722 C24.3491643,9.81334703 24.3237224,9.41042128 24.1107669,9.09731012 C23.8978114,8.78419897 23.530701,8.60995042 23.1513097,8.64190476 L22.6437596,8.67400353 L22.785208,10.7530864 Z" id="Shape" fill="#000000"></path>
                            <path d="M32.2548536,7.26165785 C31.3950693,8.05128748 30.9716487,8.45389771 30.1414484,9.25636684 C30.9605547,10.0456908 31.7657935,10.8496884 32.5571649,11.6683598 C31.8961479,11.6546032 31.5661017,11.6500176 30.9041602,11.6463492 C30.2727273,11.0181305 29.9528505,10.7063139 29.3038521,10.0872663 L29.0265023,10.3715697 C29.0320493,10.8833157 29.0348228,11.1391887 29.0403698,11.6509347 C28.5716487,11.6555203 28.3377504,11.6601058 27.8690293,11.6692769 C27.8375963,10.2019048 27.8067797,8.73453263 27.7765794,7.26716049 C28.2637904,7.25707231 28.5078582,7.25248677 28.9950693,7.24790123 C29.0015408,7.84126984 29.0043143,8.1384127 29.0107858,8.73178131 C29.6191063,8.13107584 29.9278891,7.83301587 30.5528505,7.24148148 C31.2305085,7.24514991 31.5716487,7.24973545 32.2548536,7.26165785 Z" id="Shape" fill="#000000"></path>
                            <path d="M35.6468413,11.7765785 C34.8471495,10.9034921 34.4385208,10.4706173 33.6064715,9.61220459 L33.5436055,11.6940388 C33.0748844,11.6802822 32.8409861,11.6738624 32.372265,11.6656085 C32.4012327,10.1982363 32.4298921,8.7308642 32.4582435,7.26349206 L32.9528505,7.27449735 C33.8107858,8.12557319 34.231433,8.55844797 35.0570108,9.42236332 C35.0930663,8.59696649 35.1106317,8.17693122 35.1494607,7.34694885 C35.6366718,7.36804233 35.8798151,7.37904762 36.3670262,7.40564374 C36.2881356,8.87301587 36.2089368,10.3376367 36.1294299,11.7995062 L35.6468413,11.7765785 Z" id="Shape" fill="#000000"></path>
                            <path d="M36.6739599,7.42857143 C37.161171,7.45608466 37.4043143,7.47075838 37.8906009,7.50285714 L37.5938367,11.8930511 C37.1260401,11.8618695 36.8921418,11.8481129 36.4243451,11.8215168 L36.6739599,7.42857143 Z" id="Shape" fill="#000000"></path>
                            <path d="M42.5269646,9.94878307 L42.5084746,10.1120282 C42.3479677,11.3149027 41.2635407,12.1807556 40.0446841,12.079224 C38.8428351,11.9728395 37.8970724,10.9044092 37.9793529,9.7103351 C38.0634823,8.48324515 39.2080123,7.59365079 40.4394453,7.69269841 C41.0441474,7.74395261 41.6044587,8.02845402 42,8.48507937 C41.6302003,8.77213404 41.4397535,8.91611993 41.0699538,9.20684303 C40.8808749,8.99753945 40.6182383,8.86792734 40.3359014,8.84458554 C40.0540874,8.81521436 39.7721788,8.89925451 39.5533705,9.07786688 C39.3345622,9.25647925 39.197157,9.51472329 39.1719569,9.79470899 C39.1325083,10.3723585 39.5667402,10.8749119 40.148228,10.9245855 C40.4908011,10.9577664 40.8288652,10.8273671 41.0588598,10.5733333 C40.7103236,10.5394004 40.5355932,10.5238095 40.187057,10.4926279 L40.2563945,9.72134039 C41.1697997,9.80479718 41.6237288,9.84973545 42.5269646,9.94878307 Z" id="Shape" fill="#000000"></path>
                            <path d="M44.0163328,8.07054674 L43.8268105,9.62962963 C44.4046225,9.69932981 44.6930663,9.73601411 45.2699538,9.81305115 L45.4798151,8.25396825 C45.9642527,8.31816578 46.205547,8.35209877 46.6890601,8.42179894 L46.0520801,12.7762257 C45.5898305,12.7092769 45.3550077,12.6771781 44.8890601,12.6148148 L45.1155624,10.9530159 C44.5451464,10.8768959 44.2594761,10.8411287 43.6872111,10.7695944 L43.4838213,12.4350617 C43.0215716,12.3791182 42.7848998,12.352522 42.3180277,12.301164 L42.8043143,7.93022928 C43.2896764,7.98342152 43.5318952,8.01185185 44.0163328,8.07054674 Z" id="Shape" fill="#000000"></path>
                            <path d="M46.9044684,8.44747795 C48.1155624,8.62417402 49.3217257,8.81982363 50.5229584,9.03442681 L50.3177196,10.1661376 C49.8360555,10.0799295 49.5956857,10.0386596 49.1158706,9.95795414 L48.5694915,13.1678307 C48.1072419,13.0898765 47.8742681,13.0522751 47.4101695,12.9844092 L47.9214176,9.76811287 C47.448074,9.69382716 47.2114022,9.65805996 46.7380586,9.58469136 L46.9044684,8.44747795 Z" id="Shape" fill="#000000"></path>
                            <path d="M52.16302,10.7200705 C52.193996,10.5354865 52.0709192,10.3600799 51.8856703,10.3247972 C51.7012094,10.2881598 51.521544,10.4061596 51.4835131,10.5889242 C51.4682707,10.6767677 51.4889748,10.7670143 51.541037,10.8396629 C51.5930992,10.9123115 51.6722195,10.961362 51.7608629,10.9759436 C52.1820905,11.0581628 52.543102,11.3252391 52.742681,11.7022928 C52.8878866,11.9768708 52.9320231,12.2930858 52.8674884,12.5964727 C52.7155889,13.3468591 51.9792387,13.8330131 51.2228043,13.682328 C50.4663699,13.5316429 49.9762976,12.8011801 50.1281972,12.0507937 C50.5442219,12.1259965 50.7522342,12.1635979 51.1682589,12.2424691 C51.1509521,12.3297223 51.1695543,12.4202175 51.2199186,12.4937817 C51.2702829,12.567346 51.3482227,12.6178639 51.4363636,12.6340741 C51.6183676,12.6715909 51.7970317,12.5572453 51.8375963,12.377284 C51.87011,12.1925575 51.7462381,12.0164274 51.5602465,11.9829277 C50.8097453,11.8522819 50.3060864,11.1454256 50.4323575,10.4 C50.5673344,9.66081129 51.2995378,9.17749559 52.0798151,9.32790123 C52.8600924,9.47830688 53.364869,10.1936508 53.2114022,10.9291711 C52.788906,10.8438801 52.5827427,10.8016931 52.16302,10.7200705 Z" id="Shape" fill="#000000"></path>
                            <ellipse id="Oval" fill="#49FF06" cx="26.7272727" cy="35.2022575" rx="0.603697997" ry="0.598871252"></ellipse>
                            <ellipse id="Oval" fill="#49FF06" cx="34.1824345" cy="35.2022575" rx="0.603697997" ry="0.598871252"></ellipse>
                        </g>
                    </g>
                </g>
            </g>
        </g>
    </g>
</svg>