<svg xmlns="http://www.w3.org/2000/svg" xmlns:xlink="http://www.w3.org/1999/xlink" width="177" height="34" viewBox="0 0 177 34">
    <defs>
        <path id="a" d="M0 33.08h176.628V0H0z"/>
    </defs>
    <g fill="none" fill-rule="evenodd">
        <path fill="#FFF" d="M61.337 3.347V.78H45.912v3.688H56.98l-.053.41c-.659 5.177-5.42 8.963-12.45 9.919l1.663 3.42c4.238-.538 8.047-2.198 10.74-4.68 2.916-2.687 4.458-6.211 4.458-10.19M65.22 29.544H54.492c-2.306 0-3.795-1.158-3.795-2.95 0-1.789 1.525-2.99 3.795-2.99H65.22c2.292 0 3.833 1.201 3.833 2.99 0 1.792-1.504 2.95-3.833 2.95m0-9.478H54.492c-5.006 0-8.24 2.562-8.24 6.527 0 3.94 3.234 6.487 8.24 6.487H65.22c5.006 0 8.241-2.547 8.241-6.487 0-3.965-3.235-6.527-8.24-6.527M72.695.074H68.4v18.144h4.294v-7.432h4.226V6.718h-4.226zM107.41.074h-4.295v18.144h4.294v-7.432h4.226V6.718h-4.226zM100.282 13.027H84.347V.78h-4.294v15.962h20.23z"/>
        <mask id="b" fill="#fff">
            <use xlink:href="#a"/>
        </mask>
        <path fill="#FFF" d="M85.036 29.221h18.045v-5.295H85.036v5.295zm-4.257 3.536h26.596V20.39H80.779v12.367zM121.34 22.158h-4.295v10.514h25.865v-3.878h-21.57zM118.316 8.76c0-3.12 1.876-5.217 4.668-5.217 2.792 0 4.668 2.097 4.668 5.218v1.453c0 3.07-1.919 5.217-4.668 5.217s-4.668-2.146-4.668-5.217V8.76zm4.668 10.14c5.146 0 8.881-3.653 8.881-8.686V8.76c0-5.033-3.735-8.687-8.88-8.687-5.207 0-8.843 3.573-8.843 8.687v1.453c0 5.033 3.718 8.687 8.842 8.687zM138.654 7.355h-4.227v4.068h4.227V23.88h4.257V.066h-4.257zM152.284.78h-4.294v26.978h20.865V23.88h-16.57zM172.371 32.753h4.257V.07h-4.257z" mask="url(#b)"/>
        <path fill="#FFD267" d="M16.021 16.993H8.496a8.469 8.469 0 0 1-6.007-2.488l16.02 16.02a8.47 8.47 0 0 1-2.488-6.008v-7.524z" mask="url(#b)"/>
        <path fill="#FFF" d="M16.021 0H8.496C6.15 0 4.026.951 2.488 2.488A8.473 8.473 0 0 0 0 8.496a8.47 8.47 0 0 0 2.49 6.01 8.469 8.469 0 0 0 6.006 2.487h7.525v7.525c0 2.346.951 4.47 2.488 6.007a8.47 8.47 0 0 0 6.01 2.49c2.345 0 4.47-.952 6.006-2.49a8.466 8.466 0 0 0 2.49-6.007V0H16.02z" mask="url(#b)"/>
    </g>
</svg>
