<svg xmlns="http://www.w3.org/2000/svg" width="19" height="19" viewBox="0 0 19 19">
    <path fill="#45FC17" fill-rule="evenodd" stroke="#45FC17" stroke-width=".5" d="M8.347 5.383a3.725 3.725 0 0 0-.185 5.074.467.467 0 1 0 .707-.61l-.002-.002a2.776 2.776 0 0 1 .14-3.803l3.292-3.293c1.1-1.1 2.851-1.1 3.952 0 1.1 1.1 1.1 2.851 0 3.952l-3.293 3.293a.465.465 0 1 0 .658.658L16.91 7.36a3.728 3.728 0 0 0 0-5.269 3.728 3.728 0 0 0-5.27 0L8.348 5.383zM2.09 11.641a3.728 3.728 0 0 0 0 5.269 3.728 3.728 0 0 0 5.27 0l3.293-3.293a3.725 3.725 0 0 0 .185-5.074.467.467 0 0 0-.705.612 2.777 2.777 0 0 1-.14 3.803L6.702 16.25a2.778 2.778 0 0 1-3.952 0 2.778 2.778 0 0 1 0-3.952l3.293-3.293a.466.466 0 1 0-.659-.659L2.09 11.641z"/>
</svg>
