<svg xmlns="http://www.w3.org/2000/svg" width="218" height="82" viewBox="0 0 218 82">
    <path fill="#3ACE01" fill-rule="evenodd" d="M9.193 81.846H42.81c4.781 0 8.693-3.911 8.693-8.692v-.726c0-4.78-3.912-8.69-8.693-8.69h-24.2V8.69C18.61 3.911 14.7 0 9.919 0h-.725C4.41 0 .5 3.91.5 8.691v64.463c0 4.78 3.911 8.692 8.693 8.692zM217.5 41.44v-.725c0-4.781-3.912-8.692-8.694-8.692h-24.198v-13.76h24.198c4.782 0 8.694-3.91 8.694-8.692v-.725c0-4.78-3.912-8.691-8.694-8.691h-33.617c-4.782 0-8.693 3.91-8.693 8.691v64.462c0 4.781 3.911 8.693 8.693 8.693h33.617c4.782 0 8.694-3.912 8.694-8.693v-.725c0-4.78-3.912-8.69-8.694-8.69h-24.198V50.13h24.198c4.782 0 8.694-3.91 8.694-8.691zm-64.65 37.816l.003-.004a8.665 8.665 0 0 0 2.514-6.096V8.69c0-4.78-3.911-8.691-8.694-8.691h-.725c-4.782 0-8.693 3.91-8.693 8.691v37.84l-31.42-42.136C104.335 1.776 101.508 0 98.287 0h-.725c-4.782 0-8.694 3.91-8.694 8.691v64.463c0 4.78 3.911 8.692 8.694 8.692h.725c4.782 0 8.693-3.911 8.693-8.692V34.607l31.647 43.217c.195.303.408.594.637.87l.002.003c.87 1.185 2.059 1.998 3.384 2.495a8.617 8.617 0 0 0 3.298.654h.725a8.615 8.615 0 0 0 4.061-1.015c.869-.415 1.6-.947 2.117-1.576zm-85.638 2.591h.725c4.782 0 8.693-3.911 8.693-8.692V8.69C76.629 3.911 72.717 0 67.936 0h-.724c-4.782 0-8.694 3.91-8.694 8.691v64.463c0 4.78 3.912 8.692 8.694 8.692z"/>
</svg>
