<?xml version="1.0" encoding="iso-8859-1"?>
<!-- Generator: Adobe Illustrator 19.0.0, SVG Export Plug-In . SVG Version: 6.00 Build 0)  -->
<svg version="1.1" id="Layer_1" xmlns="http://www.w3.org/2000/svg" xmlns:xlink="http://www.w3.org/1999/xlink" x="0px" y="0px"
	 viewBox="0 0 400 300" style="enable-background:new 0 0 400 300;" xml:space="preserve">
<g>
	
		<image style="overflow:visible;" width="512" height="287" id="XMLID_10_" xlink:href="E18E23D9B8B8813B.png"  transform="matrix(0.5721 0 0 0.5721 55.6112 81.457)">
	</image>
	<path id="XMLID_9_" style="opacity:0.3;fill:#03EDFF;" d="M41.718,253.78c-4.286-14.782-6.584-30.41-6.584-46.574
		c0-92.192,74.736-166.928,166.928-166.928s166.928,74.736,166.928,166.928c0,11.452-1.153,22.635-3.35,33.438L41.718,253.78z"/>
	<rect id="XMLID_8_" x="34.957" y="247.212" style="fill:#EAE5E9;" width="329.969" height="13.135"/>
	<path id="XMLID_7_" style="fill:#9B9B9B;" d="M365.336,226.745c10.471-6.118,17.907-21.622,17.907-39.782
		c0-17.634-7.012-32.765-17.006-39.228L365.336,226.745z"/>
	<path id="XMLID_6_" style="fill:#EAE5E9;" d="M362.052,236.631L362.052,236.631c-4.039,0-7.314-3.275-7.314-7.314v-82.968
		c0-4.039,3.275-7.314,7.314-7.314l0,0c4.039,0,7.314,3.275,7.314,7.314v82.968C369.366,233.356,366.091,236.631,362.052,236.631z"
		/>
	<path id="XMLID_5_" style="fill:#9B9B9B;" d="M36.647,226.745c-10.471-6.118-17.907-21.622-17.907-39.782
		c0-17.634,7.012-32.765,17.006-39.228L36.647,226.745z"/>
	<path id="XMLID_4_" style="fill:#EAE5E9;" d="M39.932,236.631L39.932,236.631c4.039,0,7.314-3.275,7.314-7.314v-82.968
		c0-4.039-3.275-7.314-7.314-7.314h0c-4.039,0-7.314,3.275-7.314,7.314v82.968C32.618,233.356,35.892,236.631,39.932,236.631z"/>
	<path id="XMLID_3_" style="fill:#9B9B9B;" d="M366.105,247.212H33.777c-3.627,0-6.567-2.94-6.567-6.567v0
		c0-3.627,2.94-6.567,6.567-6.567h332.329c3.627,0,6.567,2.94,6.567,6.567v0C372.673,244.271,369.732,247.212,366.105,247.212z"/>
	<path id="XMLID_2_" style="fill:#EAE5E9;" d="M73.539,99.409c0,0,114.699-39.895,253.619,0c0,0-39.895-59.13-126.81-59.13
		S73.539,99.409,73.539,99.409z"/>
	<path id="XMLID_1_" style="opacity:0.3;fill:#DBDBDB;" d="M260.75,50.937c0,0,30.777,46.648,35.933,183.14h25.209
		c0,0,4.87-103.695-28.217-166.081C293.675,67.996,281.582,57.438,260.75,50.937z"/>
</g>
</svg>
