<svg width="26" height="15" viewBox="0 0 26 15" fill="none" xmlns="http://www.w3.org/2000/svg">
<path d="M19.3938 4.62643L21.4305 0.642857C21.5778 0.36 21.3893 0 21.0773 0C20.9343 0 20.7957 0.0814286 20.722 0.225L18.6658 4.24929C15.3487 2.67 10.9872 2.50929 7.33633 4.24929L5.278 0.225C5.2065 0.0814286 5.06783 0 4.92267 0C4.61067 0 4.42217 0.36 4.5695 0.642857L6.60617 4.62643C2.60867 6.84214 0 10.1636 0 14.9979H26C26 10.1636 23.3913 6.84214 19.3938 4.62643ZM7.5855 10.7143C6.9875 10.7143 6.5 10.2343 6.5 9.64286C6.5 9.05571 6.9875 8.57143 7.5855 8.57143C8.1835 8.57143 8.66667 9.05571 8.66667 9.64286C8.66667 10.2343 8.1835 10.7143 7.5855 10.7143ZM18.4145 10.7143C17.8165 10.7143 17.3333 10.2343 17.3333 9.64286C17.3333 9.05571 17.8165 8.57143 18.4145 8.57143C19.0125 8.57143 19.5 9.05571 19.5 9.64286C19.5 10.2343 19.0125 10.7143 18.4145 10.7143Z" fill="#00DEAB"/>
</svg>
