<svg width="12" height="7" viewBox="0 0 12 7" fill="#B9B9B9" xmlns="http://www.w3.org/2000/svg">
<path d="M8.951 2.159L9.891 0.3C9.959 0.168 9.872 0 9.728 0C9.662 0 9.598 0.038 9.564 0.105L8.615 1.983C7.084 1.246 5.071 1.171 3.386 1.983L2.436 0.105C2.403 0.038 2.339 0 2.272 0C2.128 0 2.041 0.168 2.109 0.3L3.049 2.159C1.204 3.193 0 4.743 0 6.999H12C12 4.743 10.796 3.193 8.951 2.159ZM3.501 5C3.225 5 3 4.776 3 4.5C3 4.226 3.225 4 3.501 4C3.777 4 4 4.226 4 4.5C4 4.776 3.777 5 3.501 5ZM8.499 5C8.223 5 8 4.776 8 4.5C8 4.226 8.223 4 8.499 4C8.775 4 9 4.226 9 4.5C9 4.776 8.775 5 8.499 5Z" fill="#B9B9B9"/>
</svg>
