<?xml version="1.0" encoding="utf-8"?>
<!-- Generator: Adobe Illustrator 23.0.4, SVG Export Plug-In . SVG Version: 6.00 Build 0)  -->
<svg version="1.1" id="레이어_1" xmlns="http://www.w3.org/2000/svg" xmlns:xlink="http://www.w3.org/1999/xlink" x="0px"
	 y="0px" viewBox="190 300 640 170" style="enable-background:new 0 0 1024 768;" xml:space="preserve">
<style type="text/css">
	.st0{fill:#FFFFFF;}
</style>
<g>
	<path class="st0" d="M411.9,342.7h19.6v-22.9l26.6-15.7v38.6H486v24h-27.9v43.6c0,11.2,4.7,15.1,11.5,15.1c3.7,0,6.7-1.2,9.8-3.9
		l12.3,21.2c-6.9,5.1-15.6,8.1-25.4,8.1c-22.1,0-35.2-10.6-35.2-39.4v-44.6h-19.6v-24.1L411.9,342.7L411.9,342.7z"/>
	<path class="st0" d="M495.5,395.5c0-30.7,24.1-55.1,55.9-55.1c31.6,0,56.2,24.6,56.2,55.1c0,30.4-24.1,55.1-56.2,55.1
		C519.7,450.8,495.5,426.1,495.5,395.5z M580.7,395.4c0-16.5-12.9-29.6-29.1-29.6c-16.4,0-29.1,13.1-29.1,29.6s12.8,29.6,29.1,29.6
		C567.8,425,580.7,411.9,580.7,395.4z"/>
	<path class="st0" d="M613.3,424.5l26.2-10.3c4.7,9.5,13.1,14.3,24.3,14.3c11.1,0,16.8-5.3,16.8-11.5c0-7.6-11.4-9.5-24.9-12.2
		c-17.9-3.7-37.7-9.2-37.7-31.6c0-17.9,17.3-33.3,43.5-33.2c22.4,0,35.7,8.4,45.5,22.6l-24.8,10c-4.4-7-11.1-11.2-20.9-11.2
		c-10.6,0-15.7,4.4-15.7,10.3c0,6.7,8.6,8.4,24.1,11.8c17.6,3.6,38.5,9.7,38.5,32.4c0,16.5-14.8,35.2-45.5,34.9
		C637.6,450.8,621.7,441.3,613.3,424.5z"/>
	<path class="st0" d="M715.3,424.5l26.2-10.3c4.7,9.5,13.1,14.3,24.3,14.3c11.1,0,16.8-5.3,16.8-11.5c0-7.6-11.4-9.5-24.9-12.2
		c-17.9-3.7-37.7-9.2-37.7-31.6c0-17.9,17.3-33.3,43.5-33.2c22.4,0,35.7,8.4,45.5,22.6l-24.8,10c-4.4-7-11.1-11.2-20.9-11.2
		c-10.6,0-15.7,4.4-15.7,10.3c0,6.7,8.6,8.4,24.1,11.8c17.6,3.6,38.5,9.7,38.5,32.4c0,16.5-14.8,35.2-45.5,34.9
		C739.6,450.8,723.7,441.3,715.3,424.5z"/>
	<path class="st0" d="M377,386.5c0-37.9-28.7-69.2-65.6-72.9c-5.9-0.6-9.8-0.5-12.9-0.2c-34.7,2.3-57.6,25.9-72.9,53.4
		c-12.3,22.3-19.9,46.4-23.5,67c10.6-7.2,22.3-12.8,34.7-16.2c11.7,25.1,37.1,42.4,66.7,42.4C344.2,459.9,377,427,377,386.5z"/>
</g>
</svg>
