<svg xmlns="http://www.w3.org/2000/svg" viewBox="0 0 733.32 316.29"><defs><style>.cls-1{fill:#09ffa0;}.cls-2{fill:#01ff44;}.cls-3{fill:#c3fb00;}.cls-4{fill:#fff;}</style></defs><title>dk2020_logo</title><g id="레이어_2" data-name="레이어 2"><g id="레이어_2-2" data-name="레이어 2"><path class="cls-1" d="M41,282.25v7.24a2,2,0,0,1-2,2H2a2,2,0,0,1-2-2v-7.24a2,2,0,0,0,2,2H39A2,2,0,0,0,41,282.25Z"/><path class="cls-1" d="M102.77,288.68a2,2,0,0,1-1.83,2.81H63.27a2,2,0,0,1-1.81-1.14L44.81,255.46a2,2,0,0,0-3.81.86v-7.24a2,2,0,0,1,3.81-.86l16.65,34.89a2,2,0,0,0,1.81,1.14h37.56Z"/><path class="cls-1" d="M104.56,183.38,80.69,231.1l-1.31-3a2,2,0,0,1,0-1.7l23-45.92h.39A2,2,0,0,1,104.56,183.38Z"/><path class="cls-1" d="M158.25,280.35v7.24a2,2,0,0,1-2,2h-34a2,2,0,0,1-2-2v-7.24a2,2,0,0,0,2,2h34A2,2,0,0,0,158.25,280.35Z"/><path class="cls-1" d="M226.25,281.25v7.24a2,2,0,0,1-2.09,2l-39-.86a2,2,0,0,1-1.51-.8l-21.83-29.39a2,2,0,0,0-3.61,1.19v-7.24a2,2,0,0,1,3.61-1.19l21.83,29.39a2,2,0,0,0,1.51.8l39,.86A2,2,0,0,0,226.25,281.25Z"/><path class="cls-1" d="M282.74,282.23v7.24a2,2,0,0,1-2,2h-37a2,2,0,0,1-2-2v-7.24a2,2,0,0,0,2,2h37A2,2,0,0,0,282.74,282.23Z"/><path class="cls-1" d="M459.69,282.25v7.24a2,2,0,0,1-2,2h-35a2,2,0,0,1-2-2v-7.24a2,2,0,0,0,2,2h35A2,2,0,0,0,459.69,282.25Z"/><path class="cls-1" d="M523.69,282.25v7.24a2,2,0,0,1-2,2h-35a2,2,0,0,1-2-2v-7.24a2,2,0,0,0,2,2h35A2,2,0,0,0,523.69,282.25Z"/><path class="cls-1" d="M558.78,221.49a2,2,0,0,0-2-2h-18a2,2,0,0,1-2-2v-7.24a2,2,0,0,0,2,2h18a2,2,0,0,1,2,2Z"/><path class="cls-1" d="M598.78,282.25v7.24a2,2,0,0,1-2,2h-36a2,2,0,0,1-2-2v-7.24a2,2,0,0,0,2,2h36A2,2,0,0,0,598.78,282.25Z"/><path class="cls-1" d="M624.78,210.25v7.24a2,2,0,0,1-2,2h-22a2,2,0,0,0-2,2v-7.24a2,2,0,0,1,2-2h22A2,2,0,0,0,624.78,210.25Z"/><path class="cls-1" d="M733.32,214.07v7.24a2,2,0,0,1-1.12,1.79c-22,11-25.07,25.7-36.88,40.45-19.39,24.25-60.25,27.5-69.91,27.94a2,2,0,0,1-2.09-2v-7.24a2,2,0,0,0,2.09,2c9.66-.44,50.52-3.69,69.91-27.94,11.81-14.75,14.9-29.5,36.88-40.45A2,2,0,0,0,733.32,214.07Z"/><path class="cls-1" d="M407,282.36v7.24a1.9,1.9,0,0,1-1.9,1.89H372a1.89,1.89,0,0,1-1.89-1.89v-.74a1.89,1.89,0,0,0-2.44-1.8,55.81,55.81,0,0,1-72.11-57,55.81,55.81,0,0,0,72.11,49.72,1.89,1.89,0,0,1,2.44,1.8v.74a1.89,1.89,0,0,0,1.89,1.89h33.09A1.9,1.9,0,0,0,407,282.36Z"/><path class="cls-2" d="M41,294.86v7.24a2,2,0,0,1-2,2H2a2,2,0,0,1-2-2v-7.24a2,2,0,0,0,2,2H39A2,2,0,0,0,41,294.86Z"/><path class="cls-2" d="M102.77,301.29a2,2,0,0,1-1.83,2.81H63.27A2,2,0,0,1,61.46,303L44.81,268.07a2,2,0,0,0-3.81.86v-7.24a2,2,0,0,1,3.81-.86l16.65,34.89a2,2,0,0,0,1.81,1.14h37.56Z"/><path class="cls-2" d="M104.56,196,80.69,243.71l-1.31-3a2,2,0,0,1,0-1.7l23-45.92h.39A2,2,0,0,1,104.56,196Z"/><path class="cls-2" d="M158.25,293v7.24a2,2,0,0,1-2,2h-34a2,2,0,0,1-2-2V293a2,2,0,0,0,2,2h34A2,2,0,0,0,158.25,293Z"/><path class="cls-2" d="M226.25,293.86v7.24a2,2,0,0,1-2.09,2l-39-.86a2,2,0,0,1-1.51-.8l-21.83-29.39a2,2,0,0,0-3.61,1.19V266a2,2,0,0,1,3.61-1.19l21.83,29.39a2,2,0,0,0,1.51.8l39,.86A2,2,0,0,0,226.25,293.86Z"/><path class="cls-2" d="M282.74,294.84v7.24a2,2,0,0,1-2,2h-37a2,2,0,0,1-2-2v-7.24a2,2,0,0,0,2,2h37A2,2,0,0,0,282.74,294.84Z"/><path class="cls-2" d="M459.69,294.86v7.24a2,2,0,0,1-2,2h-35a2,2,0,0,1-2-2v-7.24a2,2,0,0,0,2,2h35A2,2,0,0,0,459.69,294.86Z"/><path class="cls-2" d="M523.69,294.86v7.24a2,2,0,0,1-2,2h-35a2,2,0,0,1-2-2v-7.24a2,2,0,0,0,2,2h35A2,2,0,0,0,523.69,294.86Z"/><path class="cls-2" d="M558.78,234.1a2,2,0,0,0-2-2h-18a2,2,0,0,1-2-2v-7.24a2,2,0,0,0,2,2h18a2,2,0,0,1,2,2Z"/><path class="cls-2" d="M598.78,294.86v7.24a2,2,0,0,1-2,2h-36a2,2,0,0,1-2-2v-7.24a2,2,0,0,0,2,2h36A2,2,0,0,0,598.78,294.86Z"/><path class="cls-2" d="M624.78,222.86v7.24a2,2,0,0,1-2,2h-22a2,2,0,0,0-2,2v-7.24a2,2,0,0,1,2-2h22A2,2,0,0,0,624.78,222.86Z"/><path class="cls-2" d="M733.32,226.68v7.24a2,2,0,0,1-1.12,1.79c-22,10.95-25.07,25.7-36.88,40.45-19.39,24.25-60.25,27.5-69.91,27.94a2,2,0,0,1-2.09-2v-7.24a2,2,0,0,0,2.09,2c9.66-.44,50.52-3.69,69.91-27.94,11.81-14.75,14.9-29.5,36.88-40.45A2,2,0,0,0,733.32,226.68Z"/><path class="cls-2" d="M407,295v7.24a1.9,1.9,0,0,1-1.9,1.89H372a1.89,1.89,0,0,1-1.89-1.89v-.74a1.89,1.89,0,0,0-2.44-1.8,55.81,55.81,0,0,1-72.11-57,55.81,55.81,0,0,0,72.11,49.72,1.89,1.89,0,0,1,2.44,1.8V295a1.89,1.89,0,0,0,1.89,1.89h33.09A1.9,1.9,0,0,0,407,295Z"/><path class="cls-3" d="M41,307.05v7.24a2,2,0,0,1-2,2H2a2,2,0,0,1-2-2v-7.24a2,2,0,0,0,2,2H39A2,2,0,0,0,41,307.05Z"/><path class="cls-3" d="M102.77,313.48a2,2,0,0,1-1.83,2.81H63.27a2,2,0,0,1-1.81-1.14L44.81,280.26a2,2,0,0,0-3.81.86v-7.24a2,2,0,0,1,3.81-.86l16.65,34.89a2,2,0,0,0,1.81,1.14h37.56Z"/><path class="cls-3" d="M104.56,208.18,80.69,255.9l-1.31-3a2,2,0,0,1,0-1.7l23-45.92h.39A2,2,0,0,1,104.56,208.18Z"/><path class="cls-3" d="M158.25,305.15v7.24a2,2,0,0,1-2,2h-34a2,2,0,0,1-2-2v-7.24a2,2,0,0,0,2,2h34A2,2,0,0,0,158.25,305.15Z"/><path class="cls-3" d="M226.25,306.05v7.24a2,2,0,0,1-2.09,2l-39-.86a2,2,0,0,1-1.51-.8l-21.83-29.39a2,2,0,0,0-3.61,1.19v-7.24a2,2,0,0,1,3.61-1.19l21.83,29.39a2,2,0,0,0,1.51.8l39,.86A2,2,0,0,0,226.25,306.05Z"/><path class="cls-3" d="M282.74,307v7.24a2,2,0,0,1-2,2h-37a2,2,0,0,1-2-2V307a2,2,0,0,0,2,2h37A2,2,0,0,0,282.74,307Z"/><path class="cls-3" d="M459.69,307.05v7.24a2,2,0,0,1-2,2h-35a2,2,0,0,1-2-2v-7.24a2,2,0,0,0,2,2h35A2,2,0,0,0,459.69,307.05Z"/><path class="cls-3" d="M523.69,307.05v7.24a2,2,0,0,1-2,2h-35a2,2,0,0,1-2-2v-7.24a2,2,0,0,0,2,2h35A2,2,0,0,0,523.69,307.05Z"/><path class="cls-3" d="M558.78,246.29a2,2,0,0,0-2-2h-18a2,2,0,0,1-2-2v-7.24a2,2,0,0,0,2,2h18a2,2,0,0,1,2,2Z"/><path class="cls-3" d="M598.78,307.05v7.24a2,2,0,0,1-2,2h-36a2,2,0,0,1-2-2v-7.24a2,2,0,0,0,2,2h36A2,2,0,0,0,598.78,307.05Z"/><path class="cls-3" d="M624.78,235.05v7.24a2,2,0,0,1-2,2h-22a2,2,0,0,0-2,2v-7.24a2,2,0,0,1,2-2h22A2,2,0,0,0,624.78,235.05Z"/><path class="cls-3" d="M733.32,238.87v7.24a2,2,0,0,1-1.12,1.79c-22,11-25.07,25.7-36.88,40.45-19.39,24.25-60.25,27.5-69.91,27.94a2,2,0,0,1-2.09-2v-7.24a2,2,0,0,0,2.09,2c9.66-.44,50.52-3.69,69.91-27.94,11.81-14.75,14.9-29.5,36.88-40.45A2,2,0,0,0,733.32,238.87Z"/><path class="cls-3" d="M407,307.16v7.24a1.9,1.9,0,0,1-1.9,1.89H372a1.89,1.89,0,0,1-1.89-1.89v-.74a1.89,1.89,0,0,0-2.44-1.8,55.81,55.81,0,0,1-72.11-57,55.81,55.81,0,0,0,72.11,49.72,1.89,1.89,0,0,1,2.44,1.8v.74a1.89,1.89,0,0,0,1.89,1.89h33.09A1.9,1.9,0,0,0,407,307.16Z"/><path class="cls-4" d="M0,169.83v107a2,2,0,0,0,2,2H39a2,2,0,0,0,2-2V243.66a2,2,0,0,1,3.81-.86l16.65,34.89a2,2,0,0,0,1.81,1.14h37.67a2,2,0,0,0,1.83-2.8L79.38,222.69a2,2,0,0,1,0-1.7l25.14-50.27a2,2,0,0,0-1.79-2.89H64.23a2,2,0,0,0-1.78,1.09L44.78,203.44a2,2,0,0,1-3.78-.91v-32.7a2,2,0,0,0-2-2H2A2,2,0,0,0,0,169.83Z"/><path class="cls-4" d="M122.25,276.93h34a2,2,0,0,0,2-2V248a2,2,0,0,1,3.61-1.19l21.83,29.39a2,2,0,0,0,1.51.8l39,.86a2,2,0,0,0,2.09-2V169.93a2,2,0,0,0-2-2h-38a2,2,0,0,0-2,2V196a2,2,0,0,1-3.59,1.21l-21.81-28.52a2,2,0,0,0-1.59-.78h-35a2,2,0,0,0-2,2v105A2,2,0,0,0,122.25,276.93Z"/><rect class="cls-4" x="241.74" y="167.93" width="41" height="110.9" rx="2.02"/><path class="cls-4" d="M484.69,170.83v30a2,2,0,0,1-2,2h-21a2,2,0,0,1-2-2v-30a2,2,0,0,0-2-2h-35a2,2,0,0,0-2,2v106a2,2,0,0,0,2,2h35a2,2,0,0,0,2-2v-32a2,2,0,0,1,2-2h21a2,2,0,0,1,2,2v32a2,2,0,0,0,2,2h35a2,2,0,0,0,2-2v-106a2,2,0,0,0-2-2h-35A2,2,0,0,0,484.69,170.83Z"/><path class="cls-4" d="M622.78,166.83h-84a2,2,0,0,0-2,2v36a2,2,0,0,0,2,2h18a2,2,0,0,1,2,2v68a2,2,0,0,0,2,2h36a2,2,0,0,0,2-2v-68a2,2,0,0,1,2-2h22a2,2,0,0,0,2-2v-36A2,2,0,0,0,622.78,166.83Z"/><path class="cls-4" d="M623.32,242.64v34.19a2,2,0,0,0,2.09,2c9.66-.44,50.52-3.69,69.91-27.94,11.81-14.75,14.9-29.5,36.88-40.45a2,2,0,0,0,1.12-1.79V168.71a2,2,0,0,0-1.88-2c-7.37-.37-35.08,1.41-59.12,45.18-12.14,22.13-40.15,27.7-47.3,28.78A2,2,0,0,0,623.32,242.64Z"/><path class="cls-4" d="M407,222H370.33a1.9,1.9,0,0,0-1.87,1.63c-1.81,12.29-16.36,20.42-29.83,10.44a2.19,2.19,0,0,1-.43-.43c-10.72-14.37-.7-30.08,13-30.08a17.41,17.41,0,0,1,12.47,5.24,1.9,1.9,0,0,0,2.7.07l24.74-24.09a1.91,1.91,0,0,0,0-2.69c-16.3-16.7-43-23.22-69.62-9.09A44.42,44.42,0,0,0,303,191.67c-22.34,42.58,7.95,85.2,48.2,85.2a55.83,55.83,0,0,0,16.45-2.47,1.89,1.89,0,0,1,2.44,1.8v.74a1.89,1.89,0,0,0,1.89,1.89h33.09a1.9,1.9,0,0,0,1.9-1.89V222.1h0A.15.15,0,0,1,407,222Z"/><path class="cls-1" d="M197.87,69.15a61,61,0,0,1-1.57,10.39,57.42,57.42,0,0,1-10.18,21.66,54.78,54.78,0,0,1-19,15.57q-11.68,6-26.85,6h-4.79q-3.39,0-7.88-.1t-9.69-.1q-5,0-9.38-.1c-2.93-.07-5.42-.13-7.48-.2a16.51,16.51,0,0,1-3.5-.3,19.08,19.08,0,0,1-2.19-2.1A4.2,4.2,0,0,1,94,117.44q0,3.59,0,7.17a4.14,4.14,0,0,0,1.4,2.49,19.08,19.08,0,0,0,2.19,2.1,16.51,16.51,0,0,0,3.5.3c2.06.07,4.55.13,7.48.2s6.06.1,9.38.1,6.69,0,9.69.1,5.62.1,7.88.1h4.79q15.16,0,26.85-6a54.78,54.78,0,0,0,19-15.57A57.42,57.42,0,0,0,196.3,86.78,59.59,59.59,0,0,0,197.87,69.15Z"/><path class="cls-1" d="M309.74,47.6a37.61,37.61,0,0,1-4.18,13.48A19.41,19.41,0,0,1,300.77,67a18.33,18.33,0,0,0-4.59,5.49v.2l2.52,3.51a20.45,20.45,0,0,1,2.07-2,19.53,19.53,0,0,0,4.79-5.89A37,37,0,0,0,310,51,27.15,27.15,0,0,0,309.74,47.6Zm15.47,72.8c-1.55,0-3.58.09-6.08.16q-6.58.21-14,.2-7.19,0-13.17-.3t-7-1.29q-8-8-14.87-16.27a165,165,0,0,1-12.5-17.26l-.38-.61-.59-.4-1,.4v2.06l-.19,32.08-1.2,1.19c-1.47.14-3.76.24-6.89.3l-9.78.2q-5.09.11-9.58,0a36.19,36.19,0,0,1-6.29-.5,7.53,7.53,0,0,1-3.09-1.69,9.14,9.14,0,0,1-2.29-2.89q0,3.61,0,7.23a9.36,9.36,0,0,0,2.3,2.9,7.53,7.53,0,0,0,3.09,1.69,36.19,36.19,0,0,0,6.29.5q4.5.1,9.58,0l9.78-.2c3.13-.06,5.42-.16,6.89-.3l1.2-1.2.2-34.13,1-.4.59.4a164,164,0,0,0,12.88,17.87Q277,118.42,285,126.4q1,1,7,1.3t13.17.3q7.38,0,14-.2t8.79-.2l1.59-1v-.2Z"/><path class="cls-1" d="M453.92,72.57a25,25,0,0,1-.39,3.22,59,59,0,0,1-6.76,20.09,59,59,0,0,1-30.33,26.63,55.58,55.58,0,0,1-20.69,3.9,57.31,57.31,0,0,1-24-5,60.12,60.12,0,0,1-19.16-13.63,64,64,0,0,1-12.7-19.88,61.88,61.88,0,0,1-4.51-20.3c-.07,1.18-.1,2.37-.1,3.57a62.54,62.54,0,0,0,4.61,24A64,64,0,0,0,352.61,115a60.12,60.12,0,0,0,19.16,13.63,57.31,57.31,0,0,0,24,5,55.58,55.58,0,0,0,20.69-3.9A59.47,59.47,0,0,0,453.53,83a23.38,23.38,0,0,0,.41-4.3V74.22C453.94,73.67,453.93,73.12,453.92,72.57Z"/><path class="cls-1" d="M513.29,123.33v7.24a2.06,2.06,0,0,1-2.06,2.06H474.36a2.07,2.07,0,0,1-2.07-2.06v-7.24a2.07,2.07,0,0,0,2.07,2.06h36.87A2.06,2.06,0,0,0,513.29,123.33Z"/><path class="cls-1" d="M639.32,74.55a58.09,58.09,0,0,1-58.09,58.08H537.44a2,2,0,0,1-2-2v-7.24a2,2,0,0,0,2,2h43.79a58.08,58.08,0,0,0,58-54.46C639.28,72.13,639.32,73.33,639.32,74.55Z"/><path class="cls-2" d="M197.87,81.76a61,61,0,0,1-1.57,10.39,57.42,57.42,0,0,1-10.18,21.66,54.78,54.78,0,0,1-19,15.57q-11.68,6-26.85,6h-4.79q-3.39,0-7.88-.1t-9.69-.1q-5,0-9.38-.1c-2.93-.07-5.42-.13-7.48-.2a16.51,16.51,0,0,1-3.5-.3,19.08,19.08,0,0,1-2.19-2.1A4.2,4.2,0,0,1,94,130.05q0,3.58,0,7.17a4.14,4.14,0,0,0,1.4,2.49,19.08,19.08,0,0,0,2.19,2.1,16.51,16.51,0,0,0,3.5.3c2.06.07,4.55.13,7.48.2s6.06.1,9.38.1,6.69,0,9.69.1,5.62.1,7.88.1h4.79q15.16,0,26.85-6a54.78,54.78,0,0,0,19-15.57A57.42,57.42,0,0,0,196.3,99.39,59.59,59.59,0,0,0,197.87,81.76Z"/><path class="cls-2" d="M309.74,60.21a37.61,37.61,0,0,1-4.18,13.48,19.41,19.41,0,0,1-4.79,5.89,18.33,18.33,0,0,0-4.59,5.49v.2l2.52,3.51a20.45,20.45,0,0,1,2.07-2,19.53,19.53,0,0,0,4.79-5.89A37,37,0,0,0,310,63.56,27.15,27.15,0,0,0,309.74,60.21ZM325.21,133c-1.55,0-3.58.09-6.08.16q-6.58.21-14,.2-7.19,0-13.17-.3t-7-1.29q-8-8-14.87-16.27a165,165,0,0,1-12.5-17.26l-.38-.61-.59-.4-1,.4V99.7l-.19,32.08-1.2,1.19c-1.47.14-3.76.24-6.89.3l-9.78.2q-5.09.1-9.58,0a36.19,36.19,0,0,1-6.29-.5,7.53,7.53,0,0,1-3.09-1.69,9.14,9.14,0,0,1-2.29-2.89q0,3.62,0,7.23a9.36,9.36,0,0,0,2.3,2.9,7.53,7.53,0,0,0,3.09,1.69,36.19,36.19,0,0,0,6.29.5q4.5.1,9.58,0l9.78-.2c3.13-.06,5.42-.16,6.89-.3l1.2-1.2.2-34.13,1-.4.59.4a164,164,0,0,0,12.88,17.87Q277,131,285,139q1,1,7,1.3t13.17.3q7.38,0,14-.2t8.79-.2l1.59-1V139Z"/><path class="cls-2" d="M453.92,85.18a25,25,0,0,1-.39,3.22,59,59,0,0,1-6.76,20.09,59,59,0,0,1-30.33,26.63,55.58,55.58,0,0,1-20.69,3.9,57.31,57.31,0,0,1-24-5,60.12,60.12,0,0,1-19.16-13.63,64,64,0,0,1-12.7-19.88,61.88,61.88,0,0,1-4.51-20.3c-.07,1.18-.1,2.37-.1,3.57a62.54,62.54,0,0,0,4.61,24,64,64,0,0,0,12.7,19.88,60.12,60.12,0,0,0,19.16,13.63,57.31,57.31,0,0,0,24,5,55.58,55.58,0,0,0,20.69-3.9,59.47,59.47,0,0,0,37.09-46.72,23.38,23.38,0,0,0,.41-4.3V86.83C453.94,86.28,453.93,85.73,453.92,85.18Z"/><path class="cls-2" d="M513.29,135.94v7.24a2.06,2.06,0,0,1-2.06,2.06H474.36a2.07,2.07,0,0,1-2.07-2.06v-7.24a2.07,2.07,0,0,0,2.07,2.06h36.87A2.06,2.06,0,0,0,513.29,135.94Z"/><path class="cls-2" d="M639.32,87.16a58.09,58.09,0,0,1-58.09,58.08H537.44a2,2,0,0,1-2-2V136a2,2,0,0,0,2,2h43.79a58.08,58.08,0,0,0,58-54.46C639.28,84.74,639.32,85.94,639.32,87.16Z"/><path class="cls-3" d="M197.87,94a61,61,0,0,1-1.57,10.39A57.42,57.42,0,0,1,186.12,126a54.78,54.78,0,0,1-19,15.57q-11.68,6-26.85,6h-4.79q-3.39,0-7.88-.1t-9.69-.1q-5,0-9.38-.1c-2.93-.07-5.42-.13-7.48-.2a16.51,16.51,0,0,1-3.5-.3,19.08,19.08,0,0,1-2.19-2.1A4.2,4.2,0,0,1,94,142.24q0,3.58,0,7.17a4.14,4.14,0,0,0,1.4,2.49,19.08,19.08,0,0,0,2.19,2.1,16.51,16.51,0,0,0,3.5.3c2.06.07,4.55.13,7.48.2s6.06.1,9.38.1,6.69,0,9.69.1,5.62.1,7.88.1h4.79q15.16,0,26.85-6a54.78,54.78,0,0,0,19-15.57,57.42,57.42,0,0,0,10.18-21.66A59.59,59.59,0,0,0,197.87,94Z"/><path class="cls-3" d="M309.74,72.4a37.61,37.61,0,0,1-4.18,13.48,19.41,19.41,0,0,1-4.79,5.89,18.33,18.33,0,0,0-4.59,5.49v.2L298.7,101a20.45,20.45,0,0,1,2.07-2,19.53,19.53,0,0,0,4.79-5.89A37,37,0,0,0,310,75.75,27.15,27.15,0,0,0,309.74,72.4Zm15.47,72.8c-1.55,0-3.58.09-6.08.16q-6.58.21-14,.2-7.19,0-13.17-.3T285,144q-8-8-14.87-16.27a165,165,0,0,1-12.5-17.26l-.38-.61-.59-.4-1,.4v2.06L255.46,144l-1.2,1.19c-1.47.14-3.76.24-6.89.3l-9.78.2q-5.09.1-9.58,0a36.19,36.19,0,0,1-6.29-.5,7.53,7.53,0,0,1-3.09-1.69,9.14,9.14,0,0,1-2.29-2.89q0,3.61,0,7.23a9.36,9.36,0,0,0,2.3,2.9,7.53,7.53,0,0,0,3.09,1.69,36.19,36.19,0,0,0,6.29.5q4.5.1,9.58,0l9.78-.2c3.13-.06,5.42-.16,6.89-.3l1.2-1.2.2-34.13,1-.4.59.4a164,164,0,0,0,12.88,17.87Q277,143.22,285,151.2q1,1,7,1.3t13.17.3q7.38,0,14-.2t8.79-.2l1.59-1v-.2Z"/><path class="cls-3" d="M453.92,97.37a25,25,0,0,1-.39,3.22,59,59,0,0,1-6.76,20.09,59,59,0,0,1-30.33,26.63,55.58,55.58,0,0,1-20.69,3.9,57.31,57.31,0,0,1-24-5,60.12,60.12,0,0,1-19.16-13.63,64,64,0,0,1-12.7-19.88,61.88,61.88,0,0,1-4.51-20.3c-.07,1.18-.1,2.37-.1,3.57a62.54,62.54,0,0,0,4.61,24,64,64,0,0,0,12.7,19.88,60.12,60.12,0,0,0,19.16,13.63,57.31,57.31,0,0,0,24,5,55.58,55.58,0,0,0,20.69-3.9,59.47,59.47,0,0,0,37.09-46.72,23.38,23.38,0,0,0,.41-4.3V99C453.94,98.47,453.93,97.92,453.92,97.37Z"/><path class="cls-3" d="M513.29,148.13v7.24a2.06,2.06,0,0,1-2.06,2.06H474.36a2.07,2.07,0,0,1-2.07-2.06v-7.24a2.07,2.07,0,0,0,2.07,2.06h36.87A2.06,2.06,0,0,0,513.29,148.13Z"/><path class="cls-3" d="M639.32,99.35a58.09,58.09,0,0,1-58.09,58.08H537.44a2,2,0,0,1-2-2v-7.24a2,2,0,0,0,2,2h43.79a58.08,58.08,0,0,0,58-54.46C639.28,96.93,639.32,98.13,639.32,99.35Z"/><path class="cls-4" d="M187.62,26.82A59.88,59.88,0,0,1,197.1,50a59.1,59.1,0,0,1-.8,24.15,57.42,57.42,0,0,1-10.18,21.66,54.69,54.69,0,0,1-19,15.57q-11.67,6-26.85,6h-4.79q-3.39,0-7.88-.1c-3-.07-6.22-.1-9.68-.1s-6.46,0-9.38-.1-5.43-.13-7.49-.2a15,15,0,0,1-3.49-.3,18.76,18.76,0,0,1-2.2-2.09A4.18,4.18,0,0,1,94,112q0-27.54.1-54.79t.1-54.8l1-1.19Q109,1,122.75,1q14,0,27.74.8A23.35,23.35,0,0,1,159.08,4a74.89,74.89,0,0,1,8,4.19A60.25,60.25,0,0,1,187.62,26.82Z"/><path class="cls-4" d="M327.91,114.94c-1.47,0-4.39.07-8.78.2s-9.06.2-14,.2-9.18-.1-13.17-.3-6.32-.63-7-1.29q-8-8-14.87-16.27a162.58,162.58,0,0,1-12.87-17.87l-.6-.4-1,.4-.2,34.14-1.2,1.19c-1.46.14-3.76.24-6.88.3l-9.78.2c-3.4.07-6.59.07-9.59,0a36,36,0,0,1-6.28-.5,7.39,7.39,0,0,1-3.1-1.69,9.32,9.32,0,0,1-2.29-2.9q0-27.34.1-54.49t.7-54.49l1-1q15,0,29.74-.3t29.75.7a25.7,25.7,0,0,1,12.07,4.09,43.42,43.42,0,0,1,10.38,9.08,46.19,46.19,0,0,1,7.19,11.88,32.36,32.36,0,0,1,2.69,12.47,37,37,0,0,1-4.39,17.37,19.41,19.41,0,0,1-4.79,5.89A18.48,18.48,0,0,0,296.17,67v.2l33.34,46.51v.2Z"/><path class="cls-4" d="M453.88,66.07a24.28,24.28,0,0,1-.41,4.3,59.3,59.3,0,0,1-37.09,46.73,55.86,55.86,0,0,1-20.7,3.89,57.31,57.31,0,0,1-24-5,60.23,60.23,0,0,1-19.16-13.63,64.28,64.28,0,0,1-12.7-19.87,62.82,62.82,0,0,1-4.61-24,60.14,60.14,0,0,1,10.24-33.71,56.21,56.21,0,0,1,12-12.81,55,55,0,0,1,15.88-8.6A57.71,57.71,0,0,1,392.71.19a57,57,0,0,1,18.65,3.28,66.51,66.51,0,0,1,16.7,8.81A63.74,63.74,0,0,1,441.58,25.5a62.31,62.31,0,0,1,9,16.8,57.23,57.23,0,0,1,3.28,19.26ZM417.81,4.19V4l.62.21Z"/><rect class="cls-4" x="472.29" y="3.8" width="41" height="116.17" rx="2.06"/><path class="cls-4" d="M537.44,3.8h43.79a58.09,58.09,0,0,1,58.09,58.09v0A58.09,58.09,0,0,1,581.24,120H537.44a2,2,0,0,1-2-2V5.8a2,2,0,0,1,2-2Z"/></g></g></svg>